solid OpenSCAD_Model
  facet normal -1.000000 -0.000000 -0.000000
    outer loop
      vertex -55.928000 18.869000 0.000000
      vertex -55.928000 18.869000 17.500000
      vertex -55.928000 32.392000 0.000000
    endloop
  endfacet
  facet normal -1.000000 0.000000 0.000000
    outer loop
      vertex -55.928000 32.392000 0.000000
      vertex -55.928000 18.869000 17.500000
      vertex -55.928000 32.392000 17.500000
    endloop
  endfacet
  facet normal -0.707107 -0.707107 0.000000
    outer loop
      vertex -55.928000 18.869000 17.500000
      vertex -55.928000 18.869000 0.000000
      vertex -53.928000 16.869000 0.000000
    endloop
  endfacet
  facet normal -0.707107 -0.707107 0.000000
    outer loop
      vertex -53.928000 16.869000 17.500000
      vertex -55.928000 18.869000 17.500000
      vertex -53.928000 16.869000 0.000000
    endloop
  endfacet
  facet normal -0.000000 -0.000000 -1.000000
    outer loop
      vertex -55.928000 18.869000 0.000000
      vertex -55.928000 32.392000 0.000000
      vertex -53.928000 16.869000 0.000000
    endloop
  endfacet
  facet normal 0.000000 -0.000000 -1.000000
    outer loop
      vertex -53.928000 16.869000 0.000000
      vertex -55.928000 32.392000 0.000000
      vertex -50.840000 32.392000 0.000000
    endloop
  endfacet
  facet normal 0.000000 0.000000 -1.000000
    outer loop
      vertex -52.642000 22.640000 0.000000
      vertex -50.840000 32.392000 0.000000
      vertex -48.490000 32.639000 0.000000
    endloop
  endfacet
  facet normal -0.000000 0.000000 -1.000000
    outer loop
      vertex -51.285000 23.722000 0.000000
      vertex -41.054000 38.042000 0.000000
      vertex -49.593000 23.336000 0.000000
    endloop
  endfacet
  facet normal 0.000000 0.000000 -1.000000
    outer loop
      vertex -51.285000 23.722000 0.000000
      vertex -42.442000 36.131000 0.000000
      vertex -41.054000 38.042000 0.000000
    endloop
  endfacet
  facet normal -0.000000 0.000000 -1.000000
    outer loop
      vertex -48.840000 21.772000 0.000000
      vertex -27.835000 37.758000 0.000000
      vertex -49.593000 20.208000 0.000000
    endloop
  endfacet
  facet normal -0.000000 0.000000 -1.000000
    outer loop
      vertex -39.602000 44.873000 0.000000
      vertex -33.914000 70.503000 0.000000
      vertex -39.602000 42.511000 0.000000
    endloop
  endfacet
  facet normal -0.000000 0.000000 -1.000000
    outer loop
      vertex -40.093000 47.184000 0.000000
      vertex -33.914000 70.503000 0.000000
      vertex -39.602000 44.873000 0.000000
    endloop
  endfacet
  facet normal -0.000000 -0.000000 -1.000000
    outer loop
      vertex -44.198000 52.834000 0.000000
      vertex -55.928000 68.515000 0.000000
      vertex -42.442000 51.253000 0.000000
    endloop
  endfacet
  facet normal -0.000000 -0.000000 -1.000000
    outer loop
      vertex -46.244000 54.015000 0.000000
      vertex -55.928000 68.515000 0.000000
      vertex -44.198000 52.834000 0.000000
    endloop
  endfacet
  facet normal -0.000000 -0.000000 -1.000000
    outer loop
      vertex -48.490000 54.745000 0.000000
      vertex -55.928000 68.515000 0.000000
      vertex -46.244000 54.015000 0.000000
    endloop
  endfacet
  facet normal 0.000000 0.000000 -1.000000
    outer loop
      vertex -50.840000 54.992000 0.000000
      vertex -55.928000 54.992000 0.000000
      vertex -55.928000 68.515000 0.000000
    endloop
  endfacet
  facet normal -0.000000 -0.000000 -1.000000
    outer loop
      vertex -50.840000 54.992000 0.000000
      vertex -55.928000 68.515000 0.000000
      vertex -48.490000 54.745000 0.000000
    endloop
  endfacet
  facet normal 0.000000 0.000000 -1.000000
    outer loop
      vertex -52.642000 66.480000 0.000000
      vertex -55.928000 68.515000 0.000000
      vertex -54.031000 70.503000 0.000000
    endloop
  endfacet
  facet normal 0.000000 -0.000000 -1.000000
    outer loop
      vertex -49.593000 67.176000 0.000000
      vertex -54.031000 70.503000 0.000000
      vertex -33.914000 70.503000 0.000000
    endloop
  endfacet
  facet normal -0.000000 0.000000 -1.000000
    outer loop
      vertex -41.054000 49.342000 0.000000
      vertex -33.914000 70.503000 0.000000
      vertex -40.093000 47.184000 0.000000
    endloop
  endfacet
  facet normal -0.000000 -0.000000 -1.000000
    outer loop
      vertex -22.605000 47.423000 0.000000
      vertex -33.914000 70.503000 0.000000
      vertex -16.140000 46.926000 0.000000
    endloop
  endfacet
  facet normal 0.000000 0.000000 -1.000000
    outer loop
      vertex -22.605000 40.052000 0.000000
      vertex -16.140000 46.926000 0.000000
      vertex -16.139000 40.459000 0.000000
    endloop
  endfacet
  facet normal -0.000000 0.000000 -1.000000
    outer loop
      vertex -53.928000 16.869000 0.000000
      vertex -16.139000 40.459000 0.000000
      vertex -33.923000 16.869000 0.000000
    endloop
  endfacet
  facet normal 0.000000 0.000000 -1.000000
    outer loop
      vertex -53.928000 16.869000 0.000000
      vertex -50.840000 32.392000 0.000000
      vertex -52.642000 22.640000 0.000000
    endloop
  endfacet
  facet normal 0.000000 0.000000 -1.000000
    outer loop
      vertex -51.285000 19.822000 0.000000
      vertex -53.928000 16.869000 0.000000
      vertex -52.642000 20.904000 0.000000
    endloop
  endfacet
  facet normal 0.000000 0.000000 -1.000000
    outer loop
      vertex -53.928000 16.869000 0.000000
      vertex -52.642000 22.640000 0.000000
      vertex -52.642000 20.904000 0.000000
    endloop
  endfacet
  facet normal 0.000000 -0.000000 -1.000000
    outer loop
      vertex -52.642000 66.480000 0.000000
      vertex -54.031000 70.503000 0.000000
      vertex -51.285000 67.562000 0.000000
    endloop
  endfacet
  facet normal -0.000000 0.000000 -1.000000
    outer loop
      vertex -49.593000 23.336000 0.000000
      vertex -41.054000 38.042000 0.000000
      vertex -48.840000 21.772000 0.000000
    endloop
  endfacet
  facet normal 0.000000 0.000000 -1.000000
    outer loop
      vertex -49.593000 20.208000 0.000000
      vertex -53.928000 16.869000 0.000000
      vertex -51.285000 19.822000 0.000000
    endloop
  endfacet
  facet normal 0.000000 0.000000 -1.000000
    outer loop
      vertex -25.867000 37.921000 0.000000
      vertex -49.593000 20.208000 0.000000
      vertex -27.835000 37.758000 0.000000
    endloop
  endfacet
  facet normal 0.000000 0.000000 -1.000000
    outer loop
      vertex -53.928000 16.869000 0.000000
      vertex -49.593000 20.208000 0.000000
      vertex -16.139000 40.459000 0.000000
    endloop
  endfacet
  facet normal 0.000000 0.000000 -1.000000
    outer loop
      vertex -51.285000 23.722000 0.000000
      vertex -44.198000 34.550000 0.000000
      vertex -42.442000 36.131000 0.000000
    endloop
  endfacet
  facet normal 0.000000 0.000000 -1.000000
    outer loop
      vertex -51.285000 23.722000 0.000000
      vertex -46.244000 33.369000 0.000000
      vertex -44.198000 34.550000 0.000000
    endloop
  endfacet
  facet normal -0.000000 0.000000 -1.000000
    outer loop
      vertex -48.490000 32.639000 0.000000
      vertex -46.244000 33.369000 0.000000
      vertex -51.285000 23.722000 0.000000
    endloop
  endfacet
  facet normal 0.000000 0.000000 -1.000000
    outer loop
      vertex -49.593000 64.049000 0.000000
      vertex -41.054000 49.342000 0.000000
      vertex -42.442000 51.253000 0.000000
    endloop
  endfacet
  facet normal 0.000000 0.000000 -1.000000
    outer loop
      vertex -52.642000 64.745000 0.000000
      vertex -55.928000 68.515000 0.000000
      vertex -52.642000 66.480000 0.000000
    endloop
  endfacet
  facet normal 0.000000 0.000000 -1.000000
    outer loop
      vertex -49.593000 64.049000 0.000000
      vertex -42.442000 51.253000 0.000000
      vertex -51.285000 63.663000 0.000000
    endloop
  endfacet
  facet normal 0.000000 0.000000 -1.000000
    outer loop
      vertex -42.442000 51.253000 0.000000
      vertex -55.928000 68.515000 0.000000
      vertex -52.642000 64.745000 0.000000
    endloop
  endfacet
  facet normal 0.000000 0.000000 -1.000000
    outer loop
      vertex -42.442000 51.253000 0.000000
      vertex -52.642000 64.745000 0.000000
      vertex -51.285000 63.663000 0.000000
    endloop
  endfacet
  facet normal 0.000000 -0.000000 -1.000000
    outer loop
      vertex -41.054000 49.342000 0.000000
      vertex -49.593000 64.049000 0.000000
      vertex -33.914000 70.503000 0.000000
    endloop
  endfacet
  facet normal 0.000000 0.000000 -1.000000
    outer loop
      vertex -33.258000 42.750000 0.000000
      vertex -39.602000 42.511000 0.000000
      vertex -33.258000 44.725000 0.000000
    endloop
  endfacet
  facet normal 0.000000 0.000000 -1.000000
    outer loop
      vertex -49.593000 64.049000 0.000000
      vertex -48.840000 65.612000 0.000000
      vertex -33.914000 70.503000 0.000000
    endloop
  endfacet
  facet normal 0.000000 -0.000000 -1.000000
    outer loop
      vertex -48.840000 65.612000 0.000000
      vertex -49.593000 67.176000 0.000000
      vertex -33.914000 70.503000 0.000000
    endloop
  endfacet
  facet normal 0.000000 0.000000 -1.000000
    outer loop
      vertex -39.602000 42.511000 0.000000
      vertex -33.914000 70.503000 0.000000
      vertex -33.258000 44.725000 0.000000
    endloop
  endfacet
  facet normal 0.000000 0.000000 -1.000000
    outer loop
      vertex -22.605000 47.423000 0.000000
      vertex -16.140000 46.926000 0.000000
      vertex -21.665000 45.686000 0.000000
    endloop
  endfacet
  facet normal -0.000000 0.000000 -1.000000
    outer loop
      vertex -39.602000 42.511000 0.000000
      vertex -33.258000 42.750000 0.000000
      vertex -40.093000 40.200000 0.000000
    endloop
  endfacet
  facet normal 0.000000 0.000000 -1.000000
    outer loop
      vertex -27.835000 37.758000 0.000000
      vertex -48.840000 21.772000 0.000000
      vertex -29.750000 38.243000 0.000000
    endloop
  endfacet
  facet normal -0.000000 0.000000 -1.000000
    outer loop
      vertex -41.054000 38.042000 0.000000
      vertex -32.617000 40.882000 0.000000
      vertex -48.840000 21.772000 0.000000
    endloop
  endfacet
  facet normal 0.000000 0.000000 -1.000000
    outer loop
      vertex -32.617000 40.882000 0.000000
      vertex -31.404000 39.323000 0.000000
      vertex -48.840000 21.772000 0.000000
    endloop
  endfacet
  facet normal -0.000000 0.000000 -1.000000
    outer loop
      vertex -21.665000 45.686000 0.000000
      vertex -16.140000 46.926000 0.000000
      vertex -21.340000 43.737000 0.000000
    endloop
  endfacet
  facet normal 0.000000 0.000000 -1.000000
    outer loop
      vertex -31.404000 39.323000 0.000000
      vertex -29.750000 38.243000 0.000000
      vertex -48.840000 21.772000 0.000000
    endloop
  endfacet
  facet normal -0.000000 0.000000 -1.000000
    outer loop
      vertex -21.665000 41.789000 0.000000
      vertex -16.140000 46.926000 0.000000
      vertex -22.605000 40.052000 0.000000
    endloop
  endfacet
  facet normal 0.000000 0.000000 -1.000000
    outer loop
      vertex -49.593000 20.208000 0.000000
      vertex -25.867000 37.921000 0.000000
      vertex -16.139000 40.459000 0.000000
    endloop
  endfacet
  facet normal -0.000000 0.000000 -1.000000
    outer loop
      vertex -21.340000 43.737000 0.000000
      vertex -16.140000 46.926000 0.000000
      vertex -21.665000 41.789000 0.000000
    endloop
  endfacet
  facet normal 0.000000 0.000000 -1.000000
    outer loop
      vertex -25.867000 37.921000 0.000000
      vertex -24.058000 38.714000 0.000000
      vertex -16.139000 40.459000 0.000000
    endloop
  endfacet
  facet normal 0.000000 0.000000 -1.000000
    outer loop
      vertex -24.058000 38.714000 0.000000
      vertex -22.605000 40.052000 0.000000
      vertex -16.139000 40.459000 0.000000
    endloop
  endfacet
  facet normal 0.000000 0.000000 -1.000000
    outer loop
      vertex -32.617000 40.882000 0.000000
      vertex -40.093000 40.200000 0.000000
      vertex -33.258000 42.750000 0.000000
    endloop
  endfacet
  facet normal 0.000000 0.000000 -1.000000
    outer loop
      vertex -32.617000 40.882000 0.000000
      vertex -41.054000 38.042000 0.000000
      vertex -40.093000 40.200000 0.000000
    endloop
  endfacet
  facet normal -0.000000 -0.000000 -1.000000
    outer loop
      vertex -24.058000 48.760000 0.000000
      vertex -33.914000 70.503000 0.000000
      vertex -22.605000 47.423000 0.000000
    endloop
  endfacet
  facet normal -0.000000 -0.000000 -1.000000
    outer loop
      vertex -25.867000 49.554000 0.000000
      vertex -33.914000 70.503000 0.000000
      vertex -24.058000 48.760000 0.000000
    endloop
  endfacet
  facet normal -0.000000 -0.000000 -1.000000
    outer loop
      vertex -27.835000 49.717000 0.000000
      vertex -33.914000 70.503000 0.000000
      vertex -25.867000 49.554000 0.000000
    endloop
  endfacet
  facet normal 0.000000 -0.000000 -1.000000
    outer loop
      vertex -29.750000 49.232000 0.000000
      vertex -33.914000 70.503000 0.000000
      vertex -27.835000 49.717000 0.000000
    endloop
  endfacet
  facet normal 0.000000 -0.000000 -1.000000
    outer loop
      vertex -31.404000 48.152000 0.000000
      vertex -33.914000 70.503000 0.000000
      vertex -29.750000 49.232000 0.000000
    endloop
  endfacet
  facet normal 0.000000 -0.000000 -1.000000
    outer loop
      vertex -32.617000 46.593000 0.000000
      vertex -33.914000 70.503000 0.000000
      vertex -31.404000 48.152000 0.000000
    endloop
  endfacet
  facet normal 0.000000 -0.000000 -1.000000
    outer loop
      vertex -33.258000 44.725000 0.000000
      vertex -33.914000 70.503000 0.000000
      vertex -32.617000 46.593000 0.000000
    endloop
  endfacet
  facet normal 0.000000 0.000000 -1.000000
    outer loop
      vertex -52.642000 22.640000 0.000000
      vertex -48.490000 32.639000 0.000000
      vertex -51.285000 23.722000 0.000000
    endloop
  endfacet
  facet normal -0.000000 -0.000000 -1.000000
    outer loop
      vertex -51.285000 67.562000 0.000000
      vertex -54.031000 70.503000 0.000000
      vertex -49.593000 67.176000 0.000000
    endloop
  endfacet
  facet normal 0.000000 1.000000 0.000000
    outer loop
      vertex -55.928000 32.392000 0.000000
      vertex -55.928000 32.392000 17.500000
      vertex -50.840000 32.392000 0.000000
    endloop
  endfacet
  facet normal 0.000000 1.000000 0.000000
    outer loop
      vertex -50.840000 32.392000 7.000000
      vertex -55.928000 32.392000 17.500000
      vertex -47.011000 32.392000 17.500000
    endloop
  endfacet
  facet normal 0.000000 1.000000 0.000000
    outer loop
      vertex -50.840000 32.392000 0.000000
      vertex -55.928000 32.392000 17.500000
      vertex -50.840000 32.392000 7.000000
    endloop
  endfacet
  facet normal 0.000000 1.000000 0.000000
    outer loop
      vertex -50.840000 32.392000 7.000000
      vertex -47.011000 32.392000 17.500000
      vertex -47.011000 32.392000 7.000000
    endloop
  endfacet
  facet normal 0.000000 -0.000000 1.000000
    outer loop
      vertex -55.928000 32.392000 17.500000
      vertex -55.928000 18.869000 17.500000
      vertex -53.928000 16.869000 17.500000
    endloop
  endfacet
  facet normal -0.000000 -0.000000 1.000000
    outer loop
      vertex -38.486000 23.637000 17.500000
      vertex -55.928000 32.392000 17.500000
      vertex -33.923000 16.869000 17.500000
    endloop
  endfacet
  facet normal -0.000000 0.000000 1.000000
    outer loop
      vertex -52.642000 20.904000 17.500000
      vertex -55.928000 32.392000 17.500000
      vertex -53.928000 16.869000 17.500000
    endloop
  endfacet
  facet normal -0.000000 0.000000 1.000000
    outer loop
      vertex -30.625000 21.244000 17.500000
      vertex -34.676000 22.044000 17.500000
      vertex -33.923000 16.869000 17.500000
    endloop
  endfacet
  facet normal -0.000000 -0.000000 1.000000
    outer loop
      vertex -34.676000 22.044000 17.500000
      vertex -38.486000 23.637000 17.500000
      vertex -33.923000 16.869000 17.500000
    endloop
  endfacet
  facet normal 0.000000 0.000000 1.000000
    outer loop
      vertex -41.899000 25.960000 17.500000
      vertex -44.780000 28.918000 17.500000
      vertex -55.928000 32.392000 17.500000
    endloop
  endfacet
  facet normal 0.000000 0.000000 1.000000
    outer loop
      vertex -49.593000 23.336000 17.500000
      vertex -48.840000 21.772000 17.500000
      vertex -33.923000 16.869000 17.500000
    endloop
  endfacet
  facet normal 0.000000 -0.000000 1.000000
    outer loop
      vertex -47.011000 32.392000 17.500000
      vertex -55.928000 32.392000 17.500000
      vertex -44.780000 28.918000 17.500000
    endloop
  endfacet
  facet normal -0.000000 0.000000 1.000000
    outer loop
      vertex -51.285000 19.822000 17.500000
      vertex -52.642000 20.904000 17.500000
      vertex -53.928000 16.869000 17.500000
    endloop
  endfacet
  facet normal -0.000000 0.000000 1.000000
    outer loop
      vertex -52.642000 22.640000 17.500000
      vertex -55.928000 32.392000 17.500000
      vertex -52.642000 20.904000 17.500000
    endloop
  endfacet
  facet normal -0.000000 0.000000 1.000000
    outer loop
      vertex -51.285000 23.722000 17.500000
      vertex -55.928000 32.392000 17.500000
      vertex -52.642000 22.640000 17.500000
    endloop
  endfacet
  facet normal 0.000000 0.000000 1.000000
    outer loop
      vertex -49.593000 23.336000 17.500000
      vertex -55.928000 32.392000 17.500000
      vertex -51.285000 23.722000 17.500000
    endloop
  endfacet
  facet normal 0.000000 0.000000 1.000000
    outer loop
      vertex -33.923000 16.869000 17.500000
      vertex -55.928000 32.392000 17.500000
      vertex -49.593000 23.336000 17.500000
    endloop
  endfacet
  facet normal -0.000000 0.000000 1.000000
    outer loop
      vertex -33.923000 16.869000 17.500000
      vertex -49.593000 20.208000 17.500000
      vertex -53.928000 16.869000 17.500000
    endloop
  endfacet
  facet normal 0.000000 0.000000 1.000000
    outer loop
      vertex -49.593000 20.208000 17.500000
      vertex -51.285000 19.822000 17.500000
      vertex -53.928000 16.869000 17.500000
    endloop
  endfacet
  facet normal 0.000000 0.000000 1.000000
    outer loop
      vertex -38.486000 23.637000 17.500000
      vertex -41.899000 25.960000 17.500000
      vertex -55.928000 32.392000 17.500000
    endloop
  endfacet
  facet normal 0.000000 -0.000000 1.000000
    outer loop
      vertex -48.840000 21.772000 17.500000
      vertex -49.593000 20.208000 17.500000
      vertex -33.923000 16.869000 17.500000
    endloop
  endfacet
  facet normal 0.000000 -1.000000 0.000000
    outer loop
      vertex -53.928000 16.869000 17.500000
      vertex -53.928000 16.869000 0.000000
      vertex -33.923000 16.869000 0.000000
    endloop
  endfacet
  facet normal 0.000000 -1.000000 0.000000
    outer loop
      vertex -33.923000 16.869000 17.500000
      vertex -53.928000 16.869000 17.500000
      vertex -33.923000 16.869000 7.000000
    endloop
  endfacet
  facet normal 0.000000 -1.000000 0.000000
    outer loop
      vertex -33.923000 16.869000 7.000000
      vertex -53.928000 16.869000 17.500000
      vertex -33.923000 16.869000 0.000000
    endloop
  endfacet
  facet normal 0.798511 -0.601980 0.000000
    outer loop
      vertex -33.923000 16.869000 7.000000
      vertex -33.923000 16.869000 0.000000
      vertex -16.139000 40.459000 0.000000
    endloop
  endfacet
  facet normal 0.798511 -0.601980 0.000000
    outer loop
      vertex -16.139000 40.459000 7.000000
      vertex -33.923000 16.869000 7.000000
      vertex -16.139000 40.459000 0.000000
    endloop
  endfacet
  facet normal 1.000000 0.000155 0.000000
    outer loop
      vertex -16.139000 40.459000 0.000000
      vertex -16.140000 46.926000 0.000000
      vertex -16.140000 46.926000 7.000000
    endloop
  endfacet
  facet normal 1.000000 0.000155 -0.000000
    outer loop
      vertex -16.139000 40.459000 7.000000
      vertex -16.139000 40.459000 0.000000
      vertex -16.140000 46.926000 7.000000
    endloop
  endfacet
  facet normal 0.798514 0.601976 0.000000
    outer loop
      vertex -16.140000 46.926000 0.000000
      vertex -33.914000 70.503000 0.000000
      vertex -33.914000 70.503000 7.000000
    endloop
  endfacet
  facet normal 0.798514 0.601976 -0.000000
    outer loop
      vertex -16.140000 46.926000 7.000000
      vertex -16.140000 46.926000 0.000000
      vertex -30.684625 66.219272 7.000000
    endloop
  endfacet
  facet normal 0.798514 0.601976 -0.000000
    outer loop
      vertex -30.684625 66.219272 7.000000
      vertex -16.140000 46.926000 0.000000
      vertex -33.914000 70.503000 7.000000
    endloop
  endfacet
  facet normal 0.000000 1.000000 0.000000
    outer loop
      vertex -54.031000 70.503000 0.000000
      vertex -54.031000 70.503000 7.000000
      vertex -33.914000 70.503000 0.000000
    endloop
  endfacet
  facet normal 0.000000 1.000000 0.000000
    outer loop
      vertex -33.914000 70.503000 0.000000
      vertex -54.031000 70.503000 7.000000
      vertex -33.914000 70.503000 7.000000
    endloop
  endfacet
  facet normal -0.723471 0.690355 0.000000
    outer loop
      vertex -55.928000 68.515000 0.000000
      vertex -55.928000 68.515000 7.000000
      vertex -54.031000 70.503000 0.000000
    endloop
  endfacet
  facet normal -0.723471 0.690355 0.000000
    outer loop
      vertex -54.031000 70.503000 0.000000
      vertex -55.928000 68.515000 7.000000
      vertex -54.031000 70.503000 7.000000
    endloop
  endfacet
  facet normal -1.000000 -0.000000 -0.000000
    outer loop
      vertex -55.928000 54.992000 0.000000
      vertex -55.928000 54.992000 7.000000
      vertex -55.928000 68.515000 0.000000
    endloop
  endfacet
  facet normal -1.000000 0.000000 0.000000
    outer loop
      vertex -55.928000 68.515000 0.000000
      vertex -55.928000 54.992000 7.000000
      vertex -55.928000 55.083000 7.000000
    endloop
  endfacet
  facet normal -1.000000 0.000000 0.000000
    outer loop
      vertex -55.928000 68.515000 0.000000
      vertex -55.928000 55.083000 7.000000
      vertex -55.928000 55.083000 17.500000
    endloop
  endfacet
  facet normal -1.000000 0.000000 -0.000000
    outer loop
      vertex -55.928000 68.515000 7.000000
      vertex -55.928000 55.083000 17.500000
      vertex -55.928000 68.606000 17.500000
    endloop
  endfacet
  facet normal -1.000000 0.000000 0.000000
    outer loop
      vertex -55.928000 68.515000 0.000000
      vertex -55.928000 55.083000 17.500000
      vertex -55.928000 68.515000 7.000000
    endloop
  endfacet
  facet normal -1.000000 -0.000000 0.000000
    outer loop
      vertex -55.928000 68.515000 7.000000
      vertex -55.928000 68.606000 17.500000
      vertex -55.928000 68.606000 7.000000
    endloop
  endfacet
  facet normal 0.000000 -1.000000 0.000000
    outer loop
      vertex -55.928000 54.992000 7.000000
      vertex -55.928000 54.992000 0.000000
      vertex -50.840000 54.992000 0.000000
    endloop
  endfacet
  facet normal 0.000000 -1.000000 0.000000
    outer loop
      vertex -50.840000 54.992000 7.000000
      vertex -55.928000 54.992000 7.000000
      vertex -50.840000 54.992000 0.000000
    endloop
  endfacet
  facet normal -0.104531 -0.994522 0.000000
    outer loop
      vertex -50.840000 54.992000 7.000000
      vertex -50.840000 54.992000 0.000000
      vertex -48.490000 54.745000 0.000000
    endloop
  endfacet
  facet normal -0.104531 -0.994522 0.000000
    outer loop
      vertex -48.490000 54.745000 7.000000
      vertex -50.840000 54.992000 7.000000
      vertex -48.490000 54.745000 0.000000
    endloop
  endfacet
  facet normal -0.309105 -0.951028 0.000000
    outer loop
      vertex -48.490000 54.745000 7.000000
      vertex -48.490000 54.745000 0.000000
      vertex -46.244000 54.015000 0.000000
    endloop
  endfacet
  facet normal -0.309105 -0.951028 0.000000
    outer loop
      vertex -46.244000 54.015000 7.000000
      vertex -48.490000 54.745000 7.000000
      vertex -46.244000 54.015000 0.000000
    endloop
  endfacet
  facet normal -0.499918 -0.866073 0.000000
    outer loop
      vertex -46.244000 54.015000 7.000000
      vertex -46.244000 54.015000 0.000000
      vertex -44.198000 52.834000 0.000000
    endloop
  endfacet
  facet normal -0.499918 -0.866073 0.000000
    outer loop
      vertex -44.198000 52.834000 7.000000
      vertex -46.244000 54.015000 7.000000
      vertex -44.198000 52.834000 0.000000
    endloop
  endfacet
  facet normal -0.669105 -0.743168 0.000000
    outer loop
      vertex -44.198000 52.834000 7.000000
      vertex -44.198000 52.834000 0.000000
      vertex -42.442000 51.253000 0.000000
    endloop
  endfacet
  facet normal -0.669105 -0.743168 0.000000
    outer loop
      vertex -42.442000 51.253000 7.000000
      vertex -44.198000 52.834000 7.000000
      vertex -42.442000 51.253000 0.000000
    endloop
  endfacet
  facet normal -0.809102 -0.587668 -0.000000
    outer loop
      vertex -42.442000 51.253000 0.000000
      vertex -41.054000 49.342000 0.000000
      vertex -42.442000 51.253000 7.000000
    endloop
  endfacet
  facet normal -0.809102 -0.587668 0.000000
    outer loop
      vertex -42.442000 51.253000 7.000000
      vertex -41.054000 49.342000 0.000000
      vertex -41.054000 49.342000 7.000000
    endloop
  endfacet
  facet normal -0.913515 -0.406806 -0.000000
    outer loop
      vertex -41.054000 49.342000 0.000000
      vertex -40.093000 47.184000 0.000000
      vertex -41.054000 49.342000 7.000000
    endloop
  endfacet
  facet normal -0.913515 -0.406806 0.000000
    outer loop
      vertex -41.054000 49.342000 7.000000
      vertex -40.093000 47.184000 0.000000
      vertex -40.093000 47.184000 7.000000
    endloop
  endfacet
  facet normal -0.978166 -0.207823 -0.000000
    outer loop
      vertex -40.093000 47.184000 0.000000
      vertex -39.602000 44.873000 0.000000
      vertex -40.093000 47.184000 7.000000
    endloop
  endfacet
  facet normal -0.978166 -0.207823 0.000000
    outer loop
      vertex -40.093000 47.184000 7.000000
      vertex -39.602000 44.873000 0.000000
      vertex -39.602000 44.873000 7.000000
    endloop
  endfacet
  facet normal -1.000000 -0.000000 -0.000000
    outer loop
      vertex -39.602000 42.511000 0.000000
      vertex -39.602000 42.511000 7.000000
      vertex -39.602000 44.873000 0.000000
    endloop
  endfacet
  facet normal -1.000000 0.000000 0.000000
    outer loop
      vertex -39.602000 44.873000 0.000000
      vertex -39.602000 42.511000 7.000000
      vertex -39.602000 44.873000 7.000000
    endloop
  endfacet
  facet normal -0.978166 0.207823 0.000000
    outer loop
      vertex -40.093000 40.200000 0.000000
      vertex -40.093000 40.200000 7.000000
      vertex -39.602000 42.511000 0.000000
    endloop
  endfacet
  facet normal -0.978166 0.207823 0.000000
    outer loop
      vertex -39.602000 42.511000 0.000000
      vertex -40.093000 40.200000 7.000000
      vertex -39.602000 42.511000 7.000000
    endloop
  endfacet
  facet normal -0.913515 0.406806 0.000000
    outer loop
      vertex -41.054000 38.042000 0.000000
      vertex -41.054000 38.042000 7.000000
      vertex -40.093000 40.200000 0.000000
    endloop
  endfacet
  facet normal -0.913515 0.406806 0.000000
    outer loop
      vertex -40.093000 40.200000 0.000000
      vertex -41.054000 38.042000 7.000000
      vertex -40.093000 40.200000 7.000000
    endloop
  endfacet
  facet normal -0.809102 0.587668 0.000000
    outer loop
      vertex -42.442000 36.131000 0.000000
      vertex -42.442000 36.131000 7.000000
      vertex -41.054000 38.042000 0.000000
    endloop
  endfacet
  facet normal -0.809102 0.587668 0.000000
    outer loop
      vertex -41.054000 38.042000 0.000000
      vertex -42.442000 36.131000 7.000000
      vertex -41.054000 38.042000 7.000000
    endloop
  endfacet
  facet normal -0.669105 0.743168 0.000000
    outer loop
      vertex -44.198000 34.550000 0.000000
      vertex -44.198000 34.550000 7.000000
      vertex -42.442000 36.131000 0.000000
    endloop
  endfacet
  facet normal -0.669105 0.743168 0.000000
    outer loop
      vertex -42.442000 36.131000 0.000000
      vertex -44.198000 34.550000 7.000000
      vertex -42.442000 36.131000 7.000000
    endloop
  endfacet
  facet normal -0.499918 0.866073 0.000000
    outer loop
      vertex -46.244000 33.369000 0.000000
      vertex -46.244000 33.369000 7.000000
      vertex -44.198000 34.550000 0.000000
    endloop
  endfacet
  facet normal -0.499918 0.866073 0.000000
    outer loop
      vertex -44.198000 34.550000 0.000000
      vertex -46.244000 33.369000 7.000000
      vertex -44.198000 34.550000 7.000000
    endloop
  endfacet
  facet normal -0.309105 0.951028 0.000000
    outer loop
      vertex -48.490000 32.639000 0.000000
      vertex -48.490000 32.639000 7.000000
      vertex -46.244000 33.369000 0.000000
    endloop
  endfacet
  facet normal -0.309105 0.951028 0.000000
    outer loop
      vertex -46.244000 33.369000 0.000000
      vertex -48.490000 32.639000 7.000000
      vertex -46.244000 33.369000 7.000000
    endloop
  endfacet
  facet normal -0.104531 0.994522 0.000000
    outer loop
      vertex -50.840000 32.392000 0.000000
      vertex -50.840000 32.392000 7.000000
      vertex -48.490000 32.639000 0.000000
    endloop
  endfacet
  facet normal -0.104531 0.994522 0.000000
    outer loop
      vertex -48.490000 32.639000 0.000000
      vertex -50.840000 32.392000 7.000000
      vertex -48.490000 32.639000 7.000000
    endloop
  endfacet
  facet normal 0.623429 -0.781880 0.000000
    outer loop
      vertex -52.642000 22.640000 17.500000
      vertex -52.642000 22.640000 0.000000
      vertex -51.285000 23.722000 0.000000
    endloop
  endfacet
  facet normal 0.623429 -0.781880 0.000000
    outer loop
      vertex -51.285000 23.722000 17.500000
      vertex -52.642000 22.640000 17.500000
      vertex -51.285000 23.722000 0.000000
    endloop
  endfacet
  facet normal 1.000000 0.000000 -0.000000
    outer loop
      vertex -52.642000 20.904000 17.500000
      vertex -52.642000 20.904000 0.000000
      vertex -52.642000 22.640000 0.000000
    endloop
  endfacet
  facet normal 1.000000 0.000000 0.000000
    outer loop
      vertex -52.642000 22.640000 17.500000
      vertex -52.642000 20.904000 17.500000
      vertex -52.642000 22.640000 0.000000
    endloop
  endfacet
  facet normal -0.222418 -0.974951 0.000000
    outer loop
      vertex -51.285000 23.722000 17.500000
      vertex -51.285000 23.722000 0.000000
      vertex -49.593000 23.336000 0.000000
    endloop
  endfacet
  facet normal -0.222418 -0.974951 0.000000
    outer loop
      vertex -49.593000 23.336000 17.500000
      vertex -51.285000 23.722000 17.500000
      vertex -49.593000 23.336000 0.000000
    endloop
  endfacet
  facet normal -0.901010 -0.433798 -0.000000
    outer loop
      vertex -49.593000 23.336000 0.000000
      vertex -48.840000 21.772000 0.000000
      vertex -49.593000 23.336000 17.500000
    endloop
  endfacet
  facet normal -0.901010 -0.433798 0.000000
    outer loop
      vertex -49.593000 23.336000 17.500000
      vertex -48.840000 21.772000 0.000000
      vertex -48.840000 21.772000 17.500000
    endloop
  endfacet
  facet normal -0.901010 0.433798 0.000000
    outer loop
      vertex -49.593000 20.208000 0.000000
      vertex -49.593000 20.208000 17.500000
      vertex -48.840000 21.772000 0.000000
    endloop
  endfacet
  facet normal -0.901010 0.433798 0.000000
    outer loop
      vertex -48.840000 21.772000 0.000000
      vertex -49.593000 20.208000 17.500000
      vertex -48.840000 21.772000 17.500000
    endloop
  endfacet
  facet normal -0.222418 0.974951 0.000000
    outer loop
      vertex -51.285000 19.822000 0.000000
      vertex -51.285000 19.822000 17.500000
      vertex -49.593000 20.208000 0.000000
    endloop
  endfacet
  facet normal -0.222418 0.974951 0.000000
    outer loop
      vertex -49.593000 20.208000 0.000000
      vertex -51.285000 19.822000 17.500000
      vertex -49.593000 20.208000 17.500000
    endloop
  endfacet
  facet normal 0.623429 0.781880 0.000000
    outer loop
      vertex -52.642000 20.904000 0.000000
      vertex -52.642000 20.904000 17.500000
      vertex -51.285000 19.822000 0.000000
    endloop
  endfacet
  facet normal 0.623429 0.781880 0.000000
    outer loop
      vertex -51.285000 19.822000 0.000000
      vertex -52.642000 20.904000 17.500000
      vertex -51.285000 19.822000 17.500000
    endloop
  endfacet
  facet normal 0.623429 -0.781880 0.000000
    outer loop
      vertex -52.642000 66.480000 17.500000
      vertex -52.642000 66.480000 0.000000
      vertex -51.285000 67.562000 0.000000
    endloop
  endfacet
  facet normal 0.623429 -0.781880 0.000000
    outer loop
      vertex -51.285000 67.562000 17.500000
      vertex -52.642000 66.480000 17.500000
      vertex -51.285000 67.562000 0.000000
    endloop
  endfacet
  facet normal 1.000000 0.000000 -0.000000
    outer loop
      vertex -52.642000 64.745000 17.500000
      vertex -52.642000 64.745000 0.000000
      vertex -52.642000 66.480000 0.000000
    endloop
  endfacet
  facet normal 1.000000 0.000000 0.000000
    outer loop
      vertex -52.642000 66.480000 17.500000
      vertex -52.642000 64.745000 17.500000
      vertex -52.642000 66.480000 0.000000
    endloop
  endfacet
  facet normal -0.222418 -0.974951 0.000000
    outer loop
      vertex -51.285000 67.562000 17.500000
      vertex -51.285000 67.562000 0.000000
      vertex -49.593000 67.176000 0.000000
    endloop
  endfacet
  facet normal -0.222418 -0.974951 0.000000
    outer loop
      vertex -49.593000 67.176000 17.500000
      vertex -51.285000 67.562000 17.500000
      vertex -49.593000 67.176000 0.000000
    endloop
  endfacet
  facet normal -0.901010 -0.433798 -0.000000
    outer loop
      vertex -49.593000 67.176000 0.000000
      vertex -48.840000 65.612000 0.000000
      vertex -49.593000 67.176000 17.500000
    endloop
  endfacet
  facet normal -0.901010 -0.433798 0.000000
    outer loop
      vertex -49.593000 67.176000 17.500000
      vertex -48.840000 65.612000 0.000000
      vertex -48.840000 65.612000 17.500000
    endloop
  endfacet
  facet normal -0.900902 0.434024 0.000000
    outer loop
      vertex -49.593000 64.049000 0.000000
      vertex -49.593000 64.049000 17.500000
      vertex -48.840000 65.612000 0.000000
    endloop
  endfacet
  facet normal -0.900902 0.434024 0.000000
    outer loop
      vertex -48.840000 65.612000 0.000000
      vertex -49.593000 64.049000 17.500000
      vertex -48.840000 65.612000 17.500000
    endloop
  endfacet
  facet normal -0.222418 0.974951 0.000000
    outer loop
      vertex -51.285000 63.663000 0.000000
      vertex -51.285000 63.663000 17.500000
      vertex -49.593000 64.049000 0.000000
    endloop
  endfacet
  facet normal -0.222418 0.974951 0.000000
    outer loop
      vertex -49.593000 64.049000 0.000000
      vertex -51.285000 63.663000 17.500000
      vertex -49.593000 64.049000 17.500000
    endloop
  endfacet
  facet normal 0.623429 0.781880 0.000000
    outer loop
      vertex -52.642000 64.745000 0.000000
      vertex -52.642000 64.745000 17.500000
      vertex -51.285000 63.663000 0.000000
    endloop
  endfacet
  facet normal 0.623429 0.781880 0.000000
    outer loop
      vertex -51.285000 63.663000 0.000000
      vertex -52.642000 64.745000 17.500000
      vertex -51.285000 63.663000 17.500000
    endloop
  endfacet
  facet normal 0.945862 -0.324570 0.000000
    outer loop
      vertex -33.258000 44.725000 2.000000
      vertex -33.258000 44.725000 0.000000
      vertex -32.617000 46.593000 0.000000
    endloop
  endfacet
  facet normal 0.945862 -0.324570 0.000000
    outer loop
      vertex -32.617000 46.593000 2.000000
      vertex -33.258000 44.725000 2.000000
      vertex -32.617000 46.593000 0.000000
    endloop
  endfacet
  facet normal 1.000000 0.000000 -0.000000
    outer loop
      vertex -33.258000 42.750000 2.000000
      vertex -33.258000 42.750000 0.000000
      vertex -33.258000 44.725000 0.000000
    endloop
  endfacet
  facet normal 1.000000 0.000000 0.000000
    outer loop
      vertex -33.258000 44.725000 2.000000
      vertex -33.258000 42.750000 2.000000
      vertex -33.258000 44.725000 0.000000
    endloop
  endfacet
  facet normal 0.789243 -0.614081 0.000000
    outer loop
      vertex -32.617000 46.593000 2.000000
      vertex -32.617000 46.593000 0.000000
      vertex -31.404000 48.152000 0.000000
    endloop
  endfacet
  facet normal 0.789243 -0.614081 0.000000
    outer loop
      vertex -31.404000 48.152000 2.000000
      vertex -32.617000 46.593000 2.000000
      vertex -31.404000 48.152000 0.000000
    endloop
  endfacet
  facet normal 0.546731 -0.837308 0.000000
    outer loop
      vertex -31.404000 48.152000 2.000000
      vertex -31.404000 48.152000 0.000000
      vertex -29.750000 49.232000 0.000000
    endloop
  endfacet
  facet normal 0.546731 -0.837308 0.000000
    outer loop
      vertex -29.750000 49.232000 2.000000
      vertex -31.404000 48.152000 2.000000
      vertex -29.750000 49.232000 0.000000
    endloop
  endfacet
  facet normal 0.245512 -0.969394 0.000000
    outer loop
      vertex -29.750000 49.232000 2.000000
      vertex -29.750000 49.232000 0.000000
      vertex -27.835000 49.717000 0.000000
    endloop
  endfacet
  facet normal 0.245512 -0.969394 0.000000
    outer loop
      vertex -27.835000 49.717000 2.000000
      vertex -29.750000 49.232000 2.000000
      vertex -27.835000 49.717000 0.000000
    endloop
  endfacet
  facet normal -0.082543 -0.996588 0.000000
    outer loop
      vertex -27.835000 49.717000 2.000000
      vertex -27.835000 49.717000 0.000000
      vertex -25.867000 49.554000 0.000000
    endloop
  endfacet
  facet normal -0.082543 -0.996588 0.000000
    outer loop
      vertex -25.867000 49.554000 2.000000
      vertex -27.835000 49.717000 2.000000
      vertex -25.867000 49.554000 0.000000
    endloop
  endfacet
  facet normal -0.401907 -0.915680 0.000000
    outer loop
      vertex -25.867000 49.554000 2.000000
      vertex -25.867000 49.554000 0.000000
      vertex -24.058000 48.760000 0.000000
    endloop
  endfacet
  facet normal -0.401907 -0.915680 0.000000
    outer loop
      vertex -24.058000 48.760000 2.000000
      vertex -25.867000 49.554000 2.000000
      vertex -24.058000 48.760000 0.000000
    endloop
  endfacet
  facet normal -0.677122 -0.735870 0.000000
    outer loop
      vertex -24.058000 48.760000 2.000000
      vertex -24.058000 48.760000 0.000000
      vertex -22.605000 47.423000 0.000000
    endloop
  endfacet
  facet normal -0.677122 -0.735870 0.000000
    outer loop
      vertex -22.605000 47.423000 2.000000
      vertex -24.058000 48.760000 2.000000
      vertex -22.605000 47.423000 0.000000
    endloop
  endfacet
  facet normal -0.879477 -0.475941 -0.000000
    outer loop
      vertex -22.605000 47.423000 0.000000
      vertex -21.665000 45.686000 0.000000
      vertex -22.605000 47.423000 2.000000
    endloop
  endfacet
  facet normal -0.879477 -0.475941 0.000000
    outer loop
      vertex -22.605000 47.423000 2.000000
      vertex -21.665000 45.686000 0.000000
      vertex -21.665000 45.686000 2.000000
    endloop
  endfacet
  facet normal -0.986380 -0.164481 -0.000000
    outer loop
      vertex -21.665000 45.686000 0.000000
      vertex -21.340000 43.737000 0.000000
      vertex -21.665000 45.686000 2.000000
    endloop
  endfacet
  facet normal -0.986380 -0.164481 0.000000
    outer loop
      vertex -21.665000 45.686000 2.000000
      vertex -21.340000 43.737000 0.000000
      vertex -21.340000 43.737000 2.000000
    endloop
  endfacet
  facet normal -0.986367 0.164563 0.000000
    outer loop
      vertex -21.665000 41.789000 0.000000
      vertex -21.665000 41.789000 2.000000
      vertex -21.340000 43.737000 0.000000
    endloop
  endfacet
  facet normal -0.986367 0.164563 0.000000
    outer loop
      vertex -21.340000 43.737000 0.000000
      vertex -21.665000 41.789000 2.000000
      vertex -21.340000 43.737000 2.000000
    endloop
  endfacet
  facet normal -0.879477 0.475941 0.000000
    outer loop
      vertex -22.605000 40.052000 0.000000
      vertex -22.605000 40.052000 2.000000
      vertex -21.665000 41.789000 0.000000
    endloop
  endfacet
  facet normal -0.879477 0.475941 0.000000
    outer loop
      vertex -21.665000 41.789000 0.000000
      vertex -22.605000 40.052000 2.000000
      vertex -21.665000 41.789000 2.000000
    endloop
  endfacet
  facet normal -0.677396 0.735618 0.000000
    outer loop
      vertex -24.058000 38.714000 0.000000
      vertex -24.058000 38.714000 2.000000
      vertex -22.605000 40.052000 0.000000
    endloop
  endfacet
  facet normal -0.677396 0.735618 0.000000
    outer loop
      vertex -22.605000 40.052000 0.000000
      vertex -24.058000 38.714000 2.000000
      vertex -22.605000 40.052000 2.000000
    endloop
  endfacet
  facet normal -0.401483 0.915867 0.000000
    outer loop
      vertex -25.867000 37.921000 0.000000
      vertex -25.867000 37.921000 2.000000
      vertex -24.058000 38.714000 0.000000
    endloop
  endfacet
  facet normal -0.401483 0.915867 0.000000
    outer loop
      vertex -24.058000 38.714000 0.000000
      vertex -25.867000 37.921000 2.000000
      vertex -24.058000 38.714000 2.000000
    endloop
  endfacet
  facet normal -0.082543 0.996588 0.000000
    outer loop
      vertex -27.835000 37.758000 0.000000
      vertex -27.835000 37.758000 2.000000
      vertex -25.867000 37.921000 0.000000
    endloop
  endfacet
  facet normal -0.082543 0.996588 0.000000
    outer loop
      vertex -25.867000 37.921000 0.000000
      vertex -27.835000 37.758000 2.000000
      vertex -25.867000 37.921000 2.000000
    endloop
  endfacet
  facet normal 0.245512 0.969394 0.000000
    outer loop
      vertex -29.750000 38.243000 0.000000
      vertex -29.750000 38.243000 2.000000
      vertex -27.835000 37.758000 0.000000
    endloop
  endfacet
  facet normal 0.245512 0.969394 0.000000
    outer loop
      vertex -27.835000 37.758000 0.000000
      vertex -29.750000 38.243000 2.000000
      vertex -27.835000 37.758000 2.000000
    endloop
  endfacet
  facet normal 0.546731 0.837308 0.000000
    outer loop
      vertex -31.404000 39.323000 0.000000
      vertex -31.404000 39.323000 2.000000
      vertex -29.750000 38.243000 0.000000
    endloop
  endfacet
  facet normal 0.546731 0.837308 0.000000
    outer loop
      vertex -29.750000 38.243000 0.000000
      vertex -31.404000 39.323000 2.000000
      vertex -29.750000 38.243000 2.000000
    endloop
  endfacet
  facet normal 0.789243 0.614081 0.000000
    outer loop
      vertex -31.404000 39.323000 0.000000
      vertex -32.617000 40.882000 0.000000
      vertex -32.617000 40.882000 2.000000
    endloop
  endfacet
  facet normal 0.789243 0.614081 -0.000000
    outer loop
      vertex -31.404000 39.323000 2.000000
      vertex -31.404000 39.323000 0.000000
      vertex -32.617000 40.882000 2.000000
    endloop
  endfacet
  facet normal 0.945862 0.324570 0.000000
    outer loop
      vertex -32.617000 40.882000 0.000000
      vertex -33.258000 42.750000 0.000000
      vertex -33.258000 42.750000 2.000000
    endloop
  endfacet
  facet normal 0.945862 0.324570 -0.000000
    outer loop
      vertex -32.617000 40.882000 2.000000
      vertex -32.617000 40.882000 0.000000
      vertex -33.258000 42.750000 2.000000
    endloop
  endfacet
  facet normal 0.000000 0.000000 1.000000
    outer loop
      vertex -35.350000 45.712000 7.000000
      vertex -34.645000 47.571000 7.000000
      vertex -41.054000 49.342000 7.000000
    endloop
  endfacet
  facet normal 0.000000 -0.000000 1.000000
    outer loop
      vertex -55.928000 55.083000 7.000000
      vertex -55.928000 54.992000 7.000000
      vertex -50.840000 54.992000 7.000000
    endloop
  endfacet
  facet normal 0.000000 0.000000 1.000000
    outer loop
      vertex -22.653000 50.527000 7.000000
      vertex -21.165000 49.208000 7.000000
      vertex -16.140000 46.926000 7.000000
    endloop
  endfacet
  facet normal 0.000000 0.000000 1.000000
    outer loop
      vertex -32.026000 50.527000 7.000000
      vertex -48.490000 54.745000 7.000000
      vertex -46.244000 54.015000 7.000000
    endloop
  endfacet
  facet normal 0.000000 0.000000 1.000000
    outer loop
      vertex -32.026000 50.527000 7.000000
      vertex -47.011000 55.083000 7.000000
      vertex -48.490000 54.745000 7.000000
    endloop
  endfacet
  facet normal 0.000000 0.000000 1.000000
    outer loop
      vertex -32.026000 50.527000 7.000000
      vertex -30.265000 51.451000 7.000000
      vertex -47.011000 55.083000 7.000000
    endloop
  endfacet
  facet normal 0.000000 0.000000 1.000000
    outer loop
      vertex -39.602000 44.873000 7.000000
      vertex -34.676000 22.044000 7.000000
      vertex -40.093000 47.184000 7.000000
    endloop
  endfacet
  facet normal 0.000000 0.000000 1.000000
    outer loop
      vertex -39.602000 42.511000 7.000000
      vertex -38.486000 23.637000 7.000000
      vertex -39.602000 44.873000 7.000000
    endloop
  endfacet
  facet normal 0.000000 -0.000000 1.000000
    outer loop
      vertex -40.093000 40.200000 7.000000
      vertex -41.899000 25.960000 7.000000
      vertex -39.602000 42.511000 7.000000
    endloop
  endfacet
  facet normal 0.000000 -0.000000 1.000000
    outer loop
      vertex -41.054000 38.042000 7.000000
      vertex -44.780000 28.918000 7.000000
      vertex -40.093000 40.200000 7.000000
    endloop
  endfacet
  facet normal 0.000000 -0.000000 1.000000
    outer loop
      vertex -42.442000 36.131000 7.000000
      vertex -44.780000 28.918000 7.000000
      vertex -41.054000 38.042000 7.000000
    endloop
  endfacet
  facet normal 0.000000 -0.000000 1.000000
    outer loop
      vertex -44.198000 34.550000 7.000000
      vertex -44.780000 28.918000 7.000000
      vertex -42.442000 36.131000 7.000000
    endloop
  endfacet
  facet normal 0.000000 -0.000000 1.000000
    outer loop
      vertex -46.244000 33.369000 7.000000
      vertex -47.011000 32.392000 7.000000
      vertex -44.198000 34.550000 7.000000
    endloop
  endfacet
  facet normal 0.000000 0.000000 1.000000
    outer loop
      vertex -48.490000 32.639000 7.000000
      vertex -47.011000 32.392000 7.000000
      vertex -46.244000 33.369000 7.000000
    endloop
  endfacet
  facet normal 0.000000 0.000000 1.000000
    outer loop
      vertex -34.645000 47.571000 7.000000
      vertex -44.198000 52.834000 7.000000
      vertex -42.442000 51.253000 7.000000
    endloop
  endfacet
  facet normal 0.000000 0.000000 1.000000
    outer loop
      vertex -50.840000 32.392000 7.000000
      vertex -47.011000 32.392000 7.000000
      vertex -48.490000 32.639000 7.000000
    endloop
  endfacet
  facet normal 0.000000 0.000000 1.000000
    outer loop
      vertex -47.011000 32.392000 7.000000
      vertex -44.780000 28.918000 7.000000
      vertex -44.198000 34.550000 7.000000
    endloop
  endfacet
  facet normal 0.000000 0.000000 1.000000
    outer loop
      vertex -44.780000 28.918000 7.000000
      vertex -41.899000 25.960000 7.000000
      vertex -40.093000 40.200000 7.000000
    endloop
  endfacet
  facet normal 0.000000 0.000000 1.000000
    outer loop
      vertex -41.899000 25.960000 7.000000
      vertex -38.486000 23.637000 7.000000
      vertex -39.602000 42.511000 7.000000
    endloop
  endfacet
  facet normal 0.000000 0.000000 1.000000
    outer loop
      vertex -38.486000 23.637000 7.000000
      vertex -34.676000 22.044000 7.000000
      vertex -39.602000 44.873000 7.000000
    endloop
  endfacet
  facet normal 0.000000 0.000000 1.000000
    outer loop
      vertex -34.676000 22.044000 7.000000
      vertex -30.625000 21.244000 7.000000
      vertex -40.093000 47.184000 7.000000
    endloop
  endfacet
  facet normal 0.000000 0.000000 1.000000
    outer loop
      vertex -33.923000 16.869000 7.000000
      vertex -16.139000 40.459000 7.000000
      vertex -30.625000 21.244000 7.000000
    endloop
  endfacet
  facet normal 0.000000 0.000000 1.000000
    outer loop
      vertex -21.165000 49.208000 7.000000
      vertex -20.035000 47.571000 7.000000
      vertex -16.140000 46.926000 7.000000
    endloop
  endfacet
  facet normal 0.000000 0.000000 1.000000
    outer loop
      vertex -34.645000 47.571000 7.000000
      vertex -46.244000 54.015000 7.000000
      vertex -44.198000 52.834000 7.000000
    endloop
  endfacet
  facet normal 0.000000 -0.000000 1.000000
    outer loop
      vertex -41.902000 61.518000 7.000000
      vertex -44.782000 58.559000 7.000000
      vertex -30.684625 66.219272 7.000000
    endloop
  endfacet
  facet normal 0.000000 0.000000 1.000000
    outer loop
      vertex -35.350000 45.712000 7.000000
      vertex -41.054000 49.342000 7.000000
      vertex -40.093000 47.184000 7.000000
    endloop
  endfacet
  facet normal 0.000000 0.000000 1.000000
    outer loop
      vertex -30.684625 66.219272 7.000000
      vertex -34.677000 65.434000 7.000000
      vertex -41.902000 61.518000 7.000000
    endloop
  endfacet
  facet normal 0.000000 -0.000000 1.000000
    outer loop
      vertex -38.487000 63.841000 7.000000
      vertex -41.902000 61.518000 7.000000
      vertex -34.677000 65.434000 7.000000
    endloop
  endfacet
  facet normal 0.000000 0.000000 1.000000
    outer loop
      vertex -30.265000 51.451000 7.000000
      vertex -30.684625 66.219272 7.000000
      vertex -47.011000 55.083000 7.000000
    endloop
  endfacet
  facet normal 0.000000 0.000000 1.000000
    outer loop
      vertex -30.625000 21.244000 7.000000
      vertex -35.350000 41.763000 7.000000
      vertex -40.093000 47.184000 7.000000
    endloop
  endfacet
  facet normal 0.000000 0.000000 1.000000
    outer loop
      vertex -35.350000 41.763000 7.000000
      vertex -35.590000 43.737000 7.000000
      vertex -40.093000 47.184000 7.000000
    endloop
  endfacet
  facet normal 0.000000 0.000000 1.000000
    outer loop
      vertex -35.590000 43.737000 7.000000
      vertex -35.350000 45.712000 7.000000
      vertex -40.093000 47.184000 7.000000
    endloop
  endfacet
  facet normal 0.000000 0.000000 1.000000
    outer loop
      vertex -41.054000 49.342000 7.000000
      vertex -34.645000 47.571000 7.000000
      vertex -42.442000 51.253000 7.000000
    endloop
  endfacet
  facet normal 0.000000 0.000000 1.000000
    outer loop
      vertex -20.035000 47.571000 7.000000
      vertex -19.330000 45.712000 7.000000
      vertex -16.140000 46.926000 7.000000
    endloop
  endfacet
  facet normal 0.000000 0.000000 1.000000
    outer loop
      vertex -33.515000 49.208000 7.000000
      vertex -32.026000 50.527000 7.000000
      vertex -46.244000 54.015000 7.000000
    endloop
  endfacet
  facet normal -0.000000 0.000000 1.000000
    outer loop
      vertex -28.334000 51.927000 7.000000
      vertex -30.684625 66.219272 7.000000
      vertex -30.265000 51.451000 7.000000
    endloop
  endfacet
  facet normal -0.000000 0.000000 1.000000
    outer loop
      vertex -26.345000 51.927000 7.000000
      vertex -30.684625 66.219272 7.000000
      vertex -28.334000 51.927000 7.000000
    endloop
  endfacet
  facet normal 0.000000 0.000000 1.000000
    outer loop
      vertex -24.414000 51.451000 7.000000
      vertex -30.684625 66.219272 7.000000
      vertex -26.345000 51.927000 7.000000
    endloop
  endfacet
  facet normal 0.000000 0.000000 1.000000
    outer loop
      vertex -22.653000 50.527000 7.000000
      vertex -30.684625 66.219272 7.000000
      vertex -24.414000 51.451000 7.000000
    endloop
  endfacet
  facet normal 0.000000 0.000000 1.000000
    outer loop
      vertex -16.140000 46.926000 7.000000
      vertex -30.684625 66.219272 7.000000
      vertex -22.653000 50.527000 7.000000
    endloop
  endfacet
  facet normal 0.000000 -0.000000 1.000000
    outer loop
      vertex -19.090000 43.737000 7.000000
      vertex -19.330000 41.763000 7.000000
      vertex -16.139000 40.459000 7.000000
    endloop
  endfacet
  facet normal 0.000000 0.000000 1.000000
    outer loop
      vertex -16.139000 40.459000 7.000000
      vertex -16.140000 46.926000 7.000000
      vertex -19.330000 45.712000 7.000000
    endloop
  endfacet
  facet normal 0.000000 0.000000 1.000000
    outer loop
      vertex -16.139000 40.459000 7.000000
      vertex -19.330000 45.712000 7.000000
      vertex -19.090000 43.737000 7.000000
    endloop
  endfacet
  facet normal 0.000000 -0.000000 1.000000
    outer loop
      vertex -19.330000 41.763000 7.000000
      vertex -20.035000 39.904000 7.000000
      vertex -16.139000 40.459000 7.000000
    endloop
  endfacet
  facet normal 0.000000 0.000000 1.000000
    outer loop
      vertex -30.625000 21.244000 7.000000
      vertex -16.139000 40.459000 7.000000
      vertex -20.035000 39.904000 7.000000
    endloop
  endfacet
  facet normal 0.000000 0.000000 1.000000
    outer loop
      vertex -30.625000 21.244000 7.000000
      vertex -20.035000 39.904000 7.000000
      vertex -21.165000 38.267000 7.000000
    endloop
  endfacet
  facet normal 0.000000 0.000000 1.000000
    outer loop
      vertex -30.625000 21.244000 7.000000
      vertex -21.165000 38.267000 7.000000
      vertex -22.653000 36.948000 7.000000
    endloop
  endfacet
  facet normal 0.000000 0.000000 1.000000
    outer loop
      vertex -30.625000 21.244000 7.000000
      vertex -22.653000 36.948000 7.000000
      vertex -24.414000 36.024000 7.000000
    endloop
  endfacet
  facet normal 0.000000 0.000000 1.000000
    outer loop
      vertex -30.625000 21.244000 7.000000
      vertex -24.414000 36.024000 7.000000
      vertex -26.345000 35.548000 7.000000
    endloop
  endfacet
  facet normal 0.000000 0.000000 1.000000
    outer loop
      vertex -30.625000 21.244000 7.000000
      vertex -26.345000 35.548000 7.000000
      vertex -28.334000 35.548000 7.000000
    endloop
  endfacet
  facet normal 0.000000 0.000000 1.000000
    outer loop
      vertex -30.625000 21.244000 7.000000
      vertex -28.334000 35.548000 7.000000
      vertex -30.265000 36.024000 7.000000
    endloop
  endfacet
  facet normal 0.000000 0.000000 1.000000
    outer loop
      vertex -30.625000 21.244000 7.000000
      vertex -30.265000 36.024000 7.000000
      vertex -32.026000 36.948000 7.000000
    endloop
  endfacet
  facet normal 0.000000 0.000000 1.000000
    outer loop
      vertex -30.625000 21.244000 7.000000
      vertex -32.026000 36.948000 7.000000
      vertex -33.515000 38.267000 7.000000
    endloop
  endfacet
  facet normal 0.000000 0.000000 1.000000
    outer loop
      vertex -30.625000 21.244000 7.000000
      vertex -34.645000 39.904000 7.000000
      vertex -35.350000 41.763000 7.000000
    endloop
  endfacet
  facet normal 0.000000 0.000000 1.000000
    outer loop
      vertex -30.625000 21.244000 7.000000
      vertex -33.515000 38.267000 7.000000
      vertex -34.645000 39.904000 7.000000
    endloop
  endfacet
  facet normal 0.000000 -0.000000 1.000000
    outer loop
      vertex -44.782000 58.559000 7.000000
      vertex -47.011000 55.083000 7.000000
      vertex -30.684625 66.219272 7.000000
    endloop
  endfacet
  facet normal 0.000000 0.000000 1.000000
    outer loop
      vertex -47.011000 55.083000 7.000000
      vertex -50.840000 54.992000 7.000000
      vertex -48.490000 54.745000 7.000000
    endloop
  endfacet
  facet normal 0.000000 0.000000 1.000000
    outer loop
      vertex -47.011000 55.083000 7.000000
      vertex -55.928000 55.083000 7.000000
      vertex -50.840000 54.992000 7.000000
    endloop
  endfacet
  facet normal 0.000000 0.000000 1.000000
    outer loop
      vertex -34.645000 47.571000 7.000000
      vertex -33.515000 49.208000 7.000000
      vertex -46.244000 54.015000 7.000000
    endloop
  endfacet
  facet normal 0.841430 0.540366 0.000000
    outer loop
      vertex -44.780000 28.918000 7.000000
      vertex -47.011000 32.392000 7.000000
      vertex -47.011000 32.392000 17.500000
    endloop
  endfacet
  facet normal 0.841430 0.540366 -0.000000
    outer loop
      vertex -44.780000 28.918000 17.500000
      vertex -44.780000 28.918000 7.000000
      vertex -47.011000 32.392000 17.500000
    endloop
  endfacet
  facet normal 0.716369 0.697721 0.000000
    outer loop
      vertex -41.899000 25.960000 7.000000
      vertex -44.780000 28.918000 7.000000
      vertex -44.780000 28.918000 17.500000
    endloop
  endfacet
  facet normal 0.716369 0.697721 -0.000000
    outer loop
      vertex -41.899000 25.960000 17.500000
      vertex -41.899000 25.960000 7.000000
      vertex -44.780000 28.918000 17.500000
    endloop
  endfacet
  facet normal 0.562668 0.826683 0.000000
    outer loop
      vertex -41.899000 25.960000 7.000000
      vertex -41.899000 25.960000 17.500000
      vertex -38.486000 23.637000 7.000000
    endloop
  endfacet
  facet normal 0.562668 0.826683 0.000000
    outer loop
      vertex -38.486000 23.637000 7.000000
      vertex -41.899000 25.960000 17.500000
      vertex -38.486000 23.637000 17.500000
    endloop
  endfacet
  facet normal 0.385750 0.922603 0.000000
    outer loop
      vertex -38.486000 23.637000 7.000000
      vertex -38.486000 23.637000 17.500000
      vertex -34.676000 22.044000 7.000000
    endloop
  endfacet
  facet normal 0.385750 0.922603 0.000000
    outer loop
      vertex -34.676000 22.044000 7.000000
      vertex -38.486000 23.637000 17.500000
      vertex -34.676000 22.044000 17.500000
    endloop
  endfacet
  facet normal 0.193740 0.981053 0.000000
    outer loop
      vertex -34.676000 22.044000 7.000000
      vertex -34.676000 22.044000 17.500000
      vertex -30.625000 21.244000 7.000000
    endloop
  endfacet
  facet normal 0.193740 0.981053 0.000000
    outer loop
      vertex -30.625000 21.244000 7.000000
      vertex -34.676000 22.044000 17.500000
      vertex -30.625000 21.244000 17.500000
    endloop
  endfacet
  facet normal 0.798530 -0.601955 0.000000
    outer loop
      vertex -33.923000 16.869000 17.500000
      vertex -33.923000 16.869000 7.000000
      vertex -30.625000 21.244000 7.000000
    endloop
  endfacet
  facet normal 0.798530 -0.601955 0.000000
    outer loop
      vertex -30.625000 21.244000 17.500000
      vertex -33.923000 16.869000 17.500000
      vertex -30.625000 21.244000 7.000000
    endloop
  endfacet
  facet normal 0.192995 -0.981200 0.000000
    outer loop
      vertex -34.677000 65.434000 17.500000
      vertex -34.677000 65.434000 7.000000
      vertex -30.684625 66.219272 7.000000
    endloop
  endfacet
  facet normal 0.192995 -0.981200 0.000000
    outer loop
      vertex -30.625000 66.231000 17.500000
      vertex -34.677000 65.434000 17.500000
      vertex -30.625000 66.231000 7.000000
    endloop
  endfacet
  facet normal 0.192995 -0.981200 0.000000
    outer loop
      vertex -30.625000 66.231000 7.000000
      vertex -34.677000 65.434000 17.500000
      vertex -30.684625 66.219272 7.000000
    endloop
  endfacet
  facet normal -0.000000 0.000000 -1.000000
    outer loop
      vertex -54.031000 70.503000 7.000000
      vertex -53.928000 70.606000 7.000000
      vertex -33.914000 70.503000 7.000000
    endloop
  endfacet
  facet normal 0.000000 0.000000 -1.000000
    outer loop
      vertex -33.923000 70.606000 7.000000
      vertex -30.625000 66.231000 7.000000
      vertex -33.914000 70.503000 7.000000
    endloop
  endfacet
  facet normal 0.000000 0.000000 -1.000000
    outer loop
      vertex -33.923000 70.606000 7.000000
      vertex -33.914000 70.503000 7.000000
      vertex -53.928000 70.606000 7.000000
    endloop
  endfacet
  facet normal 0.000000 0.000000 -1.000000
    outer loop
      vertex -33.914000 70.503000 7.000000
      vertex -30.625000 66.231000 7.000000
      vertex -30.684625 66.219272 7.000000
    endloop
  endfacet
  facet normal -0.000000 0.000000 -1.000000
    outer loop
      vertex -55.928000 68.606000 7.000000
      vertex -54.031000 70.503000 7.000000
      vertex -55.928000 68.515000 7.000000
    endloop
  endfacet
  facet normal -0.707107 0.707107 0.000000
    outer loop
      vertex -55.928000 68.606000 7.000000
      vertex -55.928000 68.606000 17.500000
      vertex -54.031000 70.503000 7.000000
    endloop
  endfacet
  facet normal -0.707107 0.707107 0.000000
    outer loop
      vertex -54.031000 70.503000 7.000000
      vertex -55.928000 68.606000 17.500000
      vertex -53.928000 70.606000 17.500000
    endloop
  endfacet
  facet normal -0.707107 0.707107 0.000000
    outer loop
      vertex -54.031000 70.503000 7.000000
      vertex -53.928000 70.606000 17.500000
      vertex -53.928000 70.606000 7.000000
    endloop
  endfacet
  facet normal 0.000000 -0.000000 1.000000
    outer loop
      vertex -55.928000 68.606000 17.500000
      vertex -55.928000 55.083000 17.500000
      vertex -47.011000 55.083000 17.500000
    endloop
  endfacet
  facet normal -0.000000 -0.000000 1.000000
    outer loop
      vertex -52.642000 64.745000 17.500000
      vertex -55.928000 68.606000 17.500000
      vertex -47.011000 55.083000 17.500000
    endloop
  endfacet
  facet normal 0.000000 -0.000000 1.000000
    outer loop
      vertex -49.593000 64.049000 17.500000
      vertex -51.285000 63.663000 17.500000
      vertex -44.782000 58.559000 17.500000
    endloop
  endfacet
  facet normal -0.000000 0.000000 1.000000
    outer loop
      vertex -30.625000 66.231000 17.500000
      vertex -55.928000 68.606000 17.500000
      vertex -34.677000 65.434000 17.500000
    endloop
  endfacet
  facet normal 0.000000 -0.000000 1.000000
    outer loop
      vertex -33.923000 70.606000 17.500000
      vertex -55.928000 68.606000 17.500000
      vertex -30.625000 66.231000 17.500000
    endloop
  endfacet
  facet normal 0.000000 -0.000000 1.000000
    outer loop
      vertex -53.928000 70.606000 17.500000
      vertex -55.928000 68.606000 17.500000
      vertex -33.923000 70.606000 17.500000
    endloop
  endfacet
  facet normal -0.000000 -0.000000 1.000000
    outer loop
      vertex -51.285000 63.663000 17.500000
      vertex -52.642000 64.745000 17.500000
      vertex -47.011000 55.083000 17.500000
    endloop
  endfacet
  facet normal 0.000000 -0.000000 1.000000
    outer loop
      vertex -48.840000 65.612000 17.500000
      vertex -49.593000 64.049000 17.500000
      vertex -41.902000 61.518000 17.500000
    endloop
  endfacet
  facet normal 0.000000 0.000000 1.000000
    outer loop
      vertex -34.677000 65.434000 17.500000
      vertex -55.928000 68.606000 17.500000
      vertex -51.285000 67.562000 17.500000
    endloop
  endfacet
  facet normal -0.000000 0.000000 1.000000
    outer loop
      vertex -34.677000 65.434000 17.500000
      vertex -49.593000 67.176000 17.500000
      vertex -38.487000 63.841000 17.500000
    endloop
  endfacet
  facet normal 0.000000 0.000000 1.000000
    outer loop
      vertex -34.677000 65.434000 17.500000
      vertex -51.285000 67.562000 17.500000
      vertex -49.593000 67.176000 17.500000
    endloop
  endfacet
  facet normal -0.000000 0.000000 1.000000
    outer loop
      vertex -38.487000 63.841000 17.500000
      vertex -48.840000 65.612000 17.500000
      vertex -41.902000 61.518000 17.500000
    endloop
  endfacet
  facet normal 0.000000 0.000000 1.000000
    outer loop
      vertex -49.593000 67.176000 17.500000
      vertex -48.840000 65.612000 17.500000
      vertex -38.487000 63.841000 17.500000
    endloop
  endfacet
  facet normal -0.000000 0.000000 1.000000
    outer loop
      vertex -41.902000 61.518000 17.500000
      vertex -49.593000 64.049000 17.500000
      vertex -44.782000 58.559000 17.500000
    endloop
  endfacet
  facet normal -0.000000 0.000000 1.000000
    outer loop
      vertex -44.782000 58.559000 17.500000
      vertex -51.285000 63.663000 17.500000
      vertex -47.011000 55.083000 17.500000
    endloop
  endfacet
  facet normal 0.000000 0.000000 1.000000
    outer loop
      vertex -52.642000 64.745000 17.500000
      vertex -52.642000 66.480000 17.500000
      vertex -55.928000 68.606000 17.500000
    endloop
  endfacet
  facet normal 0.000000 0.000000 1.000000
    outer loop
      vertex -52.642000 66.480000 17.500000
      vertex -51.285000 67.562000 17.500000
      vertex -55.928000 68.606000 17.500000
    endloop
  endfacet
  facet normal 0.000000 -1.000000 0.000000
    outer loop
      vertex -55.928000 55.083000 17.500000
      vertex -55.928000 55.083000 7.000000
      vertex -47.011000 55.083000 7.000000
    endloop
  endfacet
  facet normal 0.000000 -1.000000 0.000000
    outer loop
      vertex -47.011000 55.083000 17.500000
      vertex -55.928000 55.083000 17.500000
      vertex -47.011000 55.083000 7.000000
    endloop
  endfacet
  facet normal 0.000000 0.000000 1.000000
    outer loop
      vertex -35.350000 45.712000 2.000000
      vertex -35.590000 43.737000 2.000000
      vertex -35.350000 41.763000 2.000000
    endloop
  endfacet
  facet normal 0.000000 0.000000 1.000000
    outer loop
      vertex -33.515000 38.267000 2.000000
      vertex -35.350000 45.712000 2.000000
      vertex -34.645000 39.904000 2.000000
    endloop
  endfacet
  facet normal 0.000000 0.000000 1.000000
    outer loop
      vertex -34.645000 39.904000 2.000000
      vertex -35.350000 45.712000 2.000000
      vertex -35.350000 41.763000 2.000000
    endloop
  endfacet
  facet normal 0.000000 0.000000 1.000000
    outer loop
      vertex -32.026000 36.948000 2.000000
      vertex -35.350000 45.712000 2.000000
      vertex -33.515000 38.267000 2.000000
    endloop
  endfacet
  facet normal 0.000000 0.000000 1.000000
    outer loop
      vertex -30.265000 36.024000 2.000000
      vertex -35.350000 45.712000 2.000000
      vertex -32.026000 36.948000 2.000000
    endloop
  endfacet
  facet normal -0.000000 -0.000000 1.000000
    outer loop
      vertex -32.617000 40.882000 2.000000
      vertex -35.350000 45.712000 2.000000
      vertex -30.265000 36.024000 2.000000
    endloop
  endfacet
  facet normal 0.000000 -0.000000 1.000000
    outer loop
      vertex -21.340000 43.737000 2.000000
      vertex -21.665000 41.789000 2.000000
      vertex -19.330000 41.763000 2.000000
    endloop
  endfacet
  facet normal 0.000000 0.000000 1.000000
    outer loop
      vertex -21.665000 45.686000 2.000000
      vertex -21.340000 43.737000 2.000000
      vertex -19.090000 43.737000 2.000000
    endloop
  endfacet
  facet normal 0.000000 0.000000 1.000000
    outer loop
      vertex -24.058000 48.760000 2.000000
      vertex -22.605000 47.423000 2.000000
      vertex -21.165000 49.208000 2.000000
    endloop
  endfacet
  facet normal 0.000000 0.000000 1.000000
    outer loop
      vertex -27.835000 49.717000 2.000000
      vertex -25.867000 49.554000 2.000000
      vertex -24.414000 51.451000 2.000000
    endloop
  endfacet
  facet normal 0.000000 0.000000 1.000000
    outer loop
      vertex -29.750000 49.232000 2.000000
      vertex -27.835000 49.717000 2.000000
      vertex -24.414000 51.451000 2.000000
    endloop
  endfacet
  facet normal 0.000000 -0.000000 1.000000
    outer loop
      vertex -28.334000 51.927000 2.000000
      vertex -35.350000 45.712000 2.000000
      vertex -26.345000 51.927000 2.000000
    endloop
  endfacet
  facet normal 0.000000 -0.000000 1.000000
    outer loop
      vertex -30.265000 51.451000 2.000000
      vertex -35.350000 45.712000 2.000000
      vertex -28.334000 51.927000 2.000000
    endloop
  endfacet
  facet normal 0.000000 -0.000000 1.000000
    outer loop
      vertex -32.026000 50.527000 2.000000
      vertex -35.350000 45.712000 2.000000
      vertex -30.265000 51.451000 2.000000
    endloop
  endfacet
  facet normal 0.000000 -0.000000 1.000000
    outer loop
      vertex -33.515000 49.208000 2.000000
      vertex -35.350000 45.712000 2.000000
      vertex -32.026000 50.527000 2.000000
    endloop
  endfacet
  facet normal 0.000000 -0.000000 1.000000
    outer loop
      vertex -34.645000 47.571000 2.000000
      vertex -35.350000 45.712000 2.000000
      vertex -33.515000 49.208000 2.000000
    endloop
  endfacet
  facet normal 0.000000 -0.000000 1.000000
    outer loop
      vertex -24.058000 38.714000 2.000000
      vertex -25.867000 37.921000 2.000000
      vertex -22.653000 36.948000 2.000000
    endloop
  endfacet
  facet normal 0.000000 0.000000 1.000000
    outer loop
      vertex -22.605000 47.423000 2.000000
      vertex -19.330000 45.712000 2.000000
      vertex -20.035000 47.571000 2.000000
    endloop
  endfacet
  facet normal 0.000000 0.000000 1.000000
    outer loop
      vertex -25.867000 49.554000 2.000000
      vertex -24.058000 48.760000 2.000000
      vertex -22.653000 50.527000 2.000000
    endloop
  endfacet
  facet normal 0.000000 0.000000 1.000000
    outer loop
      vertex -26.345000 51.927000 2.000000
      vertex -35.350000 45.712000 2.000000
      vertex -31.404000 48.152000 2.000000
    endloop
  endfacet
  facet normal 0.000000 -0.000000 1.000000
    outer loop
      vertex -26.345000 51.927000 2.000000
      vertex -29.750000 49.232000 2.000000
      vertex -24.414000 51.451000 2.000000
    endloop
  endfacet
  facet normal 0.000000 0.000000 1.000000
    outer loop
      vertex -26.345000 51.927000 2.000000
      vertex -31.404000 48.152000 2.000000
      vertex -29.750000 49.232000 2.000000
    endloop
  endfacet
  facet normal 0.000000 -0.000000 1.000000
    outer loop
      vertex -24.414000 51.451000 2.000000
      vertex -25.867000 49.554000 2.000000
      vertex -22.653000 50.527000 2.000000
    endloop
  endfacet
  facet normal 0.000000 0.000000 1.000000
    outer loop
      vertex -22.605000 47.423000 2.000000
      vertex -21.665000 45.686000 2.000000
      vertex -19.330000 45.712000 2.000000
    endloop
  endfacet
  facet normal 0.000000 -0.000000 1.000000
    outer loop
      vertex -22.653000 50.527000 2.000000
      vertex -24.058000 48.760000 2.000000
      vertex -21.165000 49.208000 2.000000
    endloop
  endfacet
  facet normal 0.000000 -0.000000 1.000000
    outer loop
      vertex -21.165000 49.208000 2.000000
      vertex -22.605000 47.423000 2.000000
      vertex -20.035000 47.571000 2.000000
    endloop
  endfacet
  facet normal 0.000000 -0.000000 1.000000
    outer loop
      vertex -19.330000 45.712000 2.000000
      vertex -21.665000 45.686000 2.000000
      vertex -19.090000 43.737000 2.000000
    endloop
  endfacet
  facet normal -0.000000 0.000000 1.000000
    outer loop
      vertex -32.617000 46.593000 2.000000
      vertex -31.404000 48.152000 2.000000
      vertex -35.350000 45.712000 2.000000
    endloop
  endfacet
  facet normal 0.000000 0.000000 1.000000
    outer loop
      vertex -19.090000 43.737000 2.000000
      vertex -21.340000 43.737000 2.000000
      vertex -19.330000 41.763000 2.000000
    endloop
  endfacet
  facet normal -0.000000 0.000000 1.000000
    outer loop
      vertex -19.330000 41.763000 2.000000
      vertex -21.665000 41.789000 2.000000
      vertex -20.035000 39.904000 2.000000
    endloop
  endfacet
  facet normal -0.000000 0.000000 1.000000
    outer loop
      vertex -20.035000 39.904000 2.000000
      vertex -22.605000 40.052000 2.000000
      vertex -21.165000 38.267000 2.000000
    endloop
  endfacet
  facet normal -0.000000 0.000000 1.000000
    outer loop
      vertex -21.165000 38.267000 2.000000
      vertex -24.058000 38.714000 2.000000
      vertex -22.653000 36.948000 2.000000
    endloop
  endfacet
  facet normal 0.000000 -0.000000 1.000000
    outer loop
      vertex -21.665000 41.789000 2.000000
      vertex -22.605000 40.052000 2.000000
      vertex -20.035000 39.904000 2.000000
    endloop
  endfacet
  facet normal -0.000000 0.000000 1.000000
    outer loop
      vertex -22.653000 36.948000 2.000000
      vertex -25.867000 37.921000 2.000000
      vertex -24.414000 36.024000 2.000000
    endloop
  endfacet
  facet normal -0.000000 0.000000 1.000000
    outer loop
      vertex -24.414000 36.024000 2.000000
      vertex -27.835000 37.758000 2.000000
      vertex -26.345000 35.548000 2.000000
    endloop
  endfacet
  facet normal -0.000000 0.000000 1.000000
    outer loop
      vertex -26.345000 35.548000 2.000000
      vertex -29.750000 38.243000 2.000000
      vertex -28.334000 35.548000 2.000000
    endloop
  endfacet
  facet normal 0.000000 0.000000 1.000000
    outer loop
      vertex -28.334000 35.548000 2.000000
      vertex -31.404000 39.323000 2.000000
      vertex -30.265000 36.024000 2.000000
    endloop
  endfacet
  facet normal 0.000000 -0.000000 1.000000
    outer loop
      vertex -25.867000 37.921000 2.000000
      vertex -27.835000 37.758000 2.000000
      vertex -24.414000 36.024000 2.000000
    endloop
  endfacet
  facet normal -0.000000 -0.000000 1.000000
    outer loop
      vertex -31.404000 39.323000 2.000000
      vertex -32.617000 40.882000 2.000000
      vertex -30.265000 36.024000 2.000000
    endloop
  endfacet
  facet normal 0.000000 0.000000 1.000000
    outer loop
      vertex -32.617000 40.882000 2.000000
      vertex -33.258000 42.750000 2.000000
      vertex -35.350000 45.712000 2.000000
    endloop
  endfacet
  facet normal -0.000000 -0.000000 1.000000
    outer loop
      vertex -29.750000 38.243000 2.000000
      vertex -31.404000 39.323000 2.000000
      vertex -28.334000 35.548000 2.000000
    endloop
  endfacet
  facet normal 0.000000 0.000000 1.000000
    outer loop
      vertex -33.258000 42.750000 2.000000
      vertex -33.258000 44.725000 2.000000
      vertex -35.350000 45.712000 2.000000
    endloop
  endfacet
  facet normal -0.000000 -0.000000 1.000000
    outer loop
      vertex -27.835000 37.758000 2.000000
      vertex -29.750000 38.243000 2.000000
      vertex -26.345000 35.548000 2.000000
    endloop
  endfacet
  facet normal 0.000000 -0.000000 1.000000
    outer loop
      vertex -22.605000 40.052000 2.000000
      vertex -24.058000 38.714000 2.000000
      vertex -21.165000 38.267000 2.000000
    endloop
  endfacet
  facet normal 0.000000 0.000000 1.000000
    outer loop
      vertex -33.258000 44.725000 2.000000
      vertex -32.617000 46.593000 2.000000
      vertex -35.350000 45.712000 2.000000
    endloop
  endfacet
  facet normal 0.841792 -0.539803 0.000000
    outer loop
      vertex -47.011000 55.083000 17.500000
      vertex -47.011000 55.083000 7.000000
      vertex -44.782000 58.559000 7.000000
    endloop
  endfacet
  facet normal 0.841792 -0.539803 0.000000
    outer loop
      vertex -44.782000 58.559000 17.500000
      vertex -47.011000 55.083000 17.500000
      vertex -44.782000 58.559000 7.000000
    endloop
  endfacet
  facet normal 0.716608 -0.697476 0.000000
    outer loop
      vertex -44.782000 58.559000 17.500000
      vertex -44.782000 58.559000 7.000000
      vertex -41.902000 61.518000 7.000000
    endloop
  endfacet
  facet normal 0.716608 -0.697476 0.000000
    outer loop
      vertex -41.902000 61.518000 17.500000
      vertex -44.782000 58.559000 17.500000
      vertex -41.902000 61.518000 7.000000
    endloop
  endfacet
  facet normal 0.562442 -0.826836 0.000000
    outer loop
      vertex -41.902000 61.518000 17.500000
      vertex -41.902000 61.518000 7.000000
      vertex -38.487000 63.841000 7.000000
    endloop
  endfacet
  facet normal 0.562442 -0.826836 0.000000
    outer loop
      vertex -38.487000 63.841000 17.500000
      vertex -41.902000 61.518000 17.500000
      vertex -38.487000 63.841000 7.000000
    endloop
  endfacet
  facet normal 0.385750 -0.922603 0.000000
    outer loop
      vertex -38.487000 63.841000 17.500000
      vertex -38.487000 63.841000 7.000000
      vertex -34.677000 65.434000 7.000000
    endloop
  endfacet
  facet normal 0.385750 -0.922603 0.000000
    outer loop
      vertex -34.677000 65.434000 17.500000
      vertex -38.487000 63.841000 17.500000
      vertex -34.677000 65.434000 7.000000
    endloop
  endfacet
  facet normal 0.992690 0.120692 0.000000
    outer loop
      vertex -35.350000 41.763000 2.000000
      vertex -35.590000 43.737000 2.000000
      vertex -35.590000 43.737000 7.000000
    endloop
  endfacet
  facet normal 0.992690 0.120692 -0.000000
    outer loop
      vertex -35.350000 41.763000 7.000000
      vertex -35.350000 41.763000 2.000000
      vertex -35.590000 43.737000 7.000000
    endloop
  endfacet
  facet normal 0.935021 0.354594 0.000000
    outer loop
      vertex -34.645000 39.904000 2.000000
      vertex -35.350000 41.763000 2.000000
      vertex -35.350000 41.763000 7.000000
    endloop
  endfacet
  facet normal 0.935021 0.354594 -0.000000
    outer loop
      vertex -34.645000 39.904000 7.000000
      vertex -34.645000 39.904000 2.000000
      vertex -35.350000 41.763000 7.000000
    endloop
  endfacet
  facet normal 0.822970 0.568085 0.000000
    outer loop
      vertex -33.515000 38.267000 2.000000
      vertex -34.645000 39.904000 2.000000
      vertex -34.645000 39.904000 7.000000
    endloop
  endfacet
  facet normal 0.822970 0.568085 -0.000000
    outer loop
      vertex -33.515000 38.267000 7.000000
      vertex -33.515000 38.267000 2.000000
      vertex -34.645000 39.904000 7.000000
    endloop
  endfacet
  facet normal 0.663084 0.748545 0.000000
    outer loop
      vertex -33.515000 38.267000 2.000000
      vertex -33.515000 38.267000 7.000000
      vertex -32.026000 36.948000 2.000000
    endloop
  endfacet
  facet normal 0.663084 0.748545 0.000000
    outer loop
      vertex -32.026000 36.948000 2.000000
      vertex -33.515000 38.267000 7.000000
      vertex -32.026000 36.948000 7.000000
    endloop
  endfacet
  facet normal 0.464627 0.885507 0.000000
    outer loop
      vertex -32.026000 36.948000 2.000000
      vertex -32.026000 36.948000 7.000000
      vertex -30.265000 36.024000 2.000000
    endloop
  endfacet
  facet normal 0.464627 0.885507 0.000000
    outer loop
      vertex -30.265000 36.024000 2.000000
      vertex -32.026000 36.948000 7.000000
      vertex -30.265000 36.024000 7.000000
    endloop
  endfacet
  facet normal 0.239340 0.970936 0.000000
    outer loop
      vertex -30.265000 36.024000 2.000000
      vertex -30.265000 36.024000 7.000000
      vertex -28.334000 35.548000 2.000000
    endloop
  endfacet
  facet normal 0.239340 0.970936 0.000000
    outer loop
      vertex -28.334000 35.548000 2.000000
      vertex -30.265000 36.024000 7.000000
      vertex -28.334000 35.548000 7.000000
    endloop
  endfacet
  facet normal 0.000000 1.000000 0.000000
    outer loop
      vertex -28.334000 35.548000 2.000000
      vertex -28.334000 35.548000 7.000000
      vertex -26.345000 35.548000 2.000000
    endloop
  endfacet
  facet normal 0.000000 1.000000 0.000000
    outer loop
      vertex -26.345000 35.548000 2.000000
      vertex -28.334000 35.548000 7.000000
      vertex -26.345000 35.548000 7.000000
    endloop
  endfacet
  facet normal -0.239340 0.970936 0.000000
    outer loop
      vertex -26.345000 35.548000 2.000000
      vertex -26.345000 35.548000 7.000000
      vertex -24.414000 36.024000 2.000000
    endloop
  endfacet
  facet normal -0.239340 0.970936 0.000000
    outer loop
      vertex -24.414000 36.024000 2.000000
      vertex -26.345000 35.548000 7.000000
      vertex -24.414000 36.024000 7.000000
    endloop
  endfacet
  facet normal -0.464627 0.885507 0.000000
    outer loop
      vertex -24.414000 36.024000 2.000000
      vertex -24.414000 36.024000 7.000000
      vertex -22.653000 36.948000 2.000000
    endloop
  endfacet
  facet normal -0.464627 0.885507 0.000000
    outer loop
      vertex -22.653000 36.948000 2.000000
      vertex -24.414000 36.024000 7.000000
      vertex -22.653000 36.948000 7.000000
    endloop
  endfacet
  facet normal -0.663333 0.748324 0.000000
    outer loop
      vertex -22.653000 36.948000 2.000000
      vertex -22.653000 36.948000 7.000000
      vertex -21.165000 38.267000 2.000000
    endloop
  endfacet
  facet normal -0.663333 0.748324 0.000000
    outer loop
      vertex -21.165000 38.267000 2.000000
      vertex -22.653000 36.948000 7.000000
      vertex -21.165000 38.267000 7.000000
    endloop
  endfacet
  facet normal -0.822970 0.568085 0.000000
    outer loop
      vertex -21.165000 38.267000 2.000000
      vertex -21.165000 38.267000 7.000000
      vertex -20.035000 39.904000 2.000000
    endloop
  endfacet
  facet normal -0.822970 0.568085 0.000000
    outer loop
      vertex -20.035000 39.904000 2.000000
      vertex -21.165000 38.267000 7.000000
      vertex -20.035000 39.904000 7.000000
    endloop
  endfacet
  facet normal -0.935021 0.354594 0.000000
    outer loop
      vertex -20.035000 39.904000 2.000000
      vertex -20.035000 39.904000 7.000000
      vertex -19.330000 41.763000 2.000000
    endloop
  endfacet
  facet normal -0.935021 0.354594 0.000000
    outer loop
      vertex -19.330000 41.763000 2.000000
      vertex -20.035000 39.904000 7.000000
      vertex -19.330000 41.763000 7.000000
    endloop
  endfacet
  facet normal -0.992690 0.120692 0.000000
    outer loop
      vertex -19.330000 41.763000 2.000000
      vertex -19.330000 41.763000 7.000000
      vertex -19.090000 43.737000 2.000000
    endloop
  endfacet
  facet normal -0.992690 0.120692 0.000000
    outer loop
      vertex -19.090000 43.737000 2.000000
      vertex -19.330000 41.763000 7.000000
      vertex -19.090000 43.737000 7.000000
    endloop
  endfacet
  facet normal -0.992697 -0.120632 -0.000000
    outer loop
      vertex -19.330000 45.712000 2.000000
      vertex -19.090000 43.737000 2.000000
      vertex -19.330000 45.712000 7.000000
    endloop
  endfacet
  facet normal -0.992697 -0.120632 0.000000
    outer loop
      vertex -19.330000 45.712000 7.000000
      vertex -19.090000 43.737000 2.000000
      vertex -19.090000 43.737000 7.000000
    endloop
  endfacet
  facet normal -0.935021 -0.354594 -0.000000
    outer loop
      vertex -20.035000 47.571000 2.000000
      vertex -19.330000 45.712000 2.000000
      vertex -20.035000 47.571000 7.000000
    endloop
  endfacet
  facet normal -0.935021 -0.354594 0.000000
    outer loop
      vertex -20.035000 47.571000 7.000000
      vertex -19.330000 45.712000 2.000000
      vertex -19.330000 45.712000 7.000000
    endloop
  endfacet
  facet normal -0.822970 -0.568085 -0.000000
    outer loop
      vertex -21.165000 49.208000 2.000000
      vertex -20.035000 47.571000 2.000000
      vertex -21.165000 49.208000 7.000000
    endloop
  endfacet
  facet normal -0.822970 -0.568085 0.000000
    outer loop
      vertex -21.165000 49.208000 7.000000
      vertex -20.035000 47.571000 2.000000
      vertex -20.035000 47.571000 7.000000
    endloop
  endfacet
  facet normal -0.663333 -0.748324 0.000000
    outer loop
      vertex -22.653000 50.527000 7.000000
      vertex -22.653000 50.527000 2.000000
      vertex -21.165000 49.208000 2.000000
    endloop
  endfacet
  facet normal -0.663333 -0.748324 0.000000
    outer loop
      vertex -21.165000 49.208000 7.000000
      vertex -22.653000 50.527000 7.000000
      vertex -21.165000 49.208000 2.000000
    endloop
  endfacet
  facet normal -0.464627 -0.885507 0.000000
    outer loop
      vertex -24.414000 51.451000 7.000000
      vertex -24.414000 51.451000 2.000000
      vertex -22.653000 50.527000 2.000000
    endloop
  endfacet
  facet normal -0.464627 -0.885507 0.000000
    outer loop
      vertex -22.653000 50.527000 7.000000
      vertex -24.414000 51.451000 7.000000
      vertex -22.653000 50.527000 2.000000
    endloop
  endfacet
  facet normal -0.239340 -0.970936 0.000000
    outer loop
      vertex -26.345000 51.927000 7.000000
      vertex -26.345000 51.927000 2.000000
      vertex -24.414000 51.451000 2.000000
    endloop
  endfacet
  facet normal -0.239340 -0.970936 0.000000
    outer loop
      vertex -24.414000 51.451000 7.000000
      vertex -26.345000 51.927000 7.000000
      vertex -24.414000 51.451000 2.000000
    endloop
  endfacet
  facet normal 0.000000 -1.000000 0.000000
    outer loop
      vertex -28.334000 51.927000 7.000000
      vertex -28.334000 51.927000 2.000000
      vertex -26.345000 51.927000 2.000000
    endloop
  endfacet
  facet normal 0.000000 -1.000000 0.000000
    outer loop
      vertex -26.345000 51.927000 7.000000
      vertex -28.334000 51.927000 7.000000
      vertex -26.345000 51.927000 2.000000
    endloop
  endfacet
  facet normal 0.239340 -0.970936 0.000000
    outer loop
      vertex -30.265000 51.451000 7.000000
      vertex -30.265000 51.451000 2.000000
      vertex -28.334000 51.927000 2.000000
    endloop
  endfacet
  facet normal 0.239340 -0.970936 0.000000
    outer loop
      vertex -28.334000 51.927000 7.000000
      vertex -30.265000 51.451000 7.000000
      vertex -28.334000 51.927000 2.000000
    endloop
  endfacet
  facet normal 0.464627 -0.885507 0.000000
    outer loop
      vertex -32.026000 50.527000 7.000000
      vertex -32.026000 50.527000 2.000000
      vertex -30.265000 51.451000 2.000000
    endloop
  endfacet
  facet normal 0.464627 -0.885507 0.000000
    outer loop
      vertex -30.265000 51.451000 7.000000
      vertex -32.026000 50.527000 7.000000
      vertex -30.265000 51.451000 2.000000
    endloop
  endfacet
  facet normal 0.663084 -0.748545 0.000000
    outer loop
      vertex -33.515000 49.208000 7.000000
      vertex -33.515000 49.208000 2.000000
      vertex -32.026000 50.527000 2.000000
    endloop
  endfacet
  facet normal 0.663084 -0.748545 0.000000
    outer loop
      vertex -32.026000 50.527000 7.000000
      vertex -33.515000 49.208000 7.000000
      vertex -32.026000 50.527000 2.000000
    endloop
  endfacet
  facet normal 0.822970 -0.568085 0.000000
    outer loop
      vertex -34.645000 47.571000 7.000000
      vertex -34.645000 47.571000 2.000000
      vertex -33.515000 49.208000 2.000000
    endloop
  endfacet
  facet normal 0.822970 -0.568085 0.000000
    outer loop
      vertex -33.515000 49.208000 7.000000
      vertex -34.645000 47.571000 7.000000
      vertex -33.515000 49.208000 2.000000
    endloop
  endfacet
  facet normal 0.935021 -0.354594 0.000000
    outer loop
      vertex -35.350000 45.712000 7.000000
      vertex -35.350000 45.712000 2.000000
      vertex -34.645000 47.571000 2.000000
    endloop
  endfacet
  facet normal 0.935021 -0.354594 0.000000
    outer loop
      vertex -34.645000 47.571000 7.000000
      vertex -35.350000 45.712000 7.000000
      vertex -34.645000 47.571000 2.000000
    endloop
  endfacet
  facet normal 0.992697 -0.120632 0.000000
    outer loop
      vertex -35.590000 43.737000 7.000000
      vertex -35.590000 43.737000 2.000000
      vertex -35.350000 45.712000 2.000000
    endloop
  endfacet
  facet normal 0.992697 -0.120632 0.000000
    outer loop
      vertex -35.350000 45.712000 7.000000
      vertex -35.590000 43.737000 7.000000
      vertex -35.350000 45.712000 2.000000
    endloop
  endfacet
  facet normal 0.798530 0.601955 0.000000
    outer loop
      vertex -30.625000 66.231000 7.000000
      vertex -33.923000 70.606000 7.000000
      vertex -33.923000 70.606000 17.500000
    endloop
  endfacet
  facet normal 0.798530 0.601955 -0.000000
    outer loop
      vertex -30.625000 66.231000 17.500000
      vertex -30.625000 66.231000 7.000000
      vertex -33.923000 70.606000 17.500000
    endloop
  endfacet
  facet normal 0.000000 1.000000 0.000000
    outer loop
      vertex -53.928000 70.606000 7.000000
      vertex -53.928000 70.606000 17.500000
      vertex -33.923000 70.606000 7.000000
    endloop
  endfacet
  facet normal 0.000000 1.000000 0.000000
    outer loop
      vertex -33.923000 70.606000 7.000000
      vertex -53.928000 70.606000 17.500000
      vertex -33.923000 70.606000 17.500000
    endloop
  endfacet
endsolid OpenSCAD_Model
