999
dxflib 2.0.4.8
  0
SECTION
  2
HEADER
  9
$ACADVER
  1
AC1015
  9
$HANDSEED
  5
FFFF
  9
$REALWORLDSCALE
290
1
  9
$LOFTMAG1
 40
0.0
  9
$DIMASSOC
280
2
  9
$USERR4
 40
0.0
  9
$DIMTDEC
 70
4
  9
$DIMTAD
 70
0
  9
$LOFTMAG2
 40
0.0
  9
$CAMERAHEIGHT
 40
0.0
  9
$XCLIPFRAME
290
0
  9
$CMLSTYLE
  2
Standard
  9
$VISRETAIN
 70
1
  9
$TILEMODE
 70
1
  9
$SHADEDIF
 70
70
  9
$USERR5
 40
0.0
  9
$UCSYDIR
 10
0.0
 20
1.0
 30
0.0
  9
$CHAMFERA
 40
0.0
  9
$MENU
  1
.
  9
$DIMALTZ
 70
0
  9
$CLAYER
  8
0
  9
$DWFFRAME
280
2
  9
$SHOWHIST
280
1
  9
$OLESTARTUP
290
0
  9
$UCSXDIR
 10
1.0
 20
0.0
 30
0.0
  9
$CHAMFERB
 40
0.0
  9
$DIMADEC
 70
0
  9
$DIMUPT
 70
0
  9
$DIMASZ
 40
0.18
  9
$TRACEWID
 40
0.05
  9
$REGENMODE
 70
1
  9
$ORTHOMODE
 70
0
  9
$EXTMIN
 10
-350.2839226377873274
 20
-36.1311243367456427
 30
0.0
  9
$CAMERADISPLAY
290
0
  9
$ENDCAPS
280
0
  9
$MEASUREMENT
 70
0
  9
$CMLJUST
 70
0
  9
$PUCSYDIR
 10
0.0
 20
1.0
 30
0.0
  9
$ANGBASE
 50
0.0
  9
$USRTIMER
 70
1
  9
$CHAMFERC
 40
0.0
  9
$SKETCHINC
 40
0.1
  9
$DIMGAP
 40
0.09
  9
$DIMTFAC
 40
1.0
  9
$DIMSAH
 70
0
  9
$DIMALT
 70
0
  9
$DIMSHO
 70
1
  9
$LONGITUDE
 40
-122.3940000000000055
  9
$LOFTNORMALS
280
1
  9
$STEPSIZE
 40
6.0
  9
$VERSIONGUID
  2
{1217A9A6-A176-4257-845F-F4DDF35756D5}
  9
$LWDISPLAY
290
0
  9
$PUCSXDIR
 10
1.0
 20
0.0
 30
0.0
  9
$SURFTYPE
 70
6
  9
$SPLFRAME
 70
0
  9
$CHAMFERD
 40
0.0
  9
$DIMFXLON
 70
0
  9
$DIMALTRND
 40
0.0
  9
$DIMALTTD
 70
2
  9
$DIMTSZ
 40
0.0
  9
$LIMMIN
 10
0.0
 20
0.0
  9
$SHADOWPLANELOCATION
 40
0.0
  9
$CMATERIAL
347
96
  9
$STEPSPERSEC
 40
2.0
  9
$SORTENTS
280
127
  9
$CELWEIGHT
370
-1
  9
$SURFTAB1
 70
6
  9
$SPLINESEGS
 70
8
  9
$AUPREC
 70
0
  9
$LUNITS
 70
2
  9
$DIMTFILL
 70
0
  9
$DIMFXL
 40
1.0
  9
$DWGCODEPAGE
  3
ANSI_1252
  9
$TILEMODELIGHTSYNCH
280
1
  9
$PSTYLEMODE
290
1
  9
$UNITMODE
 70
0
  9
$USERI1
 70
0
  9
$UCSORTHOVIEW
 70
0
  9
$SURFTAB2
 70
6
  9
$TDUUPDATE
 40
2455858.8850077548995614
  9
$TDUCREATE
 40
2455858.7869891212321818
  9
$SKPOLY
 70
0
  9
$ELEVATION
 40
0.0
  9
$DIMDSEP
 70
46
  9
$DIMCEN
 40
0.09
  9
$DIMRND
 40
0.0
  9
$INSBASE
 10
0.0
 20
0.0
 30
0.0
  9
$SOLIDHIST
280
1
  9
$LIGHTGLYPHDISPLAY
280
1
  9
$LOFTPARAM
 70
7
  9
$INSUNITS
 70
1
  9
$USERI2
 70
0
  9
$UCSORGRIGHT
 10
0.0
 20
0.0
 30
0.0
  9
$UCSORG
 10
0.0
 20
0.0
 30
0.0
  9
$PELEVATION
 40
0.0
  9
$DIMEXO
 40
0.0625
  9
$TEXTSIZE
 40
0.2
  9
$FILLMODE
 70
1
  9
$EXTMAX
 10
636.9833881626833545
 20
450.5763511753989974
 30
0.0
  9
$3DDWFPREC
 40
2.0
  9
$LENSLENGTH
 40
50.0
  9
$JOINSTYLE
280
0
  9
$USERI3
 70
0
  9
$PUCSORGBOTTOM
 10
0.0
 20
0.0
 30
0.0
  9
$SURFU
 70
6
  9
$ANGDIR
 70
0
  9
$TDUSRTIMER
 40
0.0980207292
  9
$DIMLWD
 70
-2
  9
$DIMTZIN
 70
0
  9
$DIMTOLJ
 70
1
  9
$DIMZIN
 70
0
  9
$DIMDLE
 40
0.0
  9
$DIMSCALE
 40
1.0
  9
$WORLDVIEW
 70
1
  9
$USERI4
 70
0
  9
$SURFV
 70
6
  9
$DIMARCSYM
 70
0
  9
$DIMLWE
 70
-2
  9
$DIMLUNIT
 70
2
  9
$DIMATFIT
 70
3
  9
$DIMALTTZ
 70
0
  9
$DIMJUST
 70
0
  9
$QTEXTMODE
 70
0
  9
$LIMMAX
 10
12.0
 20
9.0
  9
$ACADMAINTVER
 70
25
  9
$DGNFRAME
280
0
  9
$LOFTANG1
 40
1.5707963267948959
  9
$PSOLHEIGHT
 40
4.0
  9
$INTERSECTIONDISPLAY
280
0
  9
$HIDETEXT
280
1
  9
$EXTNAMES
290
1
  9
$PROXYGRAPHICS
 70
1
  9
$USERI5
 70
0
  9
$UCSORGTOP
 10
0.0
 20
0.0
 30
0.0
  9
$PDMODE
 70
0
  9
$LIMCHECK
 70
0
  9
$THICKNESS
 40
0.0
  9
$DIMJOGANG
 40
0.7853981633974483
  9
$DIMAZIN
 70
0
  9
$DIMSE1
 70
0
  9
$DIMLIM
 70
0
  9
$DIMTXT
 40
0.18
  9
$ATTMODE
 70
1
  9
$INTERFEREOBJVS
345
A3
  9
$LOFTANG2
 40
1.5707963267948959
  9
$PSOLWIDTH
 40
0.25
  9
$INTERSECTIONCOLOR
 70
257
  9
$OBSLTYPE
280
0
  9
$OBSCOLOR
 70
257
  9
$XEDIT
290
1
  9
$PEXTMAX
 10
0.0
 20
0.0
 30
0.0
  9
$PEXTMIN
 10
0.0
 20
0.0
 30
0.0
  9
$PUCSORG
 10
0.0
 20
0.0
 30
0.0
  9
$SPLINETYPE
 70
6
  9
$TDINDWG
 40
0.0980207292
  9
$LUPREC
 70
4
  9
$DIMSOXD
 70
0
  9
$DIMLFAC
 40
1.0
  9
$DIMSE2
 70
0
  9
$DIMTOH
 70
1
  9
$CELTYPE
  6
ByLayer
  9
$INTERFEREVPVS
346
A0
  9
$NORTHDIRECTION
 40
0.0
  9
$PSVPSCALE
 40
0.0
  9
$FINGERPRINTGUID
  2
{064B97F1-AF74-49B4-AEE9-73F62C62003D}
  9
$PLIMCHECK
 70
0
  9
$PUCSORGRIGHT
 10
0.0
 20
0.0
 30
0.0
  9
$PLINEWID
 40
0.0
  9
$DIMFRAC
 70
0
  9
$DIMSTYLE
  2
Standard
  9
$DIMTVP
 40
0.0
  9
$DIMASO
 70
1
  9
$DIMTM
 40
0.0
  9
$DIMDLI
 40
0.38
  9
$DISPSILH
 70
0
  9
$CECOLOR
 62
256
  9
$INDEXCTL
280
0
  9
$TREEDEPTH
 70
3020
  9
$PLIMMAX
 10
12.0
 20
9.0
  9
$PLIMMIN
 10
0.0
 20
0.0
  9
$MAXACTVP
 70
64
  9
$UCSORGBACK
 10
0.0
 20
0.0
 30
0.0
  9
$UCSORGLEFT
 10
0.0
 20
0.0
 30
0.0
  9
$TDUPDATE
 40
2455858.9683410879224539
  9
$FILLETRAD
 40
0.0
  9
$DIMTFILLCLR
 70
0
  9
$DIMALTU
 70
2
  9
$DIMDEC
 70
4
  9
$DIMCLRT
 70
0
  9
$DIMALTD
 70
2
  9
$DIMTIH
 70
1
  9
$LTSCALE
 40
1.0
  9
$CSHADOW
280
0
  9
$CEPSNTYPE
380
0
  9
$CMLSCALE
 40
1.0
  9
$PINSBASE
 10
0.0
 20
0.0
 30
0.0
  9
$USERR1
 40
0.0
  9
$PUCSORTHOVIEW
 70
0
  9
$PDSIZE
 40
0.0
  9
$DIMTXSTY
  7
Standard
  9
$DIMCLRD
 70
0
  9
$DIMEXE
 40
0.18
  9
$CELTSCALE
 40
1.0
  9
$LASTSAVEDBY
  1
faildows
  9
$INTERFERECOLOR
 62
1
  9
$LATITUDE
 40
37.7950000000000017
  9
$PSLTSCALE
 70
1
  9
$PLINEGEN
 70
0
  9
$SHADEDGE
 70
3
  9
$USERR2
 40
0.0
  9
$PUCSORGTOP
 10
0.0
 20
0.0
 30
0.0
  9
$UCSORGFRONT
 10
0.0
 20
0.0
 30
0.0
  9
$TDCREATE
 40
2455858.870322453789413
  9
$DIMTMOVE
 70
0
  9
$DIMAUNIT
 70
0
  9
$DIMSD1
 70
0
  9
$DIMCLRE
 70
0
  9
$DIMTOFL
 70
0
  9
$DIMALTF
 40
25.3999999999999986
  9
$DIMTOL
 70
0
  9
$DIMTP
 40
0.0
  9
$TEXTSTYLE
  7
Standard
  9
$TIMEZONE
 70
-8000
  9
$HALOGAP
280
0
  9
$USERR3
 40
0.0
  9
$PUCSORGBACK
 10
0.0
 20
0.0
 30
0.0
  9
$PUCSORGFRONT
 10
0.0
 20
0.0
 30
0.0
  9
$PUCSORGLEFT
 10
0.0
 20
0.0
 30
0.0
  9
$UCSORGBOTTOM
 10
0.0
 20
0.0
 30
0.0
  9
$AUNITS
 70
0
  9
$DIMSD2
 70
0
  9
$DIMTIX
 70
0
  9
$MIRRTEXT
 70
0
  0
ENDSEC
  0
SECTION
  2
TABLES
  0
TABLE
  2
VPORT
  5
8
100
AcDbSymbolTable
 70
1
  0
VPORT
  5
30
100
AcDbSymbolTableRecord
100
AcDbViewportTableRecord
  2
*Active
 70
0
 10
0.0
 20
0.0
 11
1.0
 21
1.0
 12
286.3055555555554861
 22
148.5
 13
0.0
 23
0.0
 14
10.0
 24
10.0
 15
10.0
 25
10.0
 16
0.0
 26
0.0
 36
1.0
 17
0.0
 27
0.0
 37
0.0
 40
297.0
 41
1.92798353909465
 42
50.0
 43
0.0
 44
0.0
 50
0.0
 51
0.0
 71
0
 72
100
 73
1
 74
3
 75
1
 76
1
 77
0
 78
0
281
0
 65
1
110
0.0
120
0.0
130
0.0
111
1.0
121
0.0
131
0.0
112
0.0
122
1.0
132
0.0
 79
0
146
0.0
  0
ENDTAB
  0
TABLE
  2
LTYPE
  5
5
100
AcDbSymbolTable
 70
21
  0
LTYPE
  5
14
100
AcDbSymbolTableRecord
100
AcDbLinetypeTableRecord
  2
ByBlock
 70
0
  3

 72
65
 73
0
 40
0.0
  0
LTYPE
  5
15
100
AcDbSymbolTableRecord
100
AcDbLinetypeTableRecord
  2
ByLayer
 70
0
  3

 72
65
 73
0
 40
0.0
  0
LTYPE
  5
16
100
AcDbSymbolTableRecord
100
AcDbLinetypeTableRecord
  2
CONTINUOUS
 70
0
  3
Solid line
 72
65
 73
0
 40
0.0
  0
LTYPE
  5
31
100
AcDbSymbolTableRecord
100
AcDbLinetypeTableRecord
  2
DOT
 70
0
  3
Dot . . . . . . . . . . . . . . . . . . . . . .
 72
65
 73
2
 40
6.3499999999999996
 49
0.0
 74
0
 49
-6.3499999999999996
 74
0
  0
LTYPE
  5
32
100
AcDbSymbolTableRecord
100
AcDbLinetypeTableRecord
  2
DOT2
 70
0
  3
Dot (.5x) .....................................
 72
65
 73
2
 40
3.1749999999999998
 49
0.0
 74
0
 49
-3.1749999999999998
 74
0
  0
LTYPE
  5
33
100
AcDbSymbolTableRecord
100
AcDbLinetypeTableRecord
  2
DOTX2
 70
0
  3
Dot (2x) .  .  .  .  .  .  .  .  .  .  .  .  .
 72
65
 73
2
 40
12.6999999999999993
 49
0.0
 74
0
 49
-12.6999999999999993
 74
0
  0
LTYPE
  5
34
100
AcDbSymbolTableRecord
100
AcDbLinetypeTableRecord
  2
DASHED
 70
0
  3
Dashed __ __ __ __ __ __ __ __ __ __ __ __ __ _
 72
65
 73
2
 40
19.0500000000000007
 49
12.6999999999999993
 74
0
 49
-6.3499999999999996
 74
0
  0
LTYPE
  5
35
100
AcDbSymbolTableRecord
100
AcDbLinetypeTableRecord
  2
DASHED2
 70
0
  3
Dashed (.5x) _ _ _ _ _ _ _ _ _ _ _ _ _ _ _ _ _
 72
65
 73
2
 40
9.5250000000000004
 49
6.3499999999999996
 74
0
 49
-3.1749999999999998
 74
0
  0
LTYPE
  5
36
100
AcDbSymbolTableRecord
100
AcDbLinetypeTableRecord
  2
DASHEDX2
 70
0
  3
Dashed (2x) ____  ____  ____  ____  ____  ___
 72
65
 73
2
 40
38.1000000000000014
 49
25.3999999999999986
 74
0
 49
-12.6999999999999993
 74
0
  0
LTYPE
  5
37
100
AcDbSymbolTableRecord
100
AcDbLinetypeTableRecord
  2
DASHDOT
 70
0
  3
Dash dot __ . __ . __ . __ . __ . __ . __ . __
 72
65
 73
4
 40
25.3999999999999986
 49
12.6999999999999993
 74
0
 49
-6.3499999999999996
 74
0
 49
0.0
 74
0
 49
-6.3499999999999996
 74
0
  0
LTYPE
  5
38
100
AcDbSymbolTableRecord
100
AcDbLinetypeTableRecord
  2
DASHDOT2
 70
0
  3
Dash dot (.5x) _._._._._._._._._._._._._._._.
 72
65
 73
4
 40
12.6999999999999993
 49
6.3499999999999996
 74
0
 49
-3.1749999999999998
 74
0
 49
0.0
 74
0
 49
-3.1749999999999998
 74
0
  0
LTYPE
  5
39
100
AcDbSymbolTableRecord
100
AcDbLinetypeTableRecord
  2
DASHDOTX2
 70
0
  3
Dash dot (2x) ____  .  ____  .  ____  .  ___
 72
65
 73
4
 40
50.7999999999999972
 49
25.3999999999999986
 74
0
 49
-12.6999999999999993
 74
0
 49
0.0
 74
0
 49
-12.6999999999999993
 74
0
  0
LTYPE
  5
3A
100
AcDbSymbolTableRecord
100
AcDbLinetypeTableRecord
  2
DIVIDE
 70
0
  3
Divide ____ . . ____ . . ____ . . ____ . . ____
 72
65
 73
6
 40
31.75
 49
12.6999999999999993
 74
0
 49
-6.3499999999999996
 74
0
 49
0.0
 74
0
 49
-6.3499999999999996
 74
0
 49
0.0
 74
0
 49
-6.3499999999999996
 74
0
  0
LTYPE
  5
3B
100
AcDbSymbolTableRecord
100
AcDbLinetypeTableRecord
  2
DIVIDE2
 70
0
  3
Divide (.5x) __..__..__..__..__..__..__..__.._
 72
65
 73
6
 40
15.875
 49
6.3499999999999996
 74
0
 49
-3.1749999999999998
 74
0
 49
0.0
 74
0
 49
-3.1749999999999998
 74
0
 49
0.0
 74
0
 49
-3.1749999999999998
 74
0
  0
LTYPE
  5
3C
100
AcDbSymbolTableRecord
100
AcDbLinetypeTableRecord
  2
DIVIDEX2
 70
0
  3
Divide (2x) ________  .  .  ________  .  .  _
 72
65
 73
6
 40
63.5
 49
25.3999999999999986
 74
0
 49
-12.6999999999999993
 74
0
 49
0.0
 74
0
 49
-12.6999999999999993
 74
0
 49
0.0
 74
0
 49
-12.6999999999999993
 74
0
  0
LTYPE
  5
3D
100
AcDbSymbolTableRecord
100
AcDbLinetypeTableRecord
  2
CENTER
 70
0
  3
Center ____ _ ____ _ ____ _ ____ _ ____ _ ____
 72
65
 73
4
 40
50.7999999999999972
 49
31.75
 74
0
 49
-6.3499999999999996
 74
0
 49
6.3499999999999996
 74
0
 49
-6.3499999999999996
 74
0
  0
LTYPE
  5
3E
100
AcDbSymbolTableRecord
100
AcDbLinetypeTableRecord
  2
CENTER2
 70
0
  3
Center (.5x) ___ _ ___ _ ___ _ ___ _ ___ _ ___
 72
65
 73
4
 40
28.5749999999999993
 49
19.0500000000000007
 74
0
 49
-3.1749999999999998
 74
0
 49
3.1749999999999998
 74
0
 49
-3.1749999999999998
 74
0
  0
LTYPE
  5
3F
100
AcDbSymbolTableRecord
100
AcDbLinetypeTableRecord
  2
CENTERX2
 70
0
  3
Center (2x) ________  __  ________  __  _____
 72
65
 73
4
 40
101.5999999999999943
 49
63.5
 74
0
 49
-12.6999999999999993
 74
0
 49
12.6999999999999993
 74
0
 49
-12.6999999999999993
 74
0
  0
LTYPE
  5
40
100
AcDbSymbolTableRecord
100
AcDbLinetypeTableRecord
  2
BORDER
 70
0
  3
Border __ __ . __ __ . __ __ . __ __ . __ __ .
 72
65
 73
6
 40
44.4500000000000028
 49
12.6999999999999993
 74
0
 49
-6.3499999999999996
 74
0
 49
12.6999999999999993
 74
0
 49
-6.3499999999999996
 74
0
 49
0.0
 74
0
 49
-6.3499999999999996
 74
0
  0
LTYPE
  5
41
100
AcDbSymbolTableRecord
100
AcDbLinetypeTableRecord
  2
BORDER2
 70
0
  3
Border (.5x) __.__.__.__.__.__.__.__.__.__.__.
 72
65
 73
6
 40
22.2250000000000014
 49
6.3499999999999996
 74
0
 49
-3.1749999999999998
 74
0
 49
6.3499999999999996
 74
0
 49
-3.1749999999999998
 74
0
 49
0.0
 74
0
 49
-3.1749999999999998
 74
0
  0
LTYPE
  5
42
100
AcDbSymbolTableRecord
100
AcDbLinetypeTableRecord
  2
BORDERX2
 70
0
  3
Border (2x) ____  ____  .  ____  ____  .  ___
 72
65
 73
6
 40
88.9000000000000057
 49
25.3999999999999986
 74
0
 49
-12.6999999999999993
 74
0
 49
25.3999999999999986
 74
0
 49
-12.6999999999999993
 74
0
 49
0.0
 74
0
 49
-12.6999999999999993
 74
0
  0
ENDTAB
  0
TABLE
  2
LAYER
  5
2
100
AcDbSymbolTable
 70
2
  0
LAYER
  5
10
100
AcDbSymbolTableRecord
100
AcDbLayerTableRecord
  2
0
 70
0
 62
7
  6
CONTINUOUS
370
-3
390
F
  0
LAYER
  5
43
100
AcDbSymbolTableRecord
100
AcDbLayerTableRecord
  2
dimension
 70
0
 62
7
  6
CONTINUOUS
370
-3
390
F
  0
ENDTAB
  0
TABLE
  2
STYLE
  5
3
100
AcDbSymbolTable
 70
1
  0
STYLE
  5
11
100
AcDbSymbolTableRecord
100
AcDbTextStyleTableRecord
  2
Standard
 70
0
 40
0.0
 41
0.75
 50
0.0
 71
0
 42
2.5
  3
txt
  4

  0
ENDTAB
  0
TABLE
  2
VIEW
  5
6
100
AcDbSymbolTable
 70
0
  0
ENDTAB
  0
TABLE
  2
UCS
  5
7
100
AcDbSymbolTable
 70
0
  0
ENDTAB
  0
TABLE
  2
APPID
  5
9
100
AcDbSymbolTable
 70
1
  0
APPID
  5
12
100
AcDbSymbolTableRecord
100
AcDbRegAppTableRecord
  2
ACAD
 70
0
  0
ENDTAB
  0
TABLE
  2
DIMSTYLE
  5
A
100
AcDbSymbolTable
 70
1
100
AcDbDimStyleTable
 71
0
  0
DIMSTYLE
105
27
100
AcDbSymbolTableRecord
100
AcDbDimStyleTableRecord
  2
Standard
 41
0.18
 42
0.0625
 43
3.75
 44
0.18
 70
0
 73
0
 74
0
 77
1
 78
8
140
0.18
141
2.5
143
0.03937007874016
147
0.09
171
3
172
1
271
2
272
2
274
3
278
44
283
0
284
8
340
11
  0
ENDTAB
  0
TABLE
  2
BLOCK_RECORD
  5
1
100
AcDbSymbolTable
 70
1
  0
BLOCK_RECORD
  5
1F
100
AcDbSymbolTableRecord
100
AcDbBlockTableRecord
  2
*Model_Space
340
22
  0
BLOCK_RECORD
  5
1B
100
AcDbSymbolTableRecord
100
AcDbBlockTableRecord
  2
*Paper_Space
340
1E
  0
BLOCK_RECORD
  5
23
100
AcDbSymbolTableRecord
100
AcDbBlockTableRecord
  2
*Paper_Space0
340
26
  0
BLOCK_RECORD
  5
44
100
AcDbSymbolTableRecord
100
AcDbBlockTableRecord
  2
frame_upper_piece
340
0
  0
BLOCK_RECORD
  5
45
100
AcDbSymbolTableRecord
100
AcDbBlockTableRecord
  2
frame_main
340
0
  0
BLOCK_RECORD
  5
46
100
AcDbSymbolTableRecord
100
AcDbBlockTableRecord
  2
frame_bottom_piece
340
0
  0
BLOCK_RECORD
  5
47
100
AcDbSymbolTableRecord
100
AcDbBlockTableRecord
  2
y_frame_pieces
340
0
  0
BLOCK_RECORD
  5
48
100
AcDbSymbolTableRecord
100
AcDbBlockTableRecord
  2
y_bushing_mount
340
0
  0
BLOCK_RECORD
  5
49
100
AcDbSymbolTableRecord
100
AcDbBlockTableRecord
  2
y_side_support
340
0
  0
BLOCK_RECORD
  5
4A
100
AcDbSymbolTableRecord
100
AcDbBlockTableRecord
  2
y_stage
340
0
  0
BLOCK_RECORD
  5
4B
100
AcDbSymbolTableRecord
100
AcDbBlockTableRecord
  2
x_mount1
340
0
  0
BLOCK_RECORD
  5
4C
100
AcDbSymbolTableRecord
100
AcDbBlockTableRecord
  2
x_mount2
340
0
  0
BLOCK_RECORD
  5
4D
100
AcDbSymbolTableRecord
100
AcDbBlockTableRecord
  2
belt_clamp
340
0
  0
BLOCK_RECORD
  5
4E
100
AcDbSymbolTableRecord
100
AcDbBlockTableRecord
  2
y_motor_mount
340
0
  0
BLOCK_RECORD
  5
4F
100
AcDbSymbolTableRecord
100
AcDbBlockTableRecord
  2
y_idler
340
0
  0
BLOCK_RECORD
  5
50
100
AcDbSymbolTableRecord
100
AcDbBlockTableRecord
  2
x_idler
340
0
  0
BLOCK_RECORD
  5
51
100
AcDbSymbolTableRecord
100
AcDbBlockTableRecord
  2
x_bar_holder
340
0
  0
BLOCK_RECORD
  5
52
100
AcDbSymbolTableRecord
100
AcDbBlockTableRecord
  2
electronics_mounting_plate
340
0
  0
BLOCK_RECORD
  5
53
100
AcDbSymbolTableRecord
100
AcDbBlockTableRecord
  2
x_motor_mount
340
0
  0
ENDTAB
  0
ENDSEC
  0
SECTION
  2
BLOCKS
  0
BLOCK
  5
20
100
AcDbEntity
  8
0
100
AcDbBlockBegin
  2
*Model_Space
 70
0
 10
0.0
 20
0.0
 30
0.0
  3
*Model_Space
  1

  0
ENDBLK
  5
21
100
AcDbEntity
  8
0
100
AcDbBlockEnd
  0
BLOCK
  5
1C
100
AcDbEntity
 67
1
  8
0
100
AcDbBlockBegin
  2
*Paper_Space
 70
0
 10
0.0
 20
0.0
 30
0.0
  3
*Paper_Space
  1

  0
ENDBLK
  5
1D
100
AcDbEntity
 67
1
  8
0
100
AcDbBlockEnd
  0
BLOCK
  5
24
100
AcDbEntity
  8
0
100
AcDbBlockBegin
  2
*Paper_Space0
 70
0
 10
0.0
 20
0.0
 30
0.0
  3
*Paper_Space0
  1

  0
ENDBLK
  5
25
100
AcDbEntity
  8
0
100
AcDbBlockEnd
  0
BLOCK
  5
54
100
AcDbEntity
  8
0
100
AcDbBlockBegin
  2
frame_upper_piece
 70
0
 10
0.0
 20
0.0
 30
0.0
  3
frame_upper_piece
  1

  0
CIRCLE
  5
55
100
AcDbEntity
100
AcDbCircle
  8
0
 62
256
370
-1
  6
ByLayer
 10
57.8999993137983822
 20
24.9999968496734901
 30
0.0
 40
4.0499999999999989
  0
CIRCLE
  5
56
100
AcDbEntity
100
AcDbCircle
  8
0
 62
256
370
-1
  6
ByLayer
 10
453.8999993137982756
 20
24.99999684967338
 30
0.0
 40
4.0499999999999989
  0
CIRCLE
  5
57
100
AcDbEntity
100
AcDbCircle
  8
0
 62
256
370
-1
  6
ByLayer
 10
425.899999313798105
 20
24.99999684967338
 30
0.0
 40
21.0
  0
LINE
  5
58
100
AcDbEntity
100
AcDbLine
  8
0
 62
256
370
-1
  6
ByLayer
 10
4.8999993137983893
 20
-0.00000315032662
 30
0.0
 11
469.8999993137982756
 21
-0.00000315032662
 31
0.0
  0
LINE
  5
59
100
AcDbEntity
100
AcDbLine
  8
0
 62
256
370
-1
  6
ByLayer
 10
4.8999993137983893
 20
49.99999684967338
 30
0.0
 11
469.8999993137982756
 21
49.99999684967338
 31
0.0
  0
CIRCLE
  5
5A
100
AcDbEntity
100
AcDbCircle
  8
0
 62
256
370
-1
  6
ByLayer
 10
443.5776688434618791
 20
7.3223273200096619
 30
0.0
 40
2.0
  0
CIRCLE
  5
5B
100
AcDbEntity
100
AcDbCircle
  8
0
 62
256
370
-1
  6
ByLayer
 10
408.2223297841343879
 20
42.6776663793370972
 30
0.0
 40
2.0
  0
CIRCLE
  5
5C
100
AcDbEntity
100
AcDbCircle
  8
0
 62
256
370
-1
  6
ByLayer
 10
85.8999993137983893
 20
24.9999968496734901
 30
0.0
 40
21.0
  0
CIRCLE
  5
5D
100
AcDbEntity
100
AcDbCircle
  8
0
 62
256
370
-1
  6
ByLayer
 10
103.5776688434621065
 20
7.3223273200097756
 30
0.0
 40
2.0
  0
CIRCLE
  5
5E
100
AcDbEntity
100
AcDbCircle
  8
0
 62
256
370
-1
  6
ByLayer
 10
68.2223297841346721
 20
42.6776663793371966
 30
0.0
 40
2.0
  0
LINE
  5
5F
100
AcDbEntity
100
AcDbLine
  8
0
 62
256
370
-1
  6
ByLayer
 10
121.8999993137984035
 20
8.9999968496734937
 30
0.0
 11
121.8999993137984035
 21
40.99999684967338
 31
0.0
  0
LINE
  5
60
100
AcDbEntity
100
AcDbLine
  8
0
 62
256
370
-1
  6
ByLayer
 10
389.8999993137982187
 20
8.9999968496733782
 30
0.0
 11
389.8999993137982187
 21
40.99999684967338
 31
0.0
  0
LINE
  5
61
100
AcDbEntity
100
AcDbLine
  8
0
 62
256
370
-1
  6
ByLayer
 10
389.8999993137982187
 20
8.9999968496733782
 30
0.0
 11
121.8999993137984035
 21
8.9999968496734937
 31
0.0
  0
LINE
  5
62
100
AcDbEntity
100
AcDbLine
  8
0
 62
256
370
-1
  6
ByLayer
 10
389.8999993137982187
 20
40.99999684967338
 30
0.0
 11
121.8999993137984035
 21
40.99999684967338
 31
0.0
  0
LINE
  5
63
100
AcDbEntity
100
AcDbLine
  8
0
 62
256
370
-1
  6
CONTINUOUS
 10
469.8999993137982756
 20
43.49999684967338
 30
0.0
 11
465.8999993137982756
 21
43.49999684967338
 31
0.0
  0
LINE
  5
64
100
AcDbEntity
100
AcDbLine
  8
0
 62
256
370
-1
  6
CONTINUOUS
 10
469.8999993137982756
 20
39.49999684967338
 30
0.0
 11
465.8999993137982756
 21
39.49999684967338
 31
0.0
  0
LINE
  5
65
100
AcDbEntity
100
AcDbLine
  8
0
 62
256
370
-1
  6
CONTINUOUS
 10
465.8999993137982756
 20
43.49999684967338
 30
0.0
 11
465.8999993137982756
 21
44.9999968496733729
 31
0.0
  0
LINE
  5
66
100
AcDbEntity
100
AcDbLine
  8
0
 62
256
370
-1
  6
CONTINUOUS
 10
465.8999993137982756
 20
44.9999968496733729
 30
0.0
 11
462.8999993137982756
 21
44.9999968496733729
 31
0.0
  0
LINE
  5
67
100
AcDbEntity
100
AcDbLine
  8
0
 62
256
370
-1
  6
CONTINUOUS
 10
462.8999993137982756
 20
44.9999968496733729
 30
0.0
 11
462.8999993137982756
 21
37.99999684967338
 31
0.0
  0
LINE
  5
68
100
AcDbEntity
100
AcDbLine
  8
0
 62
256
370
-1
  6
CONTINUOUS
 10
465.8999993137982756
 20
37.99999684967338
 30
0.0
 11
465.8999993137982756
 21
39.49999684967338
 31
0.0
  0
LINE
  5
69
100
AcDbEntity
100
AcDbLine
  8
0
 62
256
370
-1
  6
CONTINUOUS
 10
465.8999993137982756
 20
37.99999684967338
 30
0.0
 11
462.8999993137982756
 21
37.99999684967338
 31
0.0
  0
LINE
  5
6A
100
AcDbEntity
100
AcDbLine
  8
0
 62
256
370
-1
  6
ByLayer
 10
469.8999993137982756
 20
49.99999684967338
 30
0.0
 11
469.8999993137982756
 21
43.49999684967338
 31
0.0
  0
LINE
  5
6B
100
AcDbEntity
100
AcDbLine
  8
0
 62
256
370
-1
  6
ByLayer
 10
474.7999993137984802
 20
34.49999684967338
 30
0.0
 11
474.7999993137984802
 21
15.49999684967338
 31
0.0
  0
LINE
  5
6C
100
AcDbEntity
100
AcDbLine
  8
0
 62
256
370
-1
  6
CONTINUOUS
 10
469.8999993137982756
 20
10.49999684967338
 30
0.0
 11
465.8999993137982756
 21
10.49999684967338
 31
0.0
  0
LINE
  5
6D
100
AcDbEntity
100
AcDbLine
  8
0
 62
256
370
-1
  6
CONTINUOUS
 10
469.8999993137982756
 20
6.4999968496733791
 30
0.0
 11
465.8999993137982756
 21
6.4999968496733791
 31
0.0
  0
LINE
  5
6E
100
AcDbEntity
100
AcDbLine
  8
0
 62
256
370
-1
  6
CONTINUOUS
 10
465.8999993137982756
 20
10.49999684967338
 30
0.0
 11
465.8999993137982756
 21
11.99999684967338
 31
0.0
  0
LINE
  5
6F
100
AcDbEntity
100
AcDbLine
  8
0
 62
256
370
-1
  6
CONTINUOUS
 10
465.8999993137982756
 20
11.99999684967338
 30
0.0
 11
462.8999993137982756
 21
11.99999684967338
 31
0.0
  0
LINE
  5
70
100
AcDbEntity
100
AcDbLine
  8
0
 62
256
370
-1
  6
CONTINUOUS
 10
462.8999993137982756
 20
11.99999684967338
 30
0.0
 11
462.8999993137982756
 21
4.9999968496733791
 31
0.0
  0
LINE
  5
71
100
AcDbEntity
100
AcDbLine
  8
0
 62
256
370
-1
  6
CONTINUOUS
 10
465.8999993137982756
 20
4.9999968496733791
 30
0.0
 11
465.8999993137982756
 21
6.4999968496733791
 31
0.0
  0
LINE
  5
72
100
AcDbEntity
100
AcDbLine
  8
0
 62
256
370
-1
  6
CONTINUOUS
 10
465.8999993137982756
 20
4.9999968496733791
 30
0.0
 11
462.8999993137982756
 21
4.9999968496733791
 31
0.0
  0
LINE
  5
73
100
AcDbEntity
100
AcDbLine
  8
0
 62
256
370
-1
  6
ByLayer
 10
469.8999993137982756
 20
6.4999968496733791
 30
0.0
 11
469.8999993137982756
 21
-0.00000315032662
 31
0.0
  0
LINE
  5
74
100
AcDbEntity
100
AcDbLine
  8
0
 62
256
370
-1
  6
ByLayer
 10
469.8999993137982756
 20
39.49999684967338
 30
0.0
 11
469.8999993137982756
 21
34.49999684967338
 31
0.0
  0
LINE
  5
75
100
AcDbEntity
100
AcDbLine
  8
0
 62
256
370
-1
  6
ByLayer
 10
469.8999993137982756
 20
15.49999684967338
 30
0.0
 11
469.8999993137982756
 21
10.49999684967338
 31
0.0
  0
LINE
  5
76
100
AcDbEntity
100
AcDbLine
  8
0
 62
256
370
-1
  6
ByLayer
 10
474.7999993137984802
 20
15.49999684967338
 30
0.0
 11
469.8999993137982756
 21
15.49999684967338
 31
0.0
  0
LINE
  5
77
100
AcDbEntity
100
AcDbLine
  8
0
 62
256
370
-1
  6
ByLayer
 10
474.7999993137984802
 20
34.49999684967338
 30
0.0
 11
469.8999993137982756
 21
34.49999684967338
 31
0.0
  0
LINE
  5
78
100
AcDbEntity
100
AcDbLine
  8
0
 62
256
370
-1
  6
CONTINUOUS
 10
4.8999993137983893
 20
6.4999968496733791
 30
0.0
 11
8.8999993137983893
 21
6.4999968496733791
 31
0.0
  0
LINE
  5
79
100
AcDbEntity
100
AcDbLine
  8
0
 62
256
370
-1
  6
CONTINUOUS
 10
4.8999993137983893
 20
10.49999684967338
 30
0.0
 11
8.8999993137983893
 21
10.49999684967338
 31
0.0
  0
LINE
  5
7A
100
AcDbEntity
100
AcDbLine
  8
0
 62
256
370
-1
  6
CONTINUOUS
 10
8.8999993137983893
 20
6.4999968496733791
 30
0.0
 11
8.8999993137983893
 21
4.9999968496733791
 31
0.0
  0
LINE
  5
7B
100
AcDbEntity
100
AcDbLine
  8
0
 62
256
370
-1
  6
CONTINUOUS
 10
8.8999993137983893
 20
4.9999968496733791
 30
0.0
 11
11.8999993137983893
 21
4.9999968496733791
 31
0.0
  0
LINE
  5
7C
100
AcDbEntity
100
AcDbLine
  8
0
 62
256
370
-1
  6
CONTINUOUS
 10
11.8999993137983893
 20
4.9999968496733791
 30
0.0
 11
11.8999993137983893
 21
11.99999684967338
 31
0.0
  0
LINE
  5
7D
100
AcDbEntity
100
AcDbLine
  8
0
 62
256
370
-1
  6
CONTINUOUS
 10
8.8999993137983893
 20
11.99999684967338
 30
0.0
 11
8.8999993137983893
 21
10.49999684967338
 31
0.0
  0
LINE
  5
7E
100
AcDbEntity
100
AcDbLine
  8
0
 62
256
370
-1
  6
CONTINUOUS
 10
8.8999993137983893
 20
11.99999684967338
 30
0.0
 11
11.8999993137983893
 21
11.99999684967338
 31
0.0
  0
LINE
  5
7F
100
AcDbEntity
100
AcDbLine
  8
0
 62
256
370
-1
  6
ByLayer
 10
4.8999993137983893
 20
-0.00000315032662
 30
0.0
 11
4.8999993137983893
 21
6.4999968496733791
 31
0.0
  0
LINE
  5
80
100
AcDbEntity
100
AcDbLine
  8
0
 62
256
370
-1
  6
ByLayer
 10
-0.0000006862017017
 20
15.49999684967338
 30
0.0
 11
-0.0000006862017017
 21
34.49999684967338
 31
0.0
  0
LINE
  5
81
100
AcDbEntity
100
AcDbLine
  8
0
 62
256
370
-1
  6
CONTINUOUS
 10
4.8999993137983893
 20
39.49999684967338
 30
0.0
 11
8.8999993137983893
 21
39.49999684967338
 31
0.0
  0
LINE
  5
82
100
AcDbEntity
100
AcDbLine
  8
0
 62
256
370
-1
  6
CONTINUOUS
 10
4.8999993137983893
 20
43.49999684967338
 30
0.0
 11
8.8999993137983893
 21
43.49999684967338
 31
0.0
  0
LINE
  5
83
100
AcDbEntity
100
AcDbLine
  8
0
 62
256
370
-1
  6
CONTINUOUS
 10
8.8999993137983893
 20
39.49999684967338
 30
0.0
 11
8.8999993137983893
 21
37.99999684967338
 31
0.0
  0
LINE
  5
84
100
AcDbEntity
100
AcDbLine
  8
0
 62
256
370
-1
  6
CONTINUOUS
 10
8.8999993137983893
 20
37.99999684967338
 30
0.0
 11
11.8999993137983893
 21
37.99999684967338
 31
0.0
  0
LINE
  5
85
100
AcDbEntity
100
AcDbLine
  8
0
 62
256
370
-1
  6
CONTINUOUS
 10
11.8999993137983893
 20
37.99999684967338
 30
0.0
 11
11.8999993137983893
 21
44.9999968496733729
 31
0.0
  0
LINE
  5
86
100
AcDbEntity
100
AcDbLine
  8
0
 62
256
370
-1
  6
CONTINUOUS
 10
8.8999993137983893
 20
44.9999968496733729
 30
0.0
 11
8.8999993137983893
 21
43.49999684967338
 31
0.0
  0
LINE
  5
87
100
AcDbEntity
100
AcDbLine
  8
0
 62
256
370
-1
  6
CONTINUOUS
 10
8.8999993137983893
 20
44.9999968496733729
 30
0.0
 11
11.8999993137983893
 21
44.9999968496733729
 31
0.0
  0
LINE
  5
88
100
AcDbEntity
100
AcDbLine
  8
0
 62
256
370
-1
  6
ByLayer
 10
4.8999993137983893
 20
43.49999684967338
 30
0.0
 11
4.8999993137983893
 21
49.99999684967338
 31
0.0
  0
LINE
  5
89
100
AcDbEntity
100
AcDbLine
  8
0
 62
256
370
-1
  6
ByLayer
 10
4.8999993137983893
 20
10.49999684967338
 30
0.0
 11
4.8999993137983893
 21
15.49999684967338
 31
0.0
  0
LINE
  5
8A
100
AcDbEntity
100
AcDbLine
  8
0
 62
256
370
-1
  6
ByLayer
 10
4.8999993137983893
 20
34.49999684967338
 30
0.0
 11
4.8999993137983893
 21
39.49999684967338
 31
0.0
  0
LINE
  5
8B
100
AcDbEntity
100
AcDbLine
  8
0
 62
256
370
-1
  6
ByLayer
 10
-0.0000006862017017
 20
34.49999684967338
 30
0.0
 11
4.8999993137983893
 21
34.49999684967338
 31
0.0
  0
LINE
  5
8C
100
AcDbEntity
100
AcDbLine
  8
0
 62
256
370
-1
  6
ByLayer
 10
-0.0000006862017017
 20
15.49999684967338
 30
0.0
 11
4.8999993137983893
 21
15.49999684967338
 31
0.0
  0
ENDBLK
  5
8D
100
AcDbEntity
  8
0
100
AcDbBlockEnd
  0
BLOCK
  5
8E
100
AcDbEntity
  8
0
100
AcDbBlockBegin
  2
frame_main
 70
0
 10
0.0
 20
0.0
 30
0.0
  3
frame_main
  1

  0
LINE
  5
8F
100
AcDbEntity
100
AcDbLine
  8
0
 62
256
370
-1
  6
ByLayer
 10
43.0315058585051702
 20
33.9606117177336273
 30
0.0
 11
458.031505858505227
 21
33.9606117177336273
 31
0.0
  0
CIRCLE
  5
90
100
AcDbEntity
100
AcDbCircle
  8
0
 62
256
370
-1
  6
ByLayer
 10
450.5315058585051133
 20
71.4606117177336273
 30
0.0
 40
2.2000000000000002
  0
CIRCLE
  5
91
100
AcDbEntity
100
AcDbCircle
  8
0
 62
256
370
-1
  6
ByLayer
 10
450.5315058585051133
 20
52.4606117177336202
 30
0.0
 40
2.2000000000000002
  0
LINE
  5
92
100
AcDbEntity
100
AcDbLine
  8
0
 62
256
370
-1
  6
ByLayer
 10
453.1315058585050224
 20
59.3606117177337183
 30
0.0
 11
453.1315058585050224
 21
64.5606117177335364
 31
0.0
  0
LINE
  5
93
100
AcDbEntity
100
AcDbLine
  8
0
 62
256
370
-1
  6
ByLayer
 10
453.1315058585050224
 20
59.3606117177337183
 30
0.0
 11
448.0315058585051133
 21
59.3606117177337183
 31
0.0
  0
LINE
  5
94
100
AcDbEntity
100
AcDbLine
  8
0
 62
256
370
-1
  6
ByLayer
 10
453.1315058585050224
 20
64.5606117177335364
 30
0.0
 11
448.0315058585051133
 21
64.5606117177335364
 31
0.0
  0
LINE
  5
95
100
AcDbEntity
100
AcDbLine
  8
0
 62
256
370
-1
  6
ByLayer
 10
448.0315058585051133
 20
64.5606117177335364
 30
0.0
 11
448.0315058585051133
 21
59.3606117177337183
 31
0.0
  0
CIRCLE
  5
96
100
AcDbEntity
100
AcDbCircle
  8
0
 62
256
370
-1
  6
ByLayer
 10
50.5315058585051702
 20
71.4606117177336273
 30
0.0
 40
2.2000000000000002
  0
CIRCLE
  5
97
100
AcDbEntity
100
AcDbCircle
  8
0
 62
256
370
-1
  6
ByLayer
 10
50.5315058585051702
 20
52.4606117177336202
 30
0.0
 40
2.2000000000000002
  0
LINE
  5
98
100
AcDbEntity
100
AcDbLine
  8
0
 62
256
370
-1
  6
ByLayer
 10
47.9315058585052611
 20
59.3606117177337183
 30
0.0
 11
47.9315058585052611
 21
64.5606117177335364
 31
0.0
  0
LINE
  5
99
100
AcDbEntity
100
AcDbLine
  8
0
 62
256
370
-1
  6
ByLayer
 10
47.9315058585052611
 20
59.3606117177337183
 30
0.0
 11
53.0315058585051702
 21
59.3606117177337183
 31
0.0
  0
LINE
  5
9A
100
AcDbEntity
100
AcDbLine
  8
0
 62
256
370
-1
  6
ByLayer
 10
47.9315058585052611
 20
64.5606117177335364
 30
0.0
 11
53.0315058585051702
 21
64.5606117177335364
 31
0.0
  0
LINE
  5
9B
100
AcDbEntity
100
AcDbLine
  8
0
 62
256
370
-1
  6
ByLayer
 10
53.0315058585051702
 20
64.5606117177335364
 30
0.0
 11
53.0315058585051702
 21
59.3606117177337183
 31
0.0
  0
CIRCLE
  5
9C
100
AcDbEntity
100
AcDbCircle
  8
0
 62
256
370
-1
  6
ByLayer
 10
241.0315058585051986
 20
41.4606117177336273
 30
0.0
 40
2.2000000000000002
  0
CIRCLE
  5
9D
100
AcDbEntity
100
AcDbCircle
  8
0
 62
256
370
-1
  6
ByLayer
 10
260.031505858505227
 20
41.4606117177336273
 30
0.0
 40
2.2000000000000002
  0
LINE
  5
9E
100
AcDbEntity
100
AcDbLine
  8
0
 62
256
370
-1
  6
ByLayer
 10
254.1315058585051077
 20
44.0606117177335292
 30
0.0
 11
246.9315058585052896
 21
44.0606117177335292
 31
0.0
  0
LINE
  5
9F
100
AcDbEntity
100
AcDbLine
  8
0
 62
256
370
-1
  6
ByLayer
 10
254.1315058585051077
 20
44.0606117177335292
 30
0.0
 11
254.1315058585051077
 21
38.8606117177337183
 31
0.0
  0
LINE
  5
A0
100
AcDbEntity
100
AcDbLine
  8
0
 62
256
370
-1
  6
ByLayer
 10
246.9315058585052896
 20
44.0606117177335292
 30
0.0
 11
246.9315058585052896
 21
38.8606117177337183
 31
0.0
  0
LINE
  5
A1
100
AcDbEntity
100
AcDbLine
  8
0
 62
256
370
-1
  6
ByLayer
 10
246.9315058585052896
 20
38.8606117177337183
 30
0.0
 11
254.1315058585051077
 21
38.8606117177337183
 31
0.0
  0
LINE
  5
A2
100
AcDbEntity
100
AcDbLine
  8
0
 62
256
370
-1
  6
ByLayer
 10
458.031505858505227
 20
33.9606117177336273
 30
0.0
 11
458.031505858505227
 21
75.9606117177336273
 31
0.0
  0
LINE
  5
A3
100
AcDbEntity
100
AcDbLine
  8
0
 62
256
370
-1
  6
ByLayer
 10
43.0315058585051702
 20
33.9606117177336273
 30
0.0
 11
43.0315058585051702
 21
75.9606117177336273
 31
0.0
  0
CIRCLE
  5
A4
100
AcDbEntity
100
AcDbCircle
  8
0
 62
256
370
-1
  6
ByLayer
 10
234.0315058585051986
 20
336.4606117177336273
 30
0.0
 40
2.2000000000000002
  0
CIRCLE
  5
A5
100
AcDbEntity
100
AcDbCircle
  8
0
 62
256
370
-1
  6
ByLayer
 10
267.031505858505227
 20
336.4606117177336273
 30
0.0
 40
2.2000000000000002
  0
LINE
  5
A6
100
AcDbEntity
100
AcDbLine
  8
0
 62
256
370
-1
  6
ByLayer
 10
260.1315058585050792
 20
333.8606117177337183
 30
0.0
 11
240.9315058585052896
 21
333.8606117177337183
 31
0.0
  0
LINE
  5
A7
100
AcDbEntity
100
AcDbLine
  8
0
 62
256
370
-1
  6
ByLayer
 10
240.9315058585052896
 20
333.8606117177337183
 30
0.0
 11
240.9315058585052896
 21
339.0606117177334795
 31
0.0
  0
LINE
  5
A8
100
AcDbEntity
100
AcDbLine
  8
0
 62
256
370
-1
  6
ByLayer
 10
260.1315058585050792
 20
333.8606117177337183
 30
0.0
 11
260.1315058585050792
 21
339.0606117177338206
 31
0.0
  0
LINE
  5
A9
100
AcDbEntity
100
AcDbLine
  8
0
 62
256
370
-1
  6
ByLayer
 10
260.1315058585050792
 20
339.0606117177338206
 30
0.0
 11
240.9315058585052896
 21
339.0606117177334795
 31
0.0
  0
LINE
  5
AA
100
AcDbEntity
100
AcDbLine
  8
0
 62
256
370
-1
  6
ByLayer
 10
229.8713908445255072
 20
353.9606117177336273
 30
0.0
 11
271.1916208724848047
 21
353.9606117177336273
 31
0.0
  0
LINE
  5
AB
100
AcDbEntity
100
AcDbLine
  8
0
 62
256
370
-1
  6
ByLayer
 10
458.031505858505227
 20
75.9606117177336273
 30
0.0
 11
271.1916208724848047
 21
353.9606117177336273
 31
0.0
  0
LINE
  5
AC
100
AcDbEntity
100
AcDbLine
  8
0
 62
256
370
-1
  6
ByLayer
 10
229.8713908445255072
 20
353.9606117177336273
 30
0.0
 11
43.0315058585051702
 21
75.9606117177336273
 31
0.0
  0
LINE
  5
AD
100
AcDbEntity
100
AcDbLine
  8
0
 62
256
370
-1
  6
ByLayer
 10
233.231820430605012
 20
298.254212356795108
 30
0.0
 11
267.8311912864053284
 21
298.254212356795108
 31
0.0
  0
LINE
  5
AE
100
AcDbEntity
100
AcDbLine
  8
0
 62
256
370
-1
  6
ByLayer
 10
403.1177855016001104
 20
75.9606117177336273
 30
0.0
 11
97.94522621541023
 21
75.9606117177336273
 31
0.0
  0
LINE
  5
AF
100
AcDbEntity
100
AcDbLine
  8
0
 62
256
370
-1
  6
ByLayer
 10
403.1177855016001104
 20
75.9606117177336273
 30
0.0
 11
403.1177855016001104
 21
96.9606117177336273
 31
0.0
  0
LINE
  5
B0
100
AcDbEntity
100
AcDbLine
  8
0
 62
256
370
-1
  6
ByLayer
 10
97.94522621541023
 20
75.9606117177336273
 30
0.0
 11
97.94522621541023
 21
96.9606117177336273
 31
0.0
  0
LINE
  5
B1
100
AcDbEntity
100
AcDbLine
  8
0
 62
256
370
-1
  6
ByLayer
 10
403.1177855016001104
 20
96.9606117177336273
 30
0.0
 11
267.8311912864053284
 21
298.254212356795108
 31
0.0
  0
LINE
  5
B2
100
AcDbEntity
100
AcDbLine
  8
0
 62
256
370
-1
  6
ByLayer
 10
97.94522621541023
 20
96.9606117177336273
 30
0.0
 11
233.231820430605012
 21
298.254212356795108
 31
0.0
  0
CIRCLE
  5
B3
100
AcDbEntity
100
AcDbCircle
  8
0
 62
256
370
-1
  6
ByLayer
 10
250.5315058585051986
 20
308.254212356795108
 30
0.0
 40
4.2000000000000002
  0
CIRCLE
  5
B4
100
AcDbEntity
100
AcDbCircle
  8
0
 62
256
370
-1
  6
ByLayer
 10
280.531505858505227
 20
308.254212356795108
 30
0.0
 40
4.2000000000000002
  0
CIRCLE
  5
B5
100
AcDbEntity
100
AcDbCircle
  8
0
 62
256
370
-1
  6
ByLayer
 10
220.5315058585051986
 20
308.254212356795108
 30
0.0
 40
4.2000000000000002
  0
ENDBLK
  5
B6
100
AcDbEntity
  8
0
100
AcDbBlockEnd
  0
BLOCK
  5
B7
100
AcDbEntity
  8
0
100
AcDbBlockBegin
  2
frame_bottom_piece
 70
0
 10
0.0
 20
0.0
 30
0.0
  3
frame_bottom_piece
  1

  0
LINE
  5
B8
100
AcDbEntity
100
AcDbLine
  8
0
 62
256
370
-1
  6
ByLayer
 10
35.9999979997710398
 20
469.9000010397778055
 30
0.0
 11
35.9999979997710398
 21
272.4000010397776919
 31
0.0
  0
LINE
  5
B9
100
AcDbEntity
100
AcDbLine
  8
0
 62
256
370
-1
  6
ByLayer
 10
35.9999979997710398
 20
272.4000010397776919
 30
0.0
 11
35.9999979997710398
 21
4.900001039777635
 31
0.0
  0
LINE
  5
BA
100
AcDbEntity
100
AcDbLine
  8
0
 62
256
370
-1
  6
ByLayer
 10
-0.0000020002289602
 20
469.9000010397778055
 30
0.0
 11
-0.0000020002289602
 21
4.900001039777635
 31
0.0
  0
LINE
  5
BB
100
AcDbEntity
100
AcDbLine
  8
0
 62
256
370
-1
  6
CONTINUOUS
 10
6.4999979997710389
 20
4.900001039777635
 30
0.0
 11
6.4999979997710389
 21
8.900001039777635
 31
0.0
  0
LINE
  5
BC
100
AcDbEntity
100
AcDbLine
  8
0
 62
256
370
-1
  6
CONTINUOUS
 10
10.4999979997710398
 20
4.900001039777635
 30
0.0
 11
10.4999979997710398
 21
8.900001039777635
 31
0.0
  0
LINE
  5
BD
100
AcDbEntity
100
AcDbLine
  8
0
 62
256
370
-1
  6
CONTINUOUS
 10
6.4999979997710389
 20
8.900001039777635
 30
0.0
 11
4.9999979997710389
 21
8.900001039777635
 31
0.0
  0
LINE
  5
BE
100
AcDbEntity
100
AcDbLine
  8
0
 62
256
370
-1
  6
CONTINUOUS
 10
4.9999979997710389
 20
8.900001039777635
 30
0.0
 11
4.9999979997710389
 21
11.9000010397776297
 31
0.0
  0
LINE
  5
BF
100
AcDbEntity
100
AcDbLine
  8
0
 62
256
370
-1
  6
CONTINUOUS
 10
4.9999979997710389
 20
11.9000010397776297
 30
0.0
 11
11.9999979997710398
 21
11.9000010397776297
 31
0.0
  0
LINE
  5
C0
100
AcDbEntity
100
AcDbLine
  8
0
 62
256
370
-1
  6
CONTINUOUS
 10
11.9999979997710398
 20
8.900001039777635
 30
0.0
 11
10.4999979997710398
 21
8.900001039777635
 31
0.0
  0
LINE
  5
C1
100
AcDbEntity
100
AcDbLine
  8
0
 62
256
370
-1
  6
CONTINUOUS
 10
11.9999979997710398
 20
8.900001039777635
 30
0.0
 11
11.9999979997710398
 21
11.9000010397776297
 31
0.0
  0
LINE
  5
C2
100
AcDbEntity
100
AcDbLine
  8
0
 62
256
370
-1
  6
ByLayer
 10
-0.0000020002289602
 20
4.900001039777635
 30
0.0
 11
6.4999979997710389
 21
4.900001039777635
 31
0.0
  0
LINE
  5
C3
100
AcDbEntity
100
AcDbLine
  8
0
 62
256
370
-1
  6
CONTINUOUS
 10
29.4999979997710398
 20
4.900001039777635
 30
0.0
 11
29.4999979997710398
 21
8.900001039777635
 31
0.0
  0
LINE
  5
C4
100
AcDbEntity
100
AcDbLine
  8
0
 62
256
370
-1
  6
CONTINUOUS
 10
25.4999979997710398
 20
4.900001039777635
 30
0.0
 11
25.4999979997710398
 21
8.900001039777635
 31
0.0
  0
LINE
  5
C5
100
AcDbEntity
100
AcDbLine
  8
0
 62
256
370
-1
  6
CONTINUOUS
 10
29.4999979997710398
 20
8.900001039777635
 30
0.0
 11
30.9999979997710398
 21
8.900001039777635
 31
0.0
  0
LINE
  5
C6
100
AcDbEntity
100
AcDbLine
  8
0
 62
256
370
-1
  6
CONTINUOUS
 10
30.9999979997710398
 20
8.900001039777635
 30
0.0
 11
30.9999979997710398
 21
11.9000010397776297
 31
0.0
  0
LINE
  5
C7
100
AcDbEntity
100
AcDbLine
  8
0
 62
256
370
-1
  6
CONTINUOUS
 10
30.9999979997710398
 20
11.9000010397776297
 30
0.0
 11
23.9999979997710398
 21
11.9000010397776297
 31
0.0
  0
LINE
  5
C8
100
AcDbEntity
100
AcDbLine
  8
0
 62
256
370
-1
  6
CONTINUOUS
 10
23.9999979997710398
 20
8.900001039777635
 30
0.0
 11
25.4999979997710398
 21
8.900001039777635
 31
0.0
  0
LINE
  5
C9
100
AcDbEntity
100
AcDbLine
  8
0
 62
256
370
-1
  6
CONTINUOUS
 10
23.9999979997710398
 20
8.900001039777635
 30
0.0
 11
23.9999979997710398
 21
11.9000010397776297
 31
0.0
  0
LINE
  5
CA
100
AcDbEntity
100
AcDbLine
  8
0
 62
256
370
-1
  6
ByLayer
 10
35.9999979997710398
 20
4.900001039777635
 30
0.0
 11
29.4999979997710398
 21
4.900001039777635
 31
0.0
  0
LINE
  5
CB
100
AcDbEntity
100
AcDbLine
  8
0
 62
256
370
-1
  6
ByLayer
 10
10.4999979997710398
 20
4.900001039777635
 30
0.0
 11
14.4999979997710398
 21
4.900001039777635
 31
0.0
  0
LINE
  5
CC
100
AcDbEntity
100
AcDbLine
  8
0
 62
256
370
-1
  6
ByLayer
 10
25.4999979997710398
 20
4.900001039777635
 30
0.0
 11
21.4999979997710398
 21
4.900001039777635
 31
0.0
  0
LINE
  5
CD
100
AcDbEntity
100
AcDbLine
  8
0
 62
256
370
-1
  6
ByLayer
 10
21.4999979997710398
 20
4.900001039777635
 30
0.0
 11
21.4999979997710398
 21
0.0000010397777714
 31
0.0
  0
LINE
  5
CE
100
AcDbEntity
100
AcDbLine
  8
0
 62
256
370
-1
  6
ByLayer
 10
14.4999979997710398
 20
4.900001039777635
 30
0.0
 11
14.4999979997710398
 21
0.0000010397777714
 31
0.0
  0
LINE
  5
CF
100
AcDbEntity
100
AcDbLine
  8
0
 62
256
370
-1
  6
ByLayer
 10
14.4999979997710398
 20
0.0000010397777714
 30
0.0
 11
21.4999979997710398
 21
0.0000010397777714
 31
0.0
  0
LINE
  5
D0
100
AcDbEntity
100
AcDbLine
  8
0
 62
256
370
-1
  6
CONTINUOUS
 10
29.4999979997710398
 20
469.9000010397778055
 30
0.0
 11
29.4999979997710398
 21
465.9000010397778055
 31
0.0
  0
LINE
  5
D1
100
AcDbEntity
100
AcDbLine
  8
0
 62
256
370
-1
  6
CONTINUOUS
 10
25.4999979997710398
 20
469.9000010397778055
 30
0.0
 11
25.4999979997710398
 21
465.9000010397778055
 31
0.0
  0
LINE
  5
D2
100
AcDbEntity
100
AcDbLine
  8
0
 62
256
370
-1
  6
CONTINUOUS
 10
29.4999979997710398
 20
465.9000010397778055
 30
0.0
 11
30.9999979997710398
 21
465.9000010397778055
 31
0.0
  0
LINE
  5
D3
100
AcDbEntity
100
AcDbLine
  8
0
 62
256
370
-1
  6
CONTINUOUS
 10
30.9999979997710398
 20
465.9000010397778055
 30
0.0
 11
30.9999979997710398
 21
462.9000010397779192
 31
0.0
  0
LINE
  5
D4
100
AcDbEntity
100
AcDbLine
  8
0
 62
256
370
-1
  6
CONTINUOUS
 10
30.9999979997710398
 20
462.9000010397779192
 30
0.0
 11
23.9999979997710398
 21
462.9000010397779192
 31
0.0
  0
LINE
  5
D5
100
AcDbEntity
100
AcDbLine
  8
0
 62
256
370
-1
  6
CONTINUOUS
 10
23.9999979997710398
 20
465.9000010397778055
 30
0.0
 11
25.4999979997710398
 21
465.9000010397778055
 31
0.0
  0
LINE
  5
D6
100
AcDbEntity
100
AcDbLine
  8
0
 62
256
370
-1
  6
CONTINUOUS
 10
23.9999979997710398
 20
465.9000010397778055
 30
0.0
 11
23.9999979997710398
 21
462.9000010397779192
 31
0.0
  0
LINE
  5
D7
100
AcDbEntity
100
AcDbLine
  8
0
 62
256
370
-1
  6
ByLayer
 10
35.9999979997710398
 20
469.9000010397778055
 30
0.0
 11
29.4999979997710398
 21
469.9000010397778055
 31
0.0
  0
LINE
  5
D8
100
AcDbEntity
100
AcDbLine
  8
0
 62
256
370
-1
  6
CONTINUOUS
 10
6.4999979997710389
 20
469.9000010397778055
 30
0.0
 11
6.4999979997710389
 21
465.9000010397778055
 31
0.0
  0
LINE
  5
D9
100
AcDbEntity
100
AcDbLine
  8
0
 62
256
370
-1
  6
CONTINUOUS
 10
10.4999979997710398
 20
469.9000010397778055
 30
0.0
 11
10.4999979997710398
 21
465.9000010397778055
 31
0.0
  0
LINE
  5
DA
100
AcDbEntity
100
AcDbLine
  8
0
 62
256
370
-1
  6
CONTINUOUS
 10
6.4999979997710389
 20
465.9000010397778055
 30
0.0
 11
4.9999979997710389
 21
465.9000010397778055
 31
0.0
  0
LINE
  5
DB
100
AcDbEntity
100
AcDbLine
  8
0
 62
256
370
-1
  6
CONTINUOUS
 10
4.9999979997710389
 20
462.9000010397779192
 30
0.0
 11
11.9999979997710398
 21
462.9000010397779192
 31
0.0
  0
LINE
  5
DC
100
AcDbEntity
100
AcDbLine
  8
0
 62
256
370
-1
  6
CONTINUOUS
 10
11.9999979997710398
 20
465.9000010397778055
 30
0.0
 11
10.4999979997710398
 21
465.9000010397778055
 31
0.0
  0
LINE
  5
DD
100
AcDbEntity
100
AcDbLine
  8
0
 62
256
370
-1
  6
CONTINUOUS
 10
11.9999979997710398
 20
465.9000010397778055
 30
0.0
 11
11.9999979997710398
 21
462.9000010397779192
 31
0.0
  0
LINE
  5
DE
100
AcDbEntity
100
AcDbLine
  8
0
 62
256
370
-1
  6
ByLayer
 10
-0.0000020002289602
 20
469.9000010397778055
 30
0.0
 11
6.4999979997710389
 21
469.9000010397778055
 31
0.0
  0
LINE
  5
DF
100
AcDbEntity
100
AcDbLine
  8
0
 62
256
370
-1
  6
ByLayer
 10
25.4999979997710398
 20
469.9000010397778055
 30
0.0
 11
21.4999979997710398
 21
469.9000010397778055
 31
0.0
  0
LINE
  5
E0
100
AcDbEntity
100
AcDbLine
  8
0
 62
256
370
-1
  6
ByLayer
 10
10.4999979997710398
 20
469.9000010397778055
 30
0.0
 11
14.4999979997710398
 21
469.9000010397778055
 31
0.0
  0
LINE
  5
E1
100
AcDbEntity
100
AcDbLine
  8
0
 62
256
370
-1
  6
ByLayer
 10
14.4999979997710398
 20
469.9000010397778055
 30
0.0
 11
14.4999979997710398
 21
474.800001039777726
 31
0.0
  0
LINE
  5
E2
100
AcDbEntity
100
AcDbLine
  8
0
 62
256
370
-1
  6
ByLayer
 10
21.4999979997710398
 20
469.9000010397778055
 30
0.0
 11
21.4999979997710398
 21
474.800001039777726
 31
0.0
  0
LINE
  5
E3
100
AcDbEntity
100
AcDbLine
  8
0
 62
256
370
-1
  6
ByLayer
 10
21.4999979997710398
 20
474.800001039777726
 30
0.0
 11
14.4999979997710398
 21
474.800001039777726
 31
0.0
  0
LINE
  5
E4
100
AcDbEntity
100
AcDbLine
  8
0
 62
256
370
-1
  6
ByLayer
 10
4.9999979997710389
 20
462.9000010397779192
 30
0.0
 11
4.9999979997710389
 21
465.9000010397778055
 31
0.0
  0
CIRCLE
  5
E5
100
AcDbEntity
100
AcDbCircle
  8
0
 62
256
370
-1
  6
ByLayer
 10
17.9999979997710398
 20
57.9000010397776421
 30
0.0
 40
4.0499999999999989
  0
CIRCLE
  5
E6
100
AcDbEntity
100
AcDbCircle
  8
0
 62
256
370
-1
  6
ByLayer
 10
17.9999979997712707
 20
453.9000010397775782
 30
0.0
 40
4.0499999999999989
  0
CIRCLE
  5
E7
100
AcDbEntity
100
AcDbCircle
  8
0
 62
256
370
-1
  6
ByLayer
 10
17.9999979997712707
 20
20.9000010397776386
 30
0.0
 40
4.0499999999999989
  0
CIRCLE
  5
E8
100
AcDbEntity
100
AcDbCircle
  8
0
 62
256
370
-1
  6
ByLayer
 10
17.9999979997710398
 20
416.9000010397775782
 30
0.0
 40
4.0499999999999989
  0
ENDBLK
  5
E9
100
AcDbEntity
  8
0
100
AcDbBlockEnd
  0
BLOCK
  5
EA
100
AcDbEntity
  8
0
100
AcDbBlockBegin
  2
y_frame_pieces
 70
0
 10
0.0
 20
0.0
 30
0.0
  3
y_frame_pieces
  1

  0
CIRCLE
  5
EB
100
AcDbEntity
100
AcDbCircle
  8
0
 62
256
370
-1
  6
CONTINUOUS
 10
17.9999979997710398
 20
160.7000010397775895
 30
0.0
 40
4.0499999999999989
  0
LINE
  5
EC
100
AcDbEntity
100
AcDbLine
  8
0
 62
256
370
-1
  6
ByLayer
 10
35.9999979997710398
 20
469.9000010397778055
 30
0.0
 11
35.9999979997710398
 21
272.4000010397776919
 31
0.0
  0
CIRCLE
  5
ED
100
AcDbEntity
100
AcDbCircle
  8
0
 62
256
370
-1
  6
CONTINUOUS
 10
17.9999979997710398
 20
314.1000010397776805
 30
0.0
 40
4.0499999999999989
  0
LINE
  5
EE
100
AcDbEntity
100
AcDbLine
  8
0
 62
256
370
-1
  6
ByLayer
 10
30.9999979997710398
 20
267.4000010397775782
 30
0.0
 11
20.9999979997710398
 21
267.4000010397775782
 31
0.0
  0
LINE
  5
EF
100
AcDbEntity
100
AcDbLine
  8
0
 62
256
370
-1
  6
ByLayer
 10
20.9999979997710398
 20
267.4000010397775782
 30
0.0
 11
20.9999979997710398
 21
207.4000010397776066
 31
0.0
  0
LINE
  5
F0
100
AcDbEntity
100
AcDbLine
  8
0
 62
256
370
-1
  6
ByLayer
 10
20.9999979997710398
 20
207.4000010397776066
 30
0.0
 11
30.9999979997710398
 21
207.4000010397776066
 31
0.0
  0
LINE
  5
F1
100
AcDbEntity
100
AcDbLine
  8
0
 62
256
370
-1
  6
ByLayer
 10
35.9999979997710398
 20
202.4000010397776066
 30
0.0
 11
35.9999979997710398
 21
4.900001039777635
 31
0.0
  0
ARC
  5
F2
100
AcDbEntity
  8
0
 62
256
370
-1
  6
ByLayer
100
AcDbCircle
 10
30.9999979997710398
 20
202.4000010397776066
 30
0.0
 40
5.0
100
AcDbArc
 50
0.0
 51
90.0
  0
ARC
  5
F3
100
AcDbEntity
  8
0
 62
256
370
-1
  6
ByLayer
100
AcDbCircle
 10
30.9999979997710398
 20
272.4000010397776919
 30
0.0
 40
5.0
100
AcDbArc
 50
270.0
 51
0.0
  0
LINE
  5
F4
100
AcDbEntity
100
AcDbLine
  8
0
 62
256
370
-1
  6
ByLayer
 10
-0.0000020002289602
 20
469.9000010397778055
 30
0.0
 11
-0.0000020002289602
 21
4.900001039777635
 31
0.0
  0
LINE
  5
F5
100
AcDbEntity
100
AcDbLine
  8
0
 62
256
370
-1
  6
CONTINUOUS
 10
6.4999979997710389
 20
4.900001039777635
 30
0.0
 11
6.4999979997710389
 21
8.900001039777635
 31
0.0
  0
LINE
  5
F6
100
AcDbEntity
100
AcDbLine
  8
0
 62
256
370
-1
  6
CONTINUOUS
 10
10.4999979997710398
 20
4.900001039777635
 30
0.0
 11
10.4999979997710398
 21
8.900001039777635
 31
0.0
  0
LINE
  5
F7
100
AcDbEntity
100
AcDbLine
  8
0
 62
256
370
-1
  6
CONTINUOUS
 10
6.4999979997710389
 20
8.900001039777635
 30
0.0
 11
4.9999979997710389
 21
8.900001039777635
 31
0.0
  0
LINE
  5
F8
100
AcDbEntity
100
AcDbLine
  8
0
 62
256
370
-1
  6
CONTINUOUS
 10
4.9999979997710389
 20
8.900001039777635
 30
0.0
 11
4.9999979997710389
 21
11.9000010397776297
 31
0.0
  0
LINE
  5
F9
100
AcDbEntity
100
AcDbLine
  8
0
 62
256
370
-1
  6
CONTINUOUS
 10
4.9999979997710389
 20
11.9000010397776297
 30
0.0
 11
11.9999979997710398
 21
11.9000010397776297
 31
0.0
  0
LINE
  5
FA
100
AcDbEntity
100
AcDbLine
  8
0
 62
256
370
-1
  6
CONTINUOUS
 10
11.9999979997710398
 20
8.900001039777635
 30
0.0
 11
10.4999979997710398
 21
8.900001039777635
 31
0.0
  0
LINE
  5
FB
100
AcDbEntity
100
AcDbLine
  8
0
 62
256
370
-1
  6
CONTINUOUS
 10
11.9999979997710398
 20
8.900001039777635
 30
0.0
 11
11.9999979997710398
 21
11.9000010397776297
 31
0.0
  0
LINE
  5
FC
100
AcDbEntity
100
AcDbLine
  8
0
 62
256
370
-1
  6
ByLayer
 10
-0.0000020002289602
 20
4.900001039777635
 30
0.0
 11
6.4999979997710389
 21
4.900001039777635
 31
0.0
  0
LINE
  5
FD
100
AcDbEntity
100
AcDbLine
  8
0
 62
256
370
-1
  6
CONTINUOUS
 10
29.4999979997710398
 20
4.900001039777635
 30
0.0
 11
29.4999979997710398
 21
8.900001039777635
 31
0.0
  0
LINE
  5
FE
100
AcDbEntity
100
AcDbLine
  8
0
 62
256
370
-1
  6
CONTINUOUS
 10
25.4999979997710398
 20
4.900001039777635
 30
0.0
 11
25.4999979997710398
 21
8.900001039777635
 31
0.0
  0
LINE
  5
FF
100
AcDbEntity
100
AcDbLine
  8
0
 62
256
370
-1
  6
CONTINUOUS
 10
29.4999979997710398
 20
8.900001039777635
 30
0.0
 11
30.9999979997710398
 21
8.900001039777635
 31
0.0
  0
LINE
  5
100
100
AcDbEntity
100
AcDbLine
  8
0
 62
256
370
-1
  6
CONTINUOUS
 10
30.9999979997710398
 20
8.900001039777635
 30
0.0
 11
30.9999979997710398
 21
11.9000010397776297
 31
0.0
  0
LINE
  5
101
100
AcDbEntity
100
AcDbLine
  8
0
 62
256
370
-1
  6
CONTINUOUS
 10
30.9999979997710398
 20
11.9000010397776297
 30
0.0
 11
23.9999979997710398
 21
11.9000010397776297
 31
0.0
  0
LINE
  5
102
100
AcDbEntity
100
AcDbLine
  8
0
 62
256
370
-1
  6
CONTINUOUS
 10
23.9999979997710398
 20
8.900001039777635
 30
0.0
 11
25.4999979997710398
 21
8.900001039777635
 31
0.0
  0
LINE
  5
103
100
AcDbEntity
100
AcDbLine
  8
0
 62
256
370
-1
  6
CONTINUOUS
 10
23.9999979997710398
 20
8.900001039777635
 30
0.0
 11
23.9999979997710398
 21
11.9000010397776297
 31
0.0
  0
LINE
  5
104
100
AcDbEntity
100
AcDbLine
  8
0
 62
256
370
-1
  6
ByLayer
 10
35.9999979997710398
 20
4.900001039777635
 30
0.0
 11
29.4999979997710398
 21
4.900001039777635
 31
0.0
  0
LINE
  5
105
100
AcDbEntity
100
AcDbLine
  8
0
 62
256
370
-1
  6
ByLayer
 10
10.4999979997710398
 20
4.900001039777635
 30
0.0
 11
15.4999979997710398
 21
4.900001039777635
 31
0.0
  0
LINE
  5
106
100
AcDbEntity
100
AcDbLine
  8
0
 62
256
370
-1
  6
ByLayer
 10
25.4999979997710398
 20
4.900001039777635
 30
0.0
 11
20.4999979997710398
 21
4.900001039777635
 31
0.0
  0
LINE
  5
107
100
AcDbEntity
100
AcDbLine
  8
0
 62
256
370
-1
  6
ByLayer
 10
20.4999979997710398
 20
4.900001039777635
 30
0.0
 11
20.4999979997710398
 21
0.0000010397777714
 31
0.0
  0
LINE
  5
108
100
AcDbEntity
100
AcDbLine
  8
0
 62
256
370
-1
  6
ByLayer
 10
15.4999979997710398
 20
4.900001039777635
 30
0.0
 11
15.4999979997710398
 21
0.0000010397777714
 31
0.0
  0
LINE
  5
109
100
AcDbEntity
100
AcDbLine
  8
0
 62
256
370
-1
  6
ByLayer
 10
15.4999979997710398
 20
0.0000010397777714
 30
0.0
 11
20.4999979997710398
 21
0.0000010397777714
 31
0.0
  0
LINE
  5
10A
100
AcDbEntity
100
AcDbLine
  8
0
 62
256
370
-1
  6
CONTINUOUS
 10
29.4999979997710398
 20
469.9000010397778055
 30
0.0
 11
29.4999979997710398
 21
465.9000010397778055
 31
0.0
  0
LINE
  5
10B
100
AcDbEntity
100
AcDbLine
  8
0
 62
256
370
-1
  6
CONTINUOUS
 10
25.4999979997710398
 20
469.9000010397778055
 30
0.0
 11
25.4999979997710398
 21
465.9000010397778055
 31
0.0
  0
LINE
  5
10C
100
AcDbEntity
100
AcDbLine
  8
0
 62
256
370
-1
  6
CONTINUOUS
 10
29.4999979997710398
 20
465.9000010397778055
 30
0.0
 11
30.9999979997710398
 21
465.9000010397778055
 31
0.0
  0
LINE
  5
10D
100
AcDbEntity
100
AcDbLine
  8
0
 62
256
370
-1
  6
CONTINUOUS
 10
30.9999979997710398
 20
465.9000010397778055
 30
0.0
 11
30.9999979997710398
 21
462.9000010397779192
 31
0.0
  0
LINE
  5
10E
100
AcDbEntity
100
AcDbLine
  8
0
 62
256
370
-1
  6
CONTINUOUS
 10
30.9999979997710398
 20
462.9000010397779192
 30
0.0
 11
23.9999979997710398
 21
462.9000010397779192
 31
0.0
  0
LINE
  5
10F
100
AcDbEntity
100
AcDbLine
  8
0
 62
256
370
-1
  6
CONTINUOUS
 10
23.9999979997710398
 20
465.9000010397778055
 30
0.0
 11
25.4999979997710398
 21
465.9000010397778055
 31
0.0
  0
LINE
  5
110
100
AcDbEntity
100
AcDbLine
  8
0
 62
256
370
-1
  6
CONTINUOUS
 10
23.9999979997710398
 20
465.9000010397778055
 30
0.0
 11
23.9999979997710398
 21
462.9000010397779192
 31
0.0
  0
LINE
  5
111
100
AcDbEntity
100
AcDbLine
  8
0
 62
256
370
-1
  6
ByLayer
 10
35.9999979997710398
 20
469.9000010397778055
 30
0.0
 11
29.4999979997710398
 21
469.9000010397778055
 31
0.0
  0
LINE
  5
112
100
AcDbEntity
100
AcDbLine
  8
0
 62
256
370
-1
  6
CONTINUOUS
 10
6.4999979997710389
 20
469.9000010397778055
 30
0.0
 11
6.4999979997710389
 21
465.9000010397778055
 31
0.0
  0
LINE
  5
113
100
AcDbEntity
100
AcDbLine
  8
0
 62
256
370
-1
  6
CONTINUOUS
 10
10.4999979997710398
 20
469.9000010397778055
 30
0.0
 11
10.4999979997710398
 21
465.9000010397778055
 31
0.0
  0
LINE
  5
114
100
AcDbEntity
100
AcDbLine
  8
0
 62
256
370
-1
  6
CONTINUOUS
 10
6.4999979997710389
 20
465.9000010397778055
 30
0.0
 11
4.9999979997710389
 21
465.9000010397778055
 31
0.0
  0
LINE
  5
115
100
AcDbEntity
100
AcDbLine
  8
0
 62
256
370
-1
  6
CONTINUOUS
 10
4.9999979997710389
 20
462.9000010397779192
 30
0.0
 11
11.9999979997710398
 21
462.9000010397779192
 31
0.0
  0
LINE
  5
116
100
AcDbEntity
100
AcDbLine
  8
0
 62
256
370
-1
  6
CONTINUOUS
 10
11.9999979997710398
 20
465.9000010397778055
 30
0.0
 11
10.4999979997710398
 21
465.9000010397778055
 31
0.0
  0
LINE
  5
117
100
AcDbEntity
100
AcDbLine
  8
0
 62
256
370
-1
  6
CONTINUOUS
 10
11.9999979997710398
 20
465.9000010397778055
 30
0.0
 11
11.9999979997710398
 21
462.9000010397779192
 31
0.0
  0
LINE
  5
118
100
AcDbEntity
100
AcDbLine
  8
0
 62
256
370
-1
  6
ByLayer
 10
-0.0000020002289602
 20
469.9000010397778055
 30
0.0
 11
6.4999979997710389
 21
469.9000010397778055
 31
0.0
  0
LINE
  5
119
100
AcDbEntity
100
AcDbLine
  8
0
 62
256
370
-1
  6
ByLayer
 10
25.4999979997710398
 20
469.9000010397778055
 30
0.0
 11
20.4999979997710398
 21
469.9000010397778055
 31
0.0
  0
LINE
  5
11A
100
AcDbEntity
100
AcDbLine
  8
0
 62
256
370
-1
  6
ByLayer
 10
10.4999979997710398
 20
469.9000010397778055
 30
0.0
 11
15.4999979997710398
 21
469.9000010397778055
 31
0.0
  0
LINE
  5
11B
100
AcDbEntity
100
AcDbLine
  8
0
 62
256
370
-1
  6
ByLayer
 10
15.4999979997710398
 20
469.9000010397778055
 30
0.0
 11
15.4999979997710398
 21
474.800001039777726
 31
0.0
  0
LINE
  5
11C
100
AcDbEntity
100
AcDbLine
  8
0
 62
256
370
-1
  6
ByLayer
 10
20.4999979997710398
 20
469.9000010397778055
 30
0.0
 11
20.4999979997710398
 21
474.800001039777726
 31
0.0
  0
LINE
  5
11D
100
AcDbEntity
100
AcDbLine
  8
0
 62
256
370
-1
  6
ByLayer
 10
20.4999979997710398
 20
474.800001039777726
 30
0.0
 11
15.4999979997710398
 21
474.800001039777726
 31
0.0
  0
LINE
  5
11E
100
AcDbEntity
100
AcDbLine
  8
0
 62
256
370
-1
  6
ByLayer
 10
4.9999979997710389
 20
462.9000010397779192
 30
0.0
 11
4.9999979997710389
 21
465.9000010397778055
 31
0.0
  0
CIRCLE
  5
11F
100
AcDbEntity
100
AcDbCircle
  8
0
 62
256
370
-1
  6
ByLayer
 10
4.4999979997710389
 20
227.4000010397776066
 30
0.0
 40
2.2000000000000002
  0
CIRCLE
  5
120
100
AcDbEntity
100
AcDbCircle
  8
0
 62
256
370
-1
  6
ByLayer
 10
16.4999979997710398
 20
227.4000010397776066
 30
0.0
 40
2.2000000000000002
  0
CIRCLE
  5
121
100
AcDbEntity
100
AcDbCircle
  8
0
 62
256
370
-1
  6
ByLayer
 10
4.4999979997710389
 20
247.4000010397776919
 30
0.0
 40
2.2000000000000002
  0
CIRCLE
  5
122
100
AcDbEntity
100
AcDbCircle
  8
0
 62
256
370
-1
  6
ByLayer
 10
16.4999979997710398
 20
247.4000010397776919
 30
0.0
 40
2.2000000000000002
  0
ENDBLK
  5
123
100
AcDbEntity
  8
0
100
AcDbBlockEnd
  0
BLOCK
  5
124
100
AcDbEntity
  8
0
100
AcDbBlockBegin
  2
y_bushing_mount
 70
0
 10
0.0
 20
0.0
 30
0.0
  3
y_bushing_mount
  1

  0
LINE
  5
125
100
AcDbEntity
100
AcDbLine
  8
0
 62
256
370
-1
  6
CONTINUOUS
 10
20.0
 20
98.389854594114567
 30
0.0
 11
23.0
 21
98.389854594114567
 31
0.0
  0
LINE
  5
126
100
AcDbEntity
100
AcDbLine
  8
0
 62
256
370
-1
  6
CONTINUOUS
 10
23.0
 20
98.389854594114567
 30
0.0
 11
23.0
 21
99.889854594114567
 31
0.0
  0
LINE
  5
127
100
AcDbEntity
100
AcDbLine
  8
0
 62
256
370
-1
  6
CONTINUOUS
 10
23.0
 20
99.889854594114567
 30
0.0
 11
27.5
 21
99.889854594114567
 31
0.0
  0
LINE
  5
128
100
AcDbEntity
100
AcDbLine
  8
0
 62
256
370
-1
  6
CONTINUOUS
 10
27.5
 20
99.889854594114567
 30
0.0
 11
27.5
 21
92.889854594114567
 31
0.0
  0
LINE
  5
129
100
AcDbEntity
100
AcDbLine
  8
0
 62
256
370
-1
  6
CONTINUOUS
 10
27.5
 20
92.889854594114567
 30
0.0
 11
23.0
 21
92.889854594114567
 31
0.0
  0
LINE
  5
12A
100
AcDbEntity
100
AcDbLine
  8
0
 62
256
370
-1
  6
CONTINUOUS
 10
23.0
 20
92.889854594114567
 30
0.0
 11
23.0
 21
94.389854594114567
 31
0.0
  0
LINE
  5
12B
100
AcDbEntity
100
AcDbLine
  8
0
 62
256
370
-1
  6
CONTINUOUS
 10
23.0
 20
94.389854594114567
 30
0.0
 11
19.9999999999999716
 21
94.389854594114567
 31
0.0
  0
LINE
  5
12C
100
AcDbEntity
100
AcDbLine
  8
0
 62
256
370
-1
  6
CONTINUOUS
 10
20.0
 20
48.3898545941144533
 30
0.0
 11
23.0
 21
48.3898545941144533
 31
0.0
  0
LINE
  5
12D
100
AcDbEntity
100
AcDbLine
  8
0
 62
256
370
-1
  6
CONTINUOUS
 10
23.0
 20
48.3898545941144533
 30
0.0
 11
23.0
 21
49.8898545941145528
 31
0.0
  0
LINE
  5
12E
100
AcDbEntity
100
AcDbLine
  8
0
 62
256
370
-1
  6
CONTINUOUS
 10
23.0
 20
49.8898545941145528
 30
0.0
 11
27.5
 21
49.8898545941145528
 31
0.0
  0
LINE
  5
12F
100
AcDbEntity
100
AcDbLine
  8
0
 62
256
370
-1
  6
CONTINUOUS
 10
27.5
 20
49.8898545941145528
 30
0.0
 11
27.5
 21
42.8898545941145386
 31
0.0
  0
LINE
  5
130
100
AcDbEntity
100
AcDbLine
  8
0
 62
256
370
-1
  6
CONTINUOUS
 10
27.5
 20
42.8898545941145386
 30
0.0
 11
23.0
 21
42.8898545941145386
 31
0.0
  0
LINE
  5
131
100
AcDbEntity
100
AcDbLine
  8
0
 62
256
370
-1
  6
CONTINUOUS
 10
23.0
 20
42.8898545941145386
 30
0.0
 11
23.0
 21
44.389854594114567
 31
0.0
  0
LINE
  5
132
100
AcDbEntity
100
AcDbLine
  8
0
 62
256
370
-1
  6
CONTINUOUS
 10
23.0
 20
44.389854594114567
 30
0.0
 11
19.9999999999999716
 21
44.389854594114567
 31
0.0
  0
LINE
  5
133
100
AcDbEntity
100
AcDbLine
  8
0
 62
256
370
-1
  6
CONTINUOUS
 10
19.9999999999999787
 20
94.389854594114567
 30
0.0
 11
20.0
 21
48.3898545941144533
 31
0.0
  0
LINE
  5
134
100
AcDbEntity
100
AcDbLine
  8
0
 62
256
370
-1
  6
CONTINUOUS
 10
15.0999999999999392
 20
16.0898545941145805
 30
0.0
 11
15.0999999999999392
 21
26.0898545941145912
 31
0.0
  0
LINE
  5
135
100
AcDbEntity
100
AcDbLine
  8
0
 62
256
370
-1
  6
CONTINUOUS
 10
19.9999999999999716
 20
26.0898545941145912
 30
0.0
 11
19.9999999999999716
 21
44.389854594114567
 31
0.0
  0
LINE
  5
136
100
AcDbEntity
100
AcDbLine
  8
0
 62
256
370
-1
  6
CONTINUOUS
 10
15.0999999999999392
 20
16.0898545941145805
 30
0.0
 11
39.9999999999999574
 21
16.0898545941145805
 31
0.0
  0
LINE
  5
137
100
AcDbEntity
100
AcDbLine
  8
0
 62
256
370
-1
  6
CONTINUOUS
 10
15.0999999999999392
 20
26.0898545941145912
 30
0.0
 11
19.9999999999999716
 21
26.0898545941145912
 31
0.0
  0
ARC
  5
138
100
AcDbEntity
  8
0
 62
256
370
-1
  6
ByLayer
100
AcDbCircle
 10
39.9999999999999503
 20
26.0898545941145912
 30
0.0
 40
10.0
100
AcDbArc
 50
270.0000000000002274
 51
0.0
  0
CIRCLE
  5
139
100
AcDbEntity
100
AcDbCircle
  8
0
 62
256
370
-1
  6
CONTINUOUS
 10
35.0
 20
61.3898545941145102
 30
0.0
 40
5.0499999999999989
  0
LINE
  5
13A
100
AcDbEntity
100
AcDbLine
  8
0
 62
256
370
-1
  6
CONTINUOUS
 10
20.0
 20
177.7898545941145017
 30
0.0
 11
23.0
 21
177.7898545941145017
 31
0.0
  0
LINE
  5
13B
100
AcDbEntity
100
AcDbLine
  8
0
 62
256
370
-1
  6
CONTINUOUS
 10
23.0
 20
177.7898545941145017
 30
0.0
 11
23.0
 21
176.2898545941145017
 31
0.0
  0
LINE
  5
13C
100
AcDbEntity
100
AcDbLine
  8
0
 62
256
370
-1
  6
CONTINUOUS
 10
23.0
 20
176.2898545941145017
 30
0.0
 11
27.5
 21
176.2898545941145017
 31
0.0
  0
LINE
  5
13D
100
AcDbEntity
100
AcDbLine
  8
0
 62
256
370
-1
  6
CONTINUOUS
 10
27.5
 20
176.2898545941145017
 30
0.0
 11
27.5
 21
183.2898545941145017
 31
0.0
  0
LINE
  5
13E
100
AcDbEntity
100
AcDbLine
  8
0
 62
256
370
-1
  6
CONTINUOUS
 10
27.5
 20
183.2898545941145017
 30
0.0
 11
23.0
 21
183.2898545941145017
 31
0.0
  0
LINE
  5
13F
100
AcDbEntity
100
AcDbLine
  8
0
 62
256
370
-1
  6
CONTINUOUS
 10
23.0
 20
183.2898545941145017
 30
0.0
 11
23.0
 21
181.7898545941145017
 31
0.0
  0
LINE
  5
140
100
AcDbEntity
100
AcDbLine
  8
0
 62
256
370
-1
  6
CONTINUOUS
 10
23.0
 20
181.7898545941145017
 30
0.0
 11
19.9999999999999716
 21
181.7898545941145017
 31
0.0
  0
LINE
  5
141
100
AcDbEntity
100
AcDbLine
  8
0
 62
256
370
-1
  6
CONTINUOUS
 10
20.0
 20
227.7898545941147006
 30
0.0
 11
23.0
 21
227.7898545941147006
 31
0.0
  0
LINE
  5
142
100
AcDbEntity
100
AcDbLine
  8
0
 62
256
370
-1
  6
CONTINUOUS
 10
23.0
 20
227.7898545941147006
 30
0.0
 11
23.0
 21
226.2898545941145869
 31
0.0
  0
LINE
  5
143
100
AcDbEntity
100
AcDbLine
  8
0
 62
256
370
-1
  6
CONTINUOUS
 10
23.0
 20
226.2898545941145869
 30
0.0
 11
27.5
 21
226.2898545941145869
 31
0.0
  0
LINE
  5
144
100
AcDbEntity
100
AcDbLine
  8
0
 62
256
370
-1
  6
CONTINUOUS
 10
27.5
 20
226.2898545941145869
 30
0.0
 11
27.5
 21
233.2898545941145869
 31
0.0
  0
LINE
  5
145
100
AcDbEntity
100
AcDbLine
  8
0
 62
256
370
-1
  6
CONTINUOUS
 10
27.5
 20
233.2898545941145869
 30
0.0
 11
23.0
 21
233.2898545941145869
 31
0.0
  0
LINE
  5
146
100
AcDbEntity
100
AcDbLine
  8
0
 62
256
370
-1
  6
CONTINUOUS
 10
23.0
 20
233.2898545941145869
 30
0.0
 11
23.0
 21
231.7898545941145869
 31
0.0
  0
LINE
  5
147
100
AcDbEntity
100
AcDbLine
  8
0
 62
256
370
-1
  6
CONTINUOUS
 10
23.0
 20
231.7898545941145869
 30
0.0
 11
19.9999999999999716
 21
231.7898545941145869
 31
0.0
  0
LINE
  5
148
100
AcDbEntity
100
AcDbLine
  8
0
 62
256
370
-1
  6
CONTINUOUS
 10
19.9999999999999787
 20
181.7898545941145017
 30
0.0
 11
20.0
 21
227.7898545941147006
 31
0.0
  0
LINE
  5
149
100
AcDbEntity
100
AcDbLine
  8
0
 62
256
370
-1
  6
CONTINUOUS
 10
15.0999999999999392
 20
260.0898545941146267
 30
0.0
 11
15.0999999999999392
 21
250.089854594114513
 31
0.0
  0
LINE
  5
14A
100
AcDbEntity
100
AcDbLine
  8
0
 62
256
370
-1
  6
CONTINUOUS
 10
19.9999999999999716
 20
250.089854594114513
 30
0.0
 11
19.9999999999999716
 21
231.7898545941145869
 31
0.0
  0
LINE
  5
14B
100
AcDbEntity
100
AcDbLine
  8
0
 62
256
370
-1
  6
CONTINUOUS
 10
15.0999999999999392
 20
260.0898545941146267
 30
0.0
 11
39.9999999999999574
 21
260.0898545941146267
 31
0.0
  0
LINE
  5
14C
100
AcDbEntity
100
AcDbLine
  8
0
 62
256
370
-1
  6
CONTINUOUS
 10
15.0999999999999392
 20
250.089854594114513
 30
0.0
 11
19.9999999999999716
 21
250.089854594114513
 31
0.0
  0
ARC
  5
14D
100
AcDbEntity
  8
0
 62
256
370
-1
  6
ByLayer
100
AcDbCircle
 10
39.9999999999999503
 20
250.089854594114513
 30
0.0
 40
10.0
100
AcDbArc
 50
0.0
 51
89.9999999999998437
  0
LINE
  5
14E
100
AcDbEntity
100
AcDbLine
  8
0
 62
256
370
-1
  6
ByLayer
 10
49.9999999999999289
 20
250.089854594114513
 30
0.0
 11
49.9999999999999503
 21
173.089854594114513
 31
0.0
  0
CIRCLE
  5
14F
100
AcDbEntity
100
AcDbCircle
  8
0
 62
256
370
-1
  6
CONTINUOUS
 10
35.0
 20
214.7898545941145869
 30
0.0
 40
5.0499999999999989
  0
LINE
  5
150
100
AcDbEntity
100
AcDbLine
  8
0
 62
256
370
-1
  6
ByLayer
 10
20.0
 20
177.7898545941145017
 30
0.0
 11
19.9999999999999787
 21
98.389854594114567
 31
0.0
  0
LINE
  5
151
100
AcDbEntity
100
AcDbLine
  8
0
 62
256
370
-1
  6
ByLayer
 10
44.9999999999999503
 20
168.089854594114513
 30
0.0
 11
34.9999999999999574
 21
168.089854594114513
 31
0.0
  0
LINE
  5
152
100
AcDbEntity
100
AcDbLine
  8
0
 62
256
370
-1
  6
ByLayer
 10
34.9999999999999574
 20
168.089854594114513
 30
0.0
 11
34.9999999999999503
 21
108.0898545941144988
 31
0.0
  0
LINE
  5
153
100
AcDbEntity
100
AcDbLine
  8
0
 62
256
370
-1
  6
ByLayer
 10
34.9999999999999503
 20
108.0898545941144988
 30
0.0
 11
44.9999999999999503
 21
108.0898545941144988
 31
0.0
  0
LINE
  5
154
100
AcDbEntity
100
AcDbLine
  8
0
 62
256
370
-1
  6
ByLayer
 10
49.9999999999999503
 20
103.0898545941144988
 30
0.0
 11
49.9999999999999503
 21
26.0898545941145912
 31
0.0
  0
ARC
  5
155
100
AcDbEntity
  8
0
 62
256
370
-1
  6
ByLayer
100
AcDbCircle
 10
44.9999999999999503
 20
103.0898545941144988
 30
0.0
 40
5.0
100
AcDbArc
 50
0.0
 51
90.0
  0
ARC
  5
156
100
AcDbEntity
  8
0
 62
256
370
-1
  6
ByLayer
100
AcDbCircle
 10
44.9999999999999503
 20
173.089854594114513
 30
0.0
 40
5.0
100
AcDbArc
 50
270.0
 51
0.0
  0
ENDBLK
  5
157
100
AcDbEntity
  8
0
100
AcDbBlockEnd
  0
BLOCK
  5
158
100
AcDbEntity
  8
0
100
AcDbBlockBegin
  2
y_side_support
 70
0
 10
0.0
 20
0.0
 30
0.0
  3
y_side_support
  1

  0
LINE
  5
159
100
AcDbEntity
100
AcDbLine
  8
0
 62
256
370
-1
  6
CONTINUOUS
 10
20.0
 20
113.389854594114496
 30
0.0
 11
23.0
 21
113.389854594114496
 31
0.0
  0
LINE
  5
15A
100
AcDbEntity
100
AcDbLine
  8
0
 62
256
370
-1
  6
CONTINUOUS
 10
23.0
 20
113.389854594114496
 30
0.0
 11
23.0
 21
114.889854594114496
 31
0.0
  0
LINE
  5
15B
100
AcDbEntity
100
AcDbLine
  8
0
 62
256
370
-1
  6
CONTINUOUS
 10
23.0
 20
114.889854594114496
 30
0.0
 11
27.5
 21
114.889854594114496
 31
0.0
  0
LINE
  5
15C
100
AcDbEntity
100
AcDbLine
  8
0
 62
256
370
-1
  6
CONTINUOUS
 10
27.5
 20
114.889854594114496
 30
0.0
 11
27.5
 21
107.889854594114496
 31
0.0
  0
LINE
  5
15D
100
AcDbEntity
100
AcDbLine
  8
0
 62
256
370
-1
  6
CONTINUOUS
 10
27.5
 20
107.889854594114496
 30
0.0
 11
23.0
 21
107.889854594114496
 31
0.0
  0
LINE
  5
15E
100
AcDbEntity
100
AcDbLine
  8
0
 62
256
370
-1
  6
CONTINUOUS
 10
23.0
 20
107.889854594114496
 30
0.0
 11
23.0
 21
109.389854594114496
 31
0.0
  0
LINE
  5
15F
100
AcDbEntity
100
AcDbLine
  8
0
 62
256
370
-1
  6
CONTINUOUS
 10
23.0
 20
109.389854594114496
 30
0.0
 11
19.9999999999999716
 21
109.389854594114496
 31
0.0
  0
LINE
  5
160
100
AcDbEntity
100
AcDbLine
  8
0
 62
256
370
-1
  6
CONTINUOUS
 10
20.0
 20
48.3898545941144533
 30
0.0
 11
23.0
 21
48.3898545941144533
 31
0.0
  0
LINE
  5
161
100
AcDbEntity
100
AcDbLine
  8
0
 62
256
370
-1
  6
CONTINUOUS
 10
23.0
 20
48.3898545941144533
 30
0.0
 11
23.0
 21
49.8898545941145528
 31
0.0
  0
LINE
  5
162
100
AcDbEntity
100
AcDbLine
  8
0
 62
256
370
-1
  6
CONTINUOUS
 10
23.0
 20
49.8898545941145528
 30
0.0
 11
27.5
 21
49.8898545941145528
 31
0.0
  0
LINE
  5
163
100
AcDbEntity
100
AcDbLine
  8
0
 62
256
370
-1
  6
CONTINUOUS
 10
27.5
 20
49.8898545941145528
 30
0.0
 11
27.5
 21
42.8898545941145386
 31
0.0
  0
LINE
  5
164
100
AcDbEntity
100
AcDbLine
  8
0
 62
256
370
-1
  6
CONTINUOUS
 10
27.5
 20
42.8898545941145386
 30
0.0
 11
23.0
 21
42.8898545941145386
 31
0.0
  0
LINE
  5
165
100
AcDbEntity
100
AcDbLine
  8
0
 62
256
370
-1
  6
CONTINUOUS
 10
23.0
 20
42.8898545941145386
 30
0.0
 11
23.0
 21
44.389854594114567
 31
0.0
  0
LINE
  5
166
100
AcDbEntity
100
AcDbLine
  8
0
 62
256
370
-1
  6
CONTINUOUS
 10
23.0
 20
44.389854594114567
 30
0.0
 11
19.9999999999999716
 21
44.389854594114567
 31
0.0
  0
LINE
  5
167
100
AcDbEntity
100
AcDbLine
  8
0
 62
256
370
-1
  6
CONTINUOUS
 10
19.9999999999999787
 20
109.389854594114496
 30
0.0
 11
20.0
 21
76.3898545941145102
 31
0.0
  0
LINE
  5
168
100
AcDbEntity
100
AcDbLine
  8
0
 62
256
370
-1
  6
CONTINUOUS
 10
19.9999999999999609
 20
28.0898545941145805
 30
0.0
 11
19.9999999999999716
 21
44.389854594114567
 31
0.0
  0
LINE
  5
169
100
AcDbEntity
100
AcDbLine
  8
0
 62
256
370
-1
  6
CONTINUOUS
 10
19.9999999999999609
 20
28.0898545941145805
 30
0.0
 11
29.9999999999999396
 21
28.0898545941145805
 31
0.0
  0
ARC
  5
16A
100
AcDbEntity
  8
0
 62
256
370
-1
  6
ByLayer
100
AcDbCircle
 10
29.9999999999999183
 20
38.089854594114577
 30
0.0
 40
10.0
100
AcDbArc
 50
270.0000000000002274
 51
0.0
  0
LINE
  5
16B
100
AcDbEntity
100
AcDbLine
  8
0
 62
256
370
-1
  6
ByLayer
 10
15.0999999999999908
 20
76.3898545941145102
 30
0.0
 11
15.0999999999999908
 21
66.3898545941145102
 31
0.0
  0
LINE
  5
16C
100
AcDbEntity
100
AcDbLine
  8
0
 62
256
370
-1
  6
ByLayer
 10
20.0
 20
76.3898545941145102
 30
0.0
 11
15.0999999999999908
 21
76.3898545941145102
 31
0.0
  0
LINE
  5
16D
100
AcDbEntity
100
AcDbLine
  8
0
 62
256
370
-1
  6
ByLayer
 10
15.0999999999999908
 20
66.3898545941145102
 30
0.0
 11
20.0
 21
66.3898545941145102
 31
0.0
  0
LINE
  5
16E
100
AcDbEntity
100
AcDbLine
  8
0
 62
256
370
-1
  6
ByLayer
 10
20.0
 20
66.3898545941145102
 30
0.0
 11
20.0
 21
48.3898545941144533
 31
0.0
  0
LINE
  5
16F
100
AcDbEntity
100
AcDbLine
  8
0
 62
256
370
-1
  6
CONTINUOUS
 10
20.0
 20
164.5898575182804962
 30
0.0
 11
23.0
 21
164.5898575182804962
 31
0.0
  0
LINE
  5
170
100
AcDbEntity
100
AcDbLine
  8
0
 62
256
370
-1
  6
CONTINUOUS
 10
23.0
 20
164.5898575182804962
 30
0.0
 11
23.0
 21
163.0898575182804962
 31
0.0
  0
LINE
  5
171
100
AcDbEntity
100
AcDbLine
  8
0
 62
256
370
-1
  6
CONTINUOUS
 10
23.0
 20
163.0898575182804962
 30
0.0
 11
27.5
 21
163.0898575182804962
 31
0.0
  0
LINE
  5
172
100
AcDbEntity
100
AcDbLine
  8
0
 62
256
370
-1
  6
CONTINUOUS
 10
27.5
 20
163.0898575182804962
 30
0.0
 11
27.5
 21
170.0898575182804962
 31
0.0
  0
LINE
  5
173
100
AcDbEntity
100
AcDbLine
  8
0
 62
256
370
-1
  6
CONTINUOUS
 10
27.5
 20
170.0898575182804962
 30
0.0
 11
23.0
 21
170.0898575182804962
 31
0.0
  0
LINE
  5
174
100
AcDbEntity
100
AcDbLine
  8
0
 62
256
370
-1
  6
CONTINUOUS
 10
23.0
 20
170.0898575182804962
 30
0.0
 11
23.0
 21
168.5898575182804962
 31
0.0
  0
LINE
  5
175
100
AcDbEntity
100
AcDbLine
  8
0
 62
256
370
-1
  6
CONTINUOUS
 10
23.0
 20
168.5898575182804962
 30
0.0
 11
19.9999999999999609
 21
168.5898575182804962
 31
0.0
  0
LINE
  5
176
100
AcDbEntity
100
AcDbLine
  8
0
 62
256
370
-1
  6
CONTINUOUS
 10
20.0
 20
229.5898575182806098
 30
0.0
 11
23.0
 21
229.5898575182806098
 31
0.0
  0
LINE
  5
177
100
AcDbEntity
100
AcDbLine
  8
0
 62
256
370
-1
  6
CONTINUOUS
 10
23.0
 20
229.5898575182806098
 30
0.0
 11
23.0
 21
228.0898575182804962
 31
0.0
  0
LINE
  5
178
100
AcDbEntity
100
AcDbLine
  8
0
 62
256
370
-1
  6
CONTINUOUS
 10
23.0
 20
228.0898575182804962
 30
0.0
 11
27.5
 21
228.0898575182804962
 31
0.0
  0
LINE
  5
179
100
AcDbEntity
100
AcDbLine
  8
0
 62
256
370
-1
  6
CONTINUOUS
 10
27.5
 20
228.0898575182804962
 30
0.0
 11
27.5
 21
235.0898575182806098
 31
0.0
  0
LINE
  5
17A
100
AcDbEntity
100
AcDbLine
  8
0
 62
256
370
-1
  6
CONTINUOUS
 10
27.5
 20
235.0898575182806098
 30
0.0
 11
23.0
 21
235.0898575182806098
 31
0.0
  0
LINE
  5
17B
100
AcDbEntity
100
AcDbLine
  8
0
 62
256
370
-1
  6
CONTINUOUS
 10
23.0
 20
235.0898575182806098
 30
0.0
 11
23.0
 21
233.5898575182804962
 31
0.0
  0
LINE
  5
17C
100
AcDbEntity
100
AcDbLine
  8
0
 62
256
370
-1
  6
CONTINUOUS
 10
23.0
 20
233.5898575182804962
 30
0.0
 11
19.9999999999999716
 21
233.5898575182804962
 31
0.0
  0
LINE
  5
17D
100
AcDbEntity
100
AcDbLine
  8
0
 62
256
370
-1
  6
CONTINUOUS
 10
19.9999999999999787
 20
168.5898575182804962
 30
0.0
 11
20.0000000000000107
 21
201.5898575182804962
 31
0.0
  0
LINE
  5
17E
100
AcDbEntity
100
AcDbLine
  8
0
 62
256
370
-1
  6
CONTINUOUS
 10
19.9999999999999609
 20
249.8898575182805075
 30
0.0
 11
19.9999999999999716
 21
233.5898575182804962
 31
0.0
  0
LINE
  5
17F
100
AcDbEntity
100
AcDbLine
  8
0
 62
256
370
-1
  6
CONTINUOUS
 10
19.9999999999999609
 20
249.8898575182805075
 30
0.0
 11
29.9999999999999396
 21
249.8898575182805075
 31
0.0
  0
ARC
  5
180
100
AcDbEntity
  8
0
 62
256
370
-1
  6
ByLayer
100
AcDbCircle
 10
29.9999999999999112
 20
239.8898575182805075
 30
0.0
 40
10.0
100
AcDbArc
 50
0.0
 51
89.9999999999998437
  0
LINE
  5
181
100
AcDbEntity
100
AcDbLine
  8
0
 62
256
370
-1
  6
ByLayer
 10
15.0999999999999908
 20
201.5898575182804962
 30
0.0
 11
15.0999999999999908
 21
211.5898575182804962
 31
0.0
  0
LINE
  5
182
100
AcDbEntity
100
AcDbLine
  8
0
 62
256
370
-1
  6
ByLayer
 10
20.0
 20
201.5898575182804962
 30
0.0
 11
15.0999999999999908
 21
201.5898575182804962
 31
0.0
  0
LINE
  5
183
100
AcDbEntity
100
AcDbLine
  8
0
 62
256
370
-1
  6
ByLayer
 10
15.0999999999999908
 20
211.5898575182804962
 30
0.0
 11
20.0
 21
211.5898575182804962
 31
0.0
  0
LINE
  5
184
100
AcDbEntity
100
AcDbLine
  8
0
 62
256
370
-1
  6
ByLayer
 10
20.0
 20
211.5898575182804962
 30
0.0
 11
20.0
 21
229.5898575182806098
 31
0.0
  0
LINE
  5
185
100
AcDbEntity
100
AcDbLine
  8
0
 62
256
370
-1
  6
ByLayer
 10
39.9999999999999218
 20
38.089854594114577
 30
0.0
 11
39.9999999999999218
 21
239.8898575182805075
 31
0.0
  0
LINE
  5
186
100
AcDbEntity
100
AcDbLine
  8
0
 62
256
370
-1
  6
ByLayer
 10
20.0
 20
164.5898575182804962
 30
0.0
 11
20.0
 21
113.389854594114496
 31
0.0
  0
ENDBLK
  5
187
100
AcDbEntity
  8
0
100
AcDbBlockEnd
  0
BLOCK
  5
188
100
AcDbEntity
  8
0
100
AcDbBlockBegin
  2
y_stage
 70
0
 10
0.0
 20
0.0
 30
0.0
  3
y_stage
  1

  0
CIRCLE
  5
189
100
AcDbEntity
100
AcDbCircle
  8
0
 62
256
370
-1
  6
ByLayer
 10
17.4999997620266683
 20
17.5000001721026592
 30
0.0
 40
1.5
  0
CIRCLE
  5
18A
100
AcDbEntity
100
AcDbCircle
  8
0
 62
256
370
-1
  6
ByLayer
 10
226.4999997620267038
 20
17.5000001721026592
 30
0.0
 40
1.5
  0
CIRCLE
  5
18B
100
AcDbEntity
100
AcDbCircle
  8
0
 62
256
370
-1
  6
ByLayer
 10
226.4999997620267038
 20
226.5000001721026877
 30
0.0
 40
1.5
  0
CIRCLE
  5
18C
100
AcDbEntity
100
AcDbCircle
  8
0
 62
256
370
-1
  6
ByLayer
 10
17.4999997620266683
 20
226.5000001721026877
 30
0.0
 40
1.5
  0
LINE
  5
18D
100
AcDbEntity
100
AcDbLine
  8
0
 62
256
370
-1
  6
ByLayer
 10
228.9999997620265901
 20
25.0000001721026592
 30
0.0
 11
218.9999997620265901
 21
15.0000001721026592
 31
0.0
  0
LINE
  5
18E
100
AcDbEntity
100
AcDbLine
  8
0
 62
256
370
-1
  6
ByLayer
 10
14.9999997620266203
 20
25.0000001721026592
 30
0.0
 11
24.9999997620266186
 21
15.0000001721026592
 31
0.0
  0
LINE
  5
18F
100
AcDbEntity
100
AcDbLine
  8
0
 62
256
370
-1
  6
ByLayer
 10
228.9999997620265901
 20
219.0000001721026877
 30
0.0
 11
218.9999997620265901
 21
229.0000001721026024
 31
0.0
  0
LINE
  5
190
100
AcDbEntity
100
AcDbLine
  8
0
 62
256
370
-1
  6
ByLayer
 10
14.9999997620266203
 20
219.0000001721026877
 30
0.0
 11
24.9999997620266186
 21
229.0000001721026024
 31
0.0
  0
LINE
  5
191
100
AcDbEntity
100
AcDbLine
  8
0
 62
256
370
-1
  6
ByLayer
 10
228.9999997620265901
 20
219.0000001721026877
 30
0.0
 11
228.9999997620265901
 21
25.0000001721026592
 31
0.0
  0
LINE
  5
192
100
AcDbEntity
100
AcDbLine
  8
0
 62
256
370
-1
  6
ByLayer
 10
218.9999997620265901
 20
229.0000001721026024
 30
0.0
 11
24.9999997620266186
 21
229.0000001721026024
 31
0.0
  0
LINE
  5
193
100
AcDbEntity
100
AcDbLine
  8
0
 62
256
370
-1
  6
ByLayer
 10
14.9999997620266203
 20
219.0000001721026877
 30
0.0
 11
14.9999997620266203
 21
25.0000001721026592
 31
0.0
  0
LINE
  5
194
100
AcDbEntity
100
AcDbLine
  8
0
 62
256
370
-1
  6
ByLayer
 10
24.9999997620266186
 20
15.0000001721026592
 30
0.0
 11
218.9999997620265901
 21
15.0000001721026592
 31
0.0
  0
LINE
  5
195
100
AcDbEntity
100
AcDbLine
  8
0
 62
256
370
-1
  6
ByLayer
 10
2.0000005757917729
 20
-4.4999991326665159
 30
0.0
 11
241.9999989482614922
 21
-4.4999991326664883
 31
0.0
  0
LINE
  5
196
100
AcDbEntity
100
AcDbLine
  8
0
 62
256
370
-1
  6
ByLayer
 10
-0.0000002379732109
 20
231.900000172102807
 30
0.0
 11
-0.0000002379732109
 21
12.1000001721025701
 31
0.0
  0
CIRCLE
  5
197
100
AcDbEntity
100
AcDbCircle
  8
0
 62
256
370
-1
  6
ByLayer
 10
30.2999997620267401
 20
7.5000001721026592
 30
0.0
 40
2.25
  0
CIRCLE
  5
198
100
AcDbEntity
100
AcDbCircle
  8
0
 62
256
370
-1
  6
ByLayer
 10
80.2999997620267436
 20
7.5000001721026592
 30
0.0
 40
2.25
  0
CIRCLE
  5
199
100
AcDbEntity
100
AcDbCircle
  8
0
 62
256
370
-1
  6
ByLayer
 10
163.6999997620266925
 20
7.5000001721026592
 30
0.0
 40
2.25
  0
CIRCLE
  5
19A
100
AcDbEntity
100
AcDbCircle
  8
0
 62
256
370
-1
  6
ByLayer
 10
213.6999997620268061
 20
7.5000001721026592
 30
0.0
 40
2.25
  0
LINE
  5
19B
100
AcDbEntity
100
AcDbLine
  8
0
 62
256
370
-1
  6
ByLayer
 10
1.999999762026845
 20
10.1000001721025701
 30
0.0
 11
10.0999997620268704
 21
10.1000001721025701
 31
0.0
  0
LINE
  5
19C
100
AcDbEntity
100
AcDbLine
  8
0
 62
256
370
-1
  6
ByLayer
 10
10.0999997620268704
 20
10.1000001721025701
 30
0.0
 11
10.0999997620268704
 21
4.9000001721025219
 31
0.0
  0
LINE
  5
19D
100
AcDbEntity
100
AcDbLine
  8
0
 62
256
370
-1
  6
ByLayer
 10
10.0999997620268704
 20
4.9000001721025219
 30
0.0
 11
1.999999762026845
 21
4.9000001721025219
 31
0.0
  0
LINE
  5
19E
100
AcDbEntity
100
AcDbLine
  8
0
 62
256
370
-1
  6
ByLayer
 10
-0.0000002379731541
 20
2.9000001721025219
 30
0.0
 11
0.0000008890118153
 21
-2.5011184540211948
 31
0.0
  0
ARC
  5
19F
100
AcDbEntity
  8
0
 62
256
370
-1
  6
ByLayer
100
AcDbCircle
 10
1.999999762026845
 20
2.9000001721026361
 30
0.0
 40
1.9999999999998861
100
AcDbArc
 50
90.0
 51
180.0
  0
ARC
  5
1A0
100
AcDbEntity
  8
0
 62
256
370
-1
  6
ByLayer
100
AcDbCircle
 10
1.999999762026845
 20
12.1000001721025701
 30
0.0
 40
2.000000000000056
100
AcDbArc
 50
180.0
 51
270.0
  0
ARC
  5
1A1
100
AcDbEntity
  8
0
 62
256
370
-1
  6
ByLayer
100
AcDbCircle
 10
2.0000005757917729
 20
-2.499999132666459
 30
0.0
 40
2.000000000000056
100
AcDbArc
 50
180.0
 51
270.0
  0
LINE
  5
1A2
100
AcDbEntity
100
AcDbLine
  8
0
 62
256
370
-1
  6
ByLayer
 10
1.999999762026845
 20
233.900000172102807
 30
0.0
 11
10.0999997620268704
 21
233.900000172102807
 31
0.0
  0
LINE
  5
1A3
100
AcDbEntity
100
AcDbLine
  8
0
 62
256
370
-1
  6
ByLayer
 10
10.0999997620268704
 20
233.900000172102807
 30
0.0
 11
10.0999997620268704
 21
239.1000001721027957
 31
0.0
  0
LINE
  5
1A4
100
AcDbEntity
100
AcDbLine
  8
0
 62
256
370
-1
  6
ByLayer
 10
10.0999997620268704
 20
239.1000001721027957
 30
0.0
 11
1.999999762026845
 21
239.1000001721027957
 31
0.0
  0
ARC
  5
1A5
100
AcDbEntity
  8
0
 62
256
370
-1
  6
ByLayer
100
AcDbCircle
 10
1.999999762026845
 20
241.1000001721027104
 30
0.0
 40
1.9999999999998861
100
AcDbArc
 50
180.0
 51
270.0
  0
ARC
  5
1A6
100
AcDbEntity
  8
0
 62
256
370
-1
  6
ByLayer
100
AcDbCircle
 10
1.999999762026845
 20
231.900000172102807
 30
0.0
 40
2.000000000000056
100
AcDbArc
 50
90.0
 51
180.0
  0
LINE
  5
1A7
100
AcDbEntity
100
AcDbLine
  8
0
 62
256
370
-1
  6
ByLayer
 10
243.9999997620263912
 20
231.900000172102807
 30
0.0
 11
243.9999997620263912
 21
12.1000001721025701
 31
0.0
  0
LINE
  5
1A8
100
AcDbEntity
100
AcDbLine
  8
0
 62
256
370
-1
  6
ByLayer
 10
241.9999997620263912
 20
10.1000001721025701
 30
0.0
 11
233.8999997620263969
 21
10.1000001721025701
 31
0.0
  0
LINE
  5
1A9
100
AcDbEntity
100
AcDbLine
  8
0
 62
256
370
-1
  6
ByLayer
 10
233.8999997620263969
 20
10.1000001721025701
 30
0.0
 11
233.8999997620263969
 21
4.9000001721025219
 31
0.0
  0
LINE
  5
1AA
100
AcDbEntity
100
AcDbLine
  8
0
 62
256
370
-1
  6
ByLayer
 10
233.8999997620263969
 20
4.9000001721025219
 30
0.0
 11
241.9999997620263912
 21
4.9000001721025219
 31
0.0
  0
LINE
  5
1AB
100
AcDbEntity
100
AcDbLine
  8
0
 62
256
370
-1
  6
ByLayer
 10
243.9999997620263912
 20
2.9000001721025219
 30
0.0
 11
243.9999989482614922
 21
-2.499999132666431
 31
0.0
  0
ARC
  5
1AC
100
AcDbEntity
  8
0
 62
256
370
-1
  6
ByLayer
100
AcDbCircle
 10
241.9999997620263912
 20
2.9000001721026361
 30
0.0
 40
1.9999999999998861
100
AcDbArc
 50
0.0
 51
90.0
  0
ARC
  5
1AD
100
AcDbEntity
  8
0
 62
256
370
-1
  6
ByLayer
100
AcDbCircle
 10
241.9999997620263912
 20
12.1000001721025701
 30
0.0
 40
2.000000000000056
100
AcDbArc
 50
270.0
 51
0.0
  0
LINE
  5
1AE
100
AcDbEntity
100
AcDbLine
  8
0
 62
256
370
-1
  6
ByLayer
 10
241.9999997620263912
 20
233.900000172102807
 30
0.0
 11
233.8999997620263969
 21
233.900000172102807
 31
0.0
  0
LINE
  5
1AF
100
AcDbEntity
100
AcDbLine
  8
0
 62
256
370
-1
  6
ByLayer
 10
233.8999997620263969
 20
233.900000172102807
 30
0.0
 11
233.8999997620263969
 21
239.1000001721027957
 31
0.0
  0
LINE
  5
1B0
100
AcDbEntity
100
AcDbLine
  8
0
 62
256
370
-1
  6
ByLayer
 10
233.8999997620263969
 20
239.1000001721027957
 30
0.0
 11
241.9999997620263912
 21
239.1000001721027957
 31
0.0
  0
ARC
  5
1B1
100
AcDbEntity
  8
0
 62
256
370
-1
  6
ByLayer
100
AcDbCircle
 10
241.9999997620263912
 20
241.1000001721027104
 30
0.0
 40
1.9999999999998861
100
AcDbArc
 50
270.0
 51
0.0
  0
ARC
  5
1B2
100
AcDbEntity
  8
0
 62
256
370
-1
  6
ByLayer
100
AcDbCircle
 10
241.9999997620263912
 20
231.900000172102807
 30
0.0
 40
2.000000000000056
100
AcDbArc
 50
0.0
 51
90.0
  0
ARC
  5
1B3
100
AcDbEntity
  8
0
 62
256
370
-1
  6
ByLayer
100
AcDbCircle
 10
241.9999989482614922
 20
-2.499999132666431
 30
0.0
 40
2.000000000000056
100
AcDbArc
 50
270.0
 51
0.0
  0
CIRCLE
  5
1B4
100
AcDbEntity
100
AcDbCircle
  8
0
 62
256
370
-1
  6
ByLayer
 10
30.2999997620267401
 20
236.5000001721026877
 30
0.0
 40
2.25
  0
CIRCLE
  5
1B5
100
AcDbEntity
100
AcDbCircle
  8
0
 62
256
370
-1
  6
ByLayer
 10
80.2999997620267436
 20
236.5000001721026877
 30
0.0
 40
2.25
  0
CIRCLE
  5
1B6
100
AcDbEntity
100
AcDbCircle
  8
0
 62
256
370
-1
  6
ByLayer
 10
163.6999997620266925
 20
236.5000001721026877
 30
0.0
 40
2.25
  0
CIRCLE
  5
1B7
100
AcDbEntity
100
AcDbCircle
  8
0
 62
256
370
-1
  6
ByLayer
 10
213.6999997620268061
 20
236.5000001721026877
 30
0.0
 40
2.25
  0
LINE
  5
1B8
100
AcDbEntity
100
AcDbLine
  8
0
 62
256
370
-1
  6
ByLayer
 10
233.8999997620267095
 20
49.4000001721024091
 30
0.0
 11
239.0999997620268118
 21
49.4000001721024091
 31
0.0
  0
LINE
  5
1B9
100
AcDbEntity
100
AcDbLine
  8
0
 62
256
370
-1
  6
ByLayer
 10
239.0999997620268118
 20
49.4000001721024091
 30
0.0
 11
239.0999997620268118
 21
59.4000001721024091
 31
0.0
  0
LINE
  5
1BA
100
AcDbEntity
100
AcDbLine
  8
0
 62
256
370
-1
  6
ByLayer
 10
239.0999997620268118
 20
59.4000001721024091
 30
0.0
 11
233.8999997620267095
 21
59.4000001721024091
 31
0.0
  0
LINE
  5
1BB
100
AcDbEntity
100
AcDbLine
  8
0
 62
256
370
-1
  6
ByLayer
 10
233.8999997620267095
 20
59.4000001721024091
 30
0.0
 11
233.8999997620267095
 21
49.4000001721024091
 31
0.0
  0
LINE
  5
1BC
100
AcDbEntity
100
AcDbLine
  8
0
 62
256
370
-1
  6
ByLayer
 10
233.8999997620267095
 20
194.6000030962684093
 30
0.0
 11
239.0999997620268118
 21
194.6000030962684093
 31
0.0
  0
LINE
  5
1BD
100
AcDbEntity
100
AcDbLine
  8
0
 62
256
370
-1
  6
ByLayer
 10
239.0999997620268118
 20
194.6000030962684093
 30
0.0
 11
239.0999997620268118
 21
184.6000030962684093
 31
0.0
  0
LINE
  5
1BE
100
AcDbEntity
100
AcDbLine
  8
0
 62
256
370
-1
  6
ByLayer
 10
239.0999997620268118
 20
184.6000030962684093
 30
0.0
 11
233.8999997620267095
 21
184.6000030962684093
 31
0.0
  0
LINE
  5
1BF
100
AcDbEntity
100
AcDbLine
  8
0
 62
256
370
-1
  6
ByLayer
 10
233.8999997620267095
 20
184.6000030962684093
 30
0.0
 11
233.8999997620267095
 21
194.6000030962684093
 31
0.0
  0
CIRCLE
  5
1C0
100
AcDbEntity
100
AcDbCircle
  8
0
 62
256
370
-1
  6
ByLayer
 10
236.4999997620267038
 20
214.6000030962684093
 30
0.0
 40
2.25
  0
CIRCLE
  5
1C1
100
AcDbEntity
100
AcDbCircle
  8
0
 62
256
370
-1
  6
ByLayer
 10
236.4999997620267038
 20
149.6000030962684093
 30
0.0
 40
2.25
  0
CIRCLE
  5
1C2
100
AcDbEntity
100
AcDbCircle
  8
0
 62
256
370
-1
  6
ByLayer
 10
236.4999997620267038
 20
29.4000001721024091
 30
0.0
 40
2.25
  0
CIRCLE
  5
1C3
100
AcDbEntity
100
AcDbCircle
  8
0
 62
256
370
-1
  6
ByLayer
 10
236.4999997620267038
 20
94.4000001721025228
 30
0.0
 40
2.25
  0
LINE
  5
1C4
100
AcDbEntity
100
AcDbLine
  8
0
 62
256
370
-1
  6
ByLayer
 10
10.0999997620265294
 20
49.4000001721024091
 30
0.0
 11
4.8999997620264821
 21
49.4000001721024091
 31
0.0
  0
LINE
  5
1C5
100
AcDbEntity
100
AcDbLine
  8
0
 62
256
370
-1
  6
ByLayer
 10
4.8999997620264821
 20
49.4000001721024091
 30
0.0
 11
4.8999997620264821
 21
59.4000001721024091
 31
0.0
  0
LINE
  5
1C6
100
AcDbEntity
100
AcDbLine
  8
0
 62
256
370
-1
  6
ByLayer
 10
4.8999997620264821
 20
59.4000001721024091
 30
0.0
 11
10.0999997620265294
 21
59.4000001721024091
 31
0.0
  0
LINE
  5
1C7
100
AcDbEntity
100
AcDbLine
  8
0
 62
256
370
-1
  6
ByLayer
 10
10.0999997620265294
 20
59.4000001721024091
 30
0.0
 11
10.0999997620265294
 21
49.4000001721024091
 31
0.0
  0
LINE
  5
1C8
100
AcDbEntity
100
AcDbLine
  8
0
 62
256
370
-1
  6
ByLayer
 10
10.0999997620265294
 20
194.6000030962684093
 30
0.0
 11
4.8999997620264821
 21
194.6000030962684093
 31
0.0
  0
LINE
  5
1C9
100
AcDbEntity
100
AcDbLine
  8
0
 62
256
370
-1
  6
ByLayer
 10
4.8999997620264821
 20
194.6000030962684093
 30
0.0
 11
4.8999997620264821
 21
184.6000030962684093
 31
0.0
  0
LINE
  5
1CA
100
AcDbEntity
100
AcDbLine
  8
0
 62
256
370
-1
  6
ByLayer
 10
4.8999997620264821
 20
184.6000030962684093
 30
0.0
 11
10.0999997620265294
 21
184.6000030962684093
 31
0.0
  0
LINE
  5
1CB
100
AcDbEntity
100
AcDbLine
  8
0
 62
256
370
-1
  6
ByLayer
 10
10.0999997620265294
 20
184.6000030962684093
 30
0.0
 11
10.0999997620265294
 21
194.6000030962684093
 31
0.0
  0
CIRCLE
  5
1CC
100
AcDbEntity
100
AcDbCircle
  8
0
 62
256
370
-1
  6
ByLayer
 10
7.499999762026504
 20
214.6000030962684093
 30
0.0
 40
2.25
  0
CIRCLE
  5
1CD
100
AcDbEntity
100
AcDbCircle
  8
0
 62
256
370
-1
  6
ByLayer
 10
7.499999762026504
 20
149.6000030962684093
 30
0.0
 40
2.25
  0
CIRCLE
  5
1CE
100
AcDbEntity
100
AcDbCircle
  8
0
 62
256
370
-1
  6
ByLayer
 10
7.499999762026504
 20
29.4000001721024091
 30
0.0
 40
2.25
  0
CIRCLE
  5
1CF
100
AcDbEntity
100
AcDbCircle
  8
0
 62
256
370
-1
  6
ByLayer
 10
7.499999762026504
 20
94.4000001721025228
 30
0.0
 40
2.25
  0
CIRCLE
  5
1D0
100
AcDbEntity
100
AcDbCircle
  8
0
 62
256
370
-1
  6
ByLayer
 10
127.9999997620266043
 20
0.5000008673334975
 30
0.0
 40
2.2000000000000002
  0
CIRCLE
  5
1D1
100
AcDbEntity
100
AcDbCircle
  8
0
 62
256
370
-1
  6
ByLayer
 10
115.9999997620265049
 20
0.5000008673334975
 30
0.0
 40
2.2000000000000002
  0
LINE
  5
1D2
100
AcDbEntity
100
AcDbLine
  8
0
 62
256
370
-1
  6
ByLayer
 10
2.0000005757917729
 20
248.4999994768718068
 30
0.0
 11
241.9999989482614922
 21
248.4999994768718068
 31
0.0
  0
LINE
  5
1D3
100
AcDbEntity
100
AcDbLine
  8
0
 62
256
370
-1
  6
ByLayer
 10
-0.0000002379731541
 20
241.1000001721027957
 30
0.0
 11
0.0000008890118153
 21
246.5011187982265142
 31
0.0
  0
ARC
  5
1D4
100
AcDbEntity
  8
0
 62
256
370
-1
  6
ByLayer
100
AcDbCircle
 10
2.0000005757917729
 20
246.4999994768718068
 30
0.0
 40
2.000000000000056
100
AcDbArc
 50
90.0000000000000284
 51
180.0
  0
LINE
  5
1D5
100
AcDbEntity
100
AcDbLine
  8
0
 62
256
370
-1
  6
ByLayer
 10
243.9999997620263912
 20
241.1000001721027957
 30
0.0
 11
243.9999989482614922
 21
246.4999994768716931
 31
0.0
  0
ARC
  5
1D6
100
AcDbEntity
  8
0
 62
256
370
-1
  6
ByLayer
100
AcDbCircle
 10
241.9999989482614922
 20
246.4999994768716931
 30
0.0
 40
2.000000000000056
100
AcDbArc
 50
0.0
 51
90.0000000000000284
  0
CIRCLE
  5
1D7
100
AcDbEntity
100
AcDbCircle
  8
0
 62
256
370
-1
  6
ByLayer
 10
127.9999997620266043
 20
243.4999994768718068
 30
0.0
 40
2.2000000000000002
  0
CIRCLE
  5
1D8
100
AcDbEntity
100
AcDbCircle
  8
0
 62
256
370
-1
  6
ByLayer
 10
115.9999997620265049
 20
243.4999994768718068
 30
0.0
 40
2.2000000000000002
  0
ENDBLK
  5
1D9
100
AcDbEntity
  8
0
100
AcDbBlockEnd
  0
BLOCK
  5
1DA
100
AcDbEntity
  8
0
100
AcDbBlockBegin
  2
x_mount1
 70
0
 10
0.0
 20
0.0
 30
0.0
  3
x_mount1
  1

  0
CIRCLE
  5
1DB
100
AcDbEntity
100
AcDbCircle
  8
0
 62
256
370
-1
  6
ByLayer
 10
43.9999997119554322
 20
33.1243553535721205
 30
0.0
 40
2.5000004248191741
  0
CIRCLE
  5
1DC
100
AcDbEntity
100
AcDbCircle
  8
0
 62
256
370
-1
  6
ByLayer
 10
50.9999997119554322
 20
20.9999997005899708
 30
0.0
 40
5.5
  0
CIRCLE
  5
1DD
100
AcDbEntity
100
AcDbCircle
  8
0
 62
256
370
-1
  6
ByLayer
 10
22.9999997119554287
 20
20.9999997005899708
 30
0.0
 40
8.0
  0
LINE
  5
1DE
100
AcDbEntity
100
AcDbLine
  8
0
 62
256
370
-1
  6
ByLayer
 10
76.0999997119554337
 20
41.999999700589953
 30
0.0
 11
-25.0000002880445606
 21
41.999999700589953
 31
0.0
  0
CIRCLE
  5
1DF
100
AcDbEntity
100
AcDbCircle
  8
0
 62
256
370
-1
  6
ByLayer
 10
43.9999997119554322
 20
8.8756440476078406
 30
0.0
 40
2.5000004248191741
  0
CIRCLE
  5
1E0
100
AcDbEntity
100
AcDbCircle
  8
0
 62
256
370
-1
  6
ByLayer
 10
64.9999997119554394
 20
20.9999997005899495
 30
0.0
 40
2.5000004248191741
  0
LINE
  5
1E1
100
AcDbEntity
100
AcDbLine
  8
0
 62
256
370
-1
  6
ByLayer
 10
79.0999997119554337
 20
38.9999997005899601
 30
0.0
 11
79.0999997119554337
 21
5.999999700589985
 31
0.0
  0
LINE
  5
1E2
100
AcDbEntity
100
AcDbLine
  8
0
 62
256
370
-1
  6
ByLayer
 10
-28.0000002880445606
 20
38.9999997005899601
 30
0.0
 11
-28.0000002880445606
 21
31.9999997005899814
 31
0.0
  0
LINE
  5
1E3
100
AcDbEntity
100
AcDbLine
  8
0
 62
256
370
-1
  6
ByLayer
 10
-9.6000002880445603
 20
38.0999997005899829
 30
0.0
 11
-4.400000288044561
 21
38.0999997005899829
 31
0.0
  0
LINE
  5
1E4
100
AcDbEntity
100
AcDbLine
  8
0
 62
256
370
-1
  6
ByLayer
 10
-21.5000002880445606
 20
41.999999700589953
 30
0.0
 11
-19.55355389279066
 21
41.999999700589953
 31
0.0
  0
LINE
  5
1E5
100
AcDbEntity
100
AcDbLine
  8
0
 62
256
370
-1
  6
ByLayer
 10
-9.6000002880445603
 20
38.0999997005899829
 30
0.0
 11
-9.6000002880445603
 21
32.89999970058998
 31
0.0
  0
LINE
  5
1E6
100
AcDbEntity
100
AcDbLine
  8
0
 62
256
370
-1
  6
ByLayer
 10
-4.400000288044561
 20
38.0999997005899829
 30
0.0
 11
-4.400000288044561
 21
32.89999970058998
 31
0.0
  0
LINE
  5
1E7
100
AcDbEntity
100
AcDbLine
  8
0
 62
256
370
-1
  6
ByLayer
 10
-4.400000288044561
 20
32.89999970058998
 30
0.0
 11
-9.6000002880445603
 21
32.89999970058998
 31
0.0
  0
CIRCLE
  5
1E8
100
AcDbEntity
100
AcDbCircle
  8
0
 62
256
370
-1
  6
ByLayer
 10
5.5311985960988732
 20
35.4999997005899814
 30
0.0
 40
2.2000000000000002
  0
CIRCLE
  5
1E9
100
AcDbEntity
100
AcDbCircle
  8
0
 62
256
370
-1
  6
ByLayer
 10
-19.5000002880445606
 20
35.4999997005899814
 30
0.0
 40
2.2000000000000002
  0
LINE
  5
1EA
100
AcDbEntity
100
AcDbLine
  8
0
 62
256
370
-1
  6
ByLayer
 10
0.9999997119554302
 20
28.9999997005899814
 30
0.0
 11
-25.0000002880445606
 21
28.9999997005899814
 31
0.0
  0
LINE
  5
1EB
100
AcDbEntity
100
AcDbLine
  8
0
 62
256
370
-1
  6
ByLayer
 10
8.9999997119554287
 20
20.9999997005899708
 30
0.0
 11
0.9999997119554302
 21
28.9999997005899814
 31
0.0
  0
ARC
  5
1EC
100
AcDbEntity
  8
0
 62
256
370
-1
  6
ByLayer
100
AcDbCircle
 10
22.9999997119554287
 20
20.9999997005899495
 30
0.0
 40
14.0
100
AcDbArc
 50
179.999999999999801
 51
270.0
  0
LINE
  5
1ED
100
AcDbEntity
100
AcDbLine
  8
0
 62
256
370
-1
  6
ByLayer
 10
22.9999997119554287
 20
6.9999997005899433
 30
0.0
 11
39.6862912129707084
 21
6.999999700589945
 31
0.0
  0
ARC
  5
1EE
100
AcDbEntity
  8
0
 62
256
370
-1
  6
ByLayer
100
AcDbCircle
 10
50.9999997119554322
 20
20.9999997005899992
 30
0.0
 40
18.0000000000000213
100
AcDbArc
 50
231.0575587310187871
 51
270.0
  0
LINE
  5
1EF
100
AcDbEntity
100
AcDbLine
  8
0
 62
256
370
-1
  6
ByLayer
 10
50.9999997119554322
 20
2.999999700589977
 30
0.0
 11
76.0999997119554337
 21
2.9999997005899801
 31
0.0
  0
CIRCLE
  5
1F0
100
AcDbEntity
100
AcDbCircle
  8
0
 62
256
370
-1
  6
ByLayer
 10
73.4999997119554251
 20
10.9999997005899495
 30
0.0
 40
2.2000000000000002
  0
CIRCLE
  5
1F1
100
AcDbEntity
100
AcDbCircle
  8
0
 62
256
370
-1
  6
ByLayer
 10
73.4999997119554251
 20
30.9999997005899601
 30
0.0
 40
2.2000000000000002
  0
LINE
  5
1F2
100
AcDbEntity
100
AcDbLine
  8
0
 62
256
370
-1
  6
ByLayer
 10
76.0999997119554337
 20
16.8999997005899516
 30
0.0
 11
76.0999997119554337
 21
25.0999997005899615
 31
0.0
  0
LINE
  5
1F3
100
AcDbEntity
100
AcDbLine
  8
0
 62
256
370
-1
  6
ByLayer
 10
70.899999711955445
 20
16.8999997005899516
 30
0.0
 11
70.899999711955445
 21
25.0999997005899615
 31
0.0
  0
LINE
  5
1F4
100
AcDbEntity
100
AcDbLine
  8
0
 62
256
370
-1
  6
ByLayer
 10
76.0999997119554337
 20
16.8999997005899516
 30
0.0
 11
70.899999711955445
 21
16.8999997005899516
 31
0.0
  0
LINE
  5
1F5
100
AcDbEntity
100
AcDbLine
  8
0
 62
256
370
-1
  6
ByLayer
 10
76.0999997119554337
 20
25.0999997005899615
 30
0.0
 11
70.899999711955445
 21
25.0999997005899615
 31
0.0
  0
ARC
  5
1F6
100
AcDbEntity
  8
0
 62
256
370
-1
  6
ByLayer
100
AcDbCircle
 10
76.0999997119554337
 20
5.999999700589985
 30
0.0
 40
2.9999999999999951
100
AcDbArc
 50
270.0
 51
0.0
  0
ARC
  5
1F7
100
AcDbEntity
  8
0
 62
256
370
-1
  6
ByLayer
100
AcDbCircle
 10
76.0999997119554337
 20
38.9999997005899601
 30
0.0
 40
2.9999999999999951
100
AcDbArc
 50
0.0
 51
90.0
  0
ARC
  5
1F8
100
AcDbEntity
  8
0
 62
256
370
-1
  6
ByLayer
100
AcDbCircle
 10
-25.0000002880445606
 20
31.9999997005899708
 30
0.0
 40
2.9999999999999849
100
AcDbArc
 50
179.999999999999801
 51
270.0000000000001137
  0
ARC
  5
1F9
100
AcDbEntity
  8
0
 62
256
370
-1
  6
ByLayer
100
AcDbCircle
 10
-25.0000002880445606
 20
38.9999997005899601
 30
0.0
 40
2.9999999999999951
100
AcDbArc
 50
90.0
 51
180.0
  0
ENDBLK
  5
1FA
100
AcDbEntity
  8
0
100
AcDbBlockEnd
  0
BLOCK
  5
1FB
100
AcDbEntity
  8
0
100
AcDbBlockBegin
  2
x_mount2
 70
0
 10
0.0
 20
0.0
 30
0.0
  3
x_mount2
  1

  0
CIRCLE
  5
1FC
100
AcDbEntity
100
AcDbCircle
  8
0
 62
256
370
-1
  6
ByLayer
 10
51.2268099363560694
 20
51.7013438800156493
 30
0.0
 40
2.5000004248191741
  0
CIRCLE
  5
1FD
100
AcDbEntity
100
AcDbCircle
  8
0
 62
256
370
-1
  6
ByLayer
 10
44.2268099363560623
 20
39.5769882270335103
 30
0.0
 40
5.5
  0
CIRCLE
  5
1FE
100
AcDbEntity
100
AcDbCircle
  8
0
 62
256
370
-1
  6
ByLayer
 10
72.2268099363560765
 20
39.576988227033489
 30
0.0
 40
8.0
  0
LINE
  5
1FF
100
AcDbEntity
100
AcDbLine
  8
0
 62
256
370
-1
  6
ByLayer
 10
19.1268099363560786
 20
67.5769882270334961
 30
0.0
 11
83.2268099363560765
 21
67.5769882270334534
 31
0.0
  0
CIRCLE
  5
200
100
AcDbEntity
100
AcDbCircle
  8
0
 62
256
370
-1
  6
ByLayer
 10
51.2268099363560481
 20
27.4526325740513784
 30
0.0
 40
2.5000004248191741
  0
CIRCLE
  5
201
100
AcDbEntity
100
AcDbCircle
  8
0
 62
256
370
-1
  6
ByLayer
 10
30.2268099363560587
 20
39.576988227033489
 30
0.0
 40
2.5000004248191741
  0
LINE
  5
202
100
AcDbEntity
100
AcDbLine
  8
0
 62
256
370
-1
  6
ByLayer
 10
16.1268099363560715
 20
64.5769882270334961
 30
0.0
 11
16.1268099363560609
 21
24.5769882270335387
 31
0.0
  0
LINE
  5
203
100
AcDbEntity
100
AcDbLine
  8
0
 62
256
370
-1
  6
ByLayer
 10
67.8268099363560708
 20
64.6769882270334904
 30
0.0
 11
62.626809936356068
 21
64.6769882270334904
 31
0.0
  0
LINE
  5
204
100
AcDbEntity
100
AcDbLine
  8
0
 62
256
370
-1
  6
ByLayer
 10
67.8268099363560708
 20
64.6769882270334904
 30
0.0
 11
67.8268099363560708
 21
59.4769882270335088
 31
0.0
  0
LINE
  5
205
100
AcDbEntity
100
AcDbLine
  8
0
 62
256
370
-1
  6
ByLayer
 10
62.626809936356068
 20
64.6769882270334904
 30
0.0
 11
62.626809936356068
 21
59.4769882270335088
 31
0.0
  0
LINE
  5
206
100
AcDbEntity
100
AcDbLine
  8
0
 62
256
370
-1
  6
ByLayer
 10
62.626809936356068
 20
59.4769882270335088
 30
0.0
 11
67.8268099363560708
 21
59.4769882270335088
 31
0.0
  0
CIRCLE
  5
207
100
AcDbEntity
100
AcDbCircle
  8
0
 62
256
370
-1
  6
ByLayer
 10
52.6956110522126266
 20
62.0769882270335032
 30
0.0
 40
2.2000000000000002
  0
CIRCLE
  5
208
100
AcDbEntity
100
AcDbCircle
  8
0
 62
256
370
-1
  6
ByLayer
 10
77.7268099363560623
 20
62.076988227033489
 30
0.0
 40
2.2000000000000002
  0
ARC
  5
209
100
AcDbEntity
  8
0
 62
256
370
-1
  6
ByLayer
100
AcDbCircle
 10
72.2268099363560765
 20
39.5769882270334818
 30
0.0
 40
14.0
100
AcDbArc
 50
270.0
 51
0.0000000000002036
  0
LINE
  5
20A
100
AcDbEntity
100
AcDbLine
  8
0
 62
256
370
-1
  6
ByLayer
 10
72.2268099363560765
 20
25.5769882270334712
 30
0.0
 11
55.5405184353407932
 21
25.5769882270334783
 31
0.0
  0
ARC
  5
20B
100
AcDbEntity
  8
0
 62
256
370
-1
  6
ByLayer
100
AcDbCircle
 10
44.2268099363560623
 20
39.5769882270335387
 30
0.0
 40
18.0000000000000213
100
AcDbArc
 50
270.0
 51
308.9424412689812129
  0
LINE
  5
20C
100
AcDbEntity
100
AcDbLine
  8
0
 62
256
370
-1
  6
ByLayer
 10
44.2268099363560481
 20
21.5769882270335209
 30
0.0
 11
19.1268099363560715
 21
21.5769882270335316
 31
0.0
  0
CIRCLE
  5
20D
100
AcDbEntity
100
AcDbCircle
  8
0
 62
256
370
-1
  6
ByLayer
 10
21.7268099363560587
 20
29.5769882270335103
 30
0.0
 40
2.2000000000000002
  0
CIRCLE
  5
20E
100
AcDbEntity
100
AcDbCircle
  8
0
 62
256
370
-1
  6
ByLayer
 10
21.7268099363560587
 20
49.576988227033489
 30
0.0
 40
2.2000000000000002
  0
LINE
  5
20F
100
AcDbEntity
100
AcDbLine
  8
0
 62
256
370
-1
  6
ByLayer
 10
19.1268099363560715
 20
35.4769882270335017
 30
0.0
 11
19.1268099363560715
 21
43.6769882270334975
 31
0.0
  0
LINE
  5
210
100
AcDbEntity
100
AcDbLine
  8
0
 62
256
370
-1
  6
ByLayer
 10
24.3268099363560601
 20
35.4769882270335017
 30
0.0
 11
24.3268099363560601
 21
43.6769882270334975
 31
0.0
  0
LINE
  5
211
100
AcDbEntity
100
AcDbLine
  8
0
 62
256
370
-1
  6
ByLayer
 10
19.1268099363560715
 20
35.4769882270335017
 30
0.0
 11
24.3268099363560601
 21
35.4769882270335017
 31
0.0
  0
LINE
  5
212
100
AcDbEntity
100
AcDbLine
  8
0
 62
256
370
-1
  6
ByLayer
 10
19.1268099363560715
 20
43.6769882270334975
 30
0.0
 11
24.3268099363560601
 21
43.6769882270334975
 31
0.0
  0
ARC
  5
213
100
AcDbEntity
  8
0
 62
256
370
-1
  6
ByLayer
100
AcDbCircle
 10
19.1268099363560715
 20
24.5769882270335387
 30
0.0
 40
2.9999999999999951
100
AcDbArc
 50
180.0
 51
270.0
  0
ARC
  5
214
100
AcDbEntity
  8
0
 62
256
370
-1
  6
ByLayer
100
AcDbCircle
 10
19.1268099363560715
 20
64.5769882270334961
 30
0.0
 40
2.9999999999999951
100
AcDbArc
 50
90.0
 51
180.0
  0
LINE
  5
215
100
AcDbEntity
100
AcDbLine
  8
0
 62
256
370
-1
  6
ByLayer
 10
86.2268099363560765
 20
39.5769882270335316
 30
0.0
 11
86.2268099363560765
 21
64.5769882270334534
 31
0.0
  0
ARC
  5
216
100
AcDbEntity
  8
0
 62
256
370
-1
  6
ByLayer
100
AcDbCircle
 10
83.2268099363560765
 20
64.5769882270334534
 30
0.0
 40
2.9999999999999951
100
AcDbArc
 50
0.0
 51
90.0
  0
ENDBLK
  5
217
100
AcDbEntity
  8
0
100
AcDbBlockEnd
  0
BLOCK
  5
218
100
AcDbEntity
  8
0
100
AcDbBlockBegin
  2
belt_clamp
 70
0
 10
0.0
 20
0.0
 30
0.0
  3
belt_clamp
  1

  0
CIRCLE
  5
219
100
AcDbEntity
100
AcDbCircle
  8
0
 62
256
370
-1
  6
ByLayer
 10
3.994065002636578
 20
16.0033574409744688
 30
0.0
 40
2.1000000000000001
  0
CIRCLE
  5
21A
100
AcDbEntity
100
AcDbCircle
  8
0
 62
256
370
-1
  6
ByLayer
 10
3.994065002636578
 20
4.0033574409744697
 30
0.0
 40
2.1000000000000001
  0
LINE
  5
21B
100
AcDbEntity
100
AcDbLine
  8
0
 62
256
370
-1
  6
CONTINUOUS
 10
-0.0059349973634184
 20
19.0033574409744794
 30
0.0
 11
-0.0059349973634184
 21
1.0033574409744721
 31
0.0
  0
LINE
  5
21C
100
AcDbEntity
100
AcDbLine
  8
0
 62
256
370
-1
  6
CONTINUOUS
 10
7.9940650026365772
 20
19.0033574409744794
 30
0.0
 11
7.9940650026365772
 21
1.0033574409744721
 31
0.0
  0
LINE
  5
21D
100
AcDbEntity
100
AcDbLine
  8
0
 62
256
370
-1
  6
CONTINUOUS
 10
0.9940650026365743
 20
0.0033574409744865
 30
0.0
 11
6.994065002636586
 21
0.0033574409744865
 31
0.0
  0
ARC
  5
21E
100
AcDbEntity
  8
0
 62
256
370
-1
  6
CONTINUOUS
100
AcDbCircle
 10
6.994065002636586
 20
1.0033574409744741
 30
0.0
 40
0.9999999999999927
100
AcDbArc
 50
270.0
 51
359.9999999999996021
  0
ARC
  5
21F
100
AcDbEntity
  8
0
 62
256
370
-1
  6
CONTINUOUS
100
AcDbCircle
 10
0.9940650026365743
 20
1.0033574409744741
 30
0.0
 40
0.9999999999999927
100
AcDbArc
 50
180.0000000000003979
 51
270.0
  0
LINE
  5
220
100
AcDbEntity
100
AcDbLine
  8
0
 62
256
370
-1
  6
CONTINUOUS
 10
0.9940650026365743
 20
20.0033574409744688
 30
0.0
 11
6.994065002636586
 21
20.0033574409744688
 31
0.0
  0
ARC
  5
221
100
AcDbEntity
  8
0
 62
256
370
-1
  6
CONTINUOUS
100
AcDbCircle
 10
6.994065002636586
 20
19.0033574409744794
 30
0.0
 40
0.9999999999999927
100
AcDbArc
 50
0.0000000000004071
 51
90.0000000000000568
  0
ARC
  5
222
100
AcDbEntity
  8
0
 62
256
370
-1
  6
CONTINUOUS
100
AcDbCircle
 10
0.9940650026365743
 20
19.0033574409744794
 30
0.0
 40
0.9999999999999927
100
AcDbArc
 50
90.0000000000000568
 51
179.9999999999996021
  0
ENDBLK
  5
223
100
AcDbEntity
  8
0
100
AcDbBlockEnd
  0
BLOCK
  5
224
100
AcDbEntity
  8
0
100
AcDbBlockBegin
  2
y_motor_mount
 70
0
 10
0.0
 20
0.0
 30
0.0
  3
y_motor_mount
  1

  0
CIRCLE
  5
225
100
AcDbEntity
100
AcDbCircle
  8
0
 62
256
370
-1
  6
ByLayer
 10
40.0800588633894606
 20
7.5000000756263034
 30
0.0
 40
2.0
  0
CIRCLE
  5
226
100
AcDbEntity
100
AcDbCircle
  8
0
 62
256
370
-1
  6
ByLayer
 10
71.0800588633890129
 20
38.5000000756263105
 30
0.0
 40
2.0
  0
CIRCLE
  5
227
100
AcDbEntity
100
AcDbCircle
  8
0
 62
256
370
-1
  6
ByLayer
 10
40.0800588633890129
 20
38.5000000756263105
 30
0.0
 40
2.0
  0
LINE
  5
228
100
AcDbEntity
100
AcDbLine
  8
0
 62
256
370
-1
  6
ByLayer
 10
34.5800588633894677
 20
2.000000075626303
 30
0.0
 11
51.5800588633894677
 21
2.0000000756264869
 31
0.0
  0
LINE
  5
229
100
AcDbEntity
100
AcDbLine
  8
0
 62
256
370
-1
  6
ByLayer
 10
30.8074213356908402
 20
48.5000000756263105
 30
0.0
 11
76.105394495926916
 21
44.0674053761540776
 31
0.0
  0
CIRCLE
  5
22A
100
AcDbEntity
100
AcDbCircle
  8
0
 62
256
370
-1
  6
ByLayer
 10
20.8074213356908295
 20
35.0000000756263034
 30
0.0
 40
4.2000000000000002
  0
LINE
  5
22B
100
AcDbEntity
100
AcDbLine
  8
0
 62
256
370
-1
  6
ByLayer
 10
5.0000000460504452
 20
22.4000000756262985
 30
0.0
 11
0.0000000460504452
 21
22.4000000756262985
 31
0.0
  0
LINE
  5
22C
100
AcDbEntity
100
AcDbLine
  8
0
 62
256
370
-1
  6
ByLayer
 10
0.0000000460504452
 20
22.4000000756262985
 30
0.0
 11
0.0000000460504452
 21
17.5000000756262999
 31
0.0
  0
LINE
  5
22D
100
AcDbEntity
100
AcDbLine
  8
0
 62
256
370
-1
  6
ByLayer
 10
0.0000000460504452
 20
17.5000000756262999
 30
0.0
 11
34.5800588633894677
 21
2.000000075626303
 31
0.0
  0
LINE
  5
22E
100
AcDbEntity
100
AcDbLine
  8
0
 62
256
370
-1
  6
ByLayer
 10
5.0000000460504452
 20
43.6000000756262978
 30
0.0
 11
0.0000000460504452
 21
43.6000000756262978
 31
0.0
  0
LINE
  5
22F
100
AcDbEntity
100
AcDbLine
  8
0
 62
256
370
-1
  6
ByLayer
 10
0.0000000460504452
 20
43.6000000756262978
 30
0.0
 11
0.0000000460504449
 21
46.5000000756263034
 31
0.0
  0
LINE
  5
230
100
AcDbEntity
100
AcDbLine
  8
0
 62
256
370
-1
  6
ByLayer
 10
2.0000000460504448
 20
48.5000000756263105
 30
0.0
 11
30.8074213356908402
 21
48.5000000756263105
 31
0.0
  0
LINE
  5
231
100
AcDbEntity
100
AcDbLine
  8
0
 62
256
370
-1
  6
CONTINUOUS
 10
5.0000000460504452
 20
29.0000000756262999
 30
0.0
 11
9.0000000460504452
 21
29.0000000756262999
 31
0.0
  0
LINE
  5
232
100
AcDbEntity
100
AcDbLine
  8
0
 62
256
370
-1
  6
CONTINUOUS
 10
5.0000000460504452
 20
25.0000000756262999
 30
0.0
 11
9.0000000460504452
 21
25.0000000756262999
 31
0.0
  0
LINE
  5
233
100
AcDbEntity
100
AcDbLine
  8
0
 62
256
370
-1
  6
CONTINUOUS
 10
9.0000000460504452
 20
29.0000000756262999
 30
0.0
 11
9.0000000460504452
 21
30.5000000756262999
 31
0.0
  0
LINE
  5
234
100
AcDbEntity
100
AcDbLine
  8
0
 62
256
370
-1
  6
CONTINUOUS
 10
9.0000000460504452
 20
30.5000000756262999
 30
0.0
 11
12.0000000460504399
 21
30.5000000756262999
 31
0.0
  0
LINE
  5
235
100
AcDbEntity
100
AcDbLine
  8
0
 62
256
370
-1
  6
CONTINUOUS
 10
12.0000000460504399
 20
30.5000000756262999
 30
0.0
 11
12.0000000460504399
 21
23.5000000756263105
 31
0.0
  0
LINE
  5
236
100
AcDbEntity
100
AcDbLine
  8
0
 62
256
370
-1
  6
CONTINUOUS
 10
9.0000000460504452
 20
23.5000000756263105
 30
0.0
 11
9.0000000460504452
 21
25.0000000756262999
 31
0.0
  0
LINE
  5
237
100
AcDbEntity
100
AcDbLine
  8
0
 62
256
370
-1
  6
CONTINUOUS
 10
9.0000000460504452
 20
23.5000000756263105
 30
0.0
 11
12.0000000460504399
 21
23.5000000756263105
 31
0.0
  0
LINE
  5
238
100
AcDbEntity
100
AcDbLine
  8
0
 62
256
370
-1
  6
CONTINUOUS
 10
5.0000000460504452
 20
41.0000000756263034
 30
0.0
 11
9.0000000460504452
 21
41.0000000756263034
 31
0.0
  0
LINE
  5
239
100
AcDbEntity
100
AcDbLine
  8
0
 62
256
370
-1
  6
CONTINUOUS
 10
5.0000000460504452
 20
37.0000000756263105
 30
0.0
 11
9.0000000460504452
 21
37.0000000756263105
 31
0.0
  0
LINE
  5
23A
100
AcDbEntity
100
AcDbLine
  8
0
 62
256
370
-1
  6
CONTINUOUS
 10
9.0000000460504452
 20
41.0000000756263034
 30
0.0
 11
9.0000000460504452
 21
42.5000000756263034
 31
0.0
  0
LINE
  5
23B
100
AcDbEntity
100
AcDbLine
  8
0
 62
256
370
-1
  6
CONTINUOUS
 10
9.0000000460504452
 20
42.5000000756263034
 30
0.0
 11
12.0000000460504399
 21
42.5000000756263034
 31
0.0
  0
LINE
  5
23C
100
AcDbEntity
100
AcDbLine
  8
0
 62
256
370
-1
  6
CONTINUOUS
 10
12.0000000460504399
 20
42.5000000756263034
 30
0.0
 11
12.0000000460504399
 21
35.5000000756263034
 31
0.0
  0
LINE
  5
23D
100
AcDbEntity
100
AcDbLine
  8
0
 62
256
370
-1
  6
CONTINUOUS
 10
9.0000000460504452
 20
35.5000000756263034
 30
0.0
 11
9.0000000460504452
 21
37.0000000756263105
 31
0.0
  0
LINE
  5
23E
100
AcDbEntity
100
AcDbLine
  8
0
 62
256
370
-1
  6
CONTINUOUS
 10
9.0000000460504452
 20
35.5000000756263034
 30
0.0
 11
12.0000000460504399
 21
35.5000000756263034
 31
0.0
  0
LINE
  5
23F
100
AcDbEntity
100
AcDbLine
  8
0
 62
256
370
-1
  6
ByLayer
 10
5.0000000460504452
 20
41.0000000756263034
 30
0.0
 11
5.0000000460504452
 21
43.6000000756262978
 31
0.0
  0
LINE
  5
240
100
AcDbEntity
100
AcDbLine
  8
0
 62
256
370
-1
  6
ByLayer
 10
5.0000000460504452
 20
37.0000000756263105
 30
0.0
 11
5.0000000460504452
 21
29.0000000756262999
 31
0.0
  0
LINE
  5
241
100
AcDbEntity
100
AcDbLine
  8
0
 62
256
370
-1
  6
ByLayer
 10
5.0000000460504452
 20
25.0000000756262999
 30
0.0
 11
5.0000000460504452
 21
22.4000000756262985
 31
0.0
  0
LINE
  5
242
100
AcDbEntity
100
AcDbLine
  8
0
 62
256
370
-1
  6
ByLayer
 10
55.5800588633894606
 20
6.0000000756265299
 30
0.0
 11
55.5800588633894606
 21
13.0000000756262999
 31
0.0
  0
ARC
  5
243
100
AcDbEntity
  8
0
 62
256
370
-1
  6
ByLayer
100
AcDbCircle
 10
55.5800588633894606
 20
23.0000000756262999
 30
0.0
 40
10.0
100
AcDbArc
 50
90.0
 51
270.0
  0
LINE
  5
244
100
AcDbEntity
100
AcDbLine
  8
0
 62
256
370
-1
  6
ByLayer
 10
55.5800588633894606
 20
33.0000000756263034
 30
0.0
 11
76.1790783769817921
 21
33.0000000756263034
 31
0.0
  0
ARC
  5
245
100
AcDbEntity
  8
0
 62
256
370
-1
  6
ByLayer
100
AcDbCircle
 10
71.0800588633890271
 20
38.5000000756263034
 30
0.0
 40
7.4999999999999813
100
AcDbArc
 50
312.8334280660671993
 51
47.9294811998747505
  0
ARC
  5
246
100
AcDbEntity
  8
0
 62
256
370
-1
  6
ByLayer
100
AcDbCircle
 10
51.5800588633894392
 20
6.0000000756265086
 30
0.0
 40
4.0000000000000213
100
AcDbArc
 50
270.0000000000002842
 51
359.9999999999998863
  0
ARC
  5
247
100
AcDbEntity
  8
0
 62
256
370
-1
  6
ByLayer
100
AcDbCircle
 10
2.0000000460504448
 20
46.5000000756262892
 30
0.0
 40
2.0000000000000071
100
AcDbArc
 50
90.0000000000000284
 51
180.0
  0
ENDBLK
  5
248
100
AcDbEntity
  8
0
100
AcDbBlockEnd
  0
BLOCK
  5
249
100
AcDbEntity
  8
0
100
AcDbBlockBegin
  2
y_idler
 70
0
 10
0.0
 20
0.0
 30
0.0
  3
y_idler
  1

  0
LINE
  5
24A
100
AcDbEntity
100
AcDbLine
  8
0
 62
256
370
-1
  6
ByLayer
 10
5.0000000460504452
 20
22.4000000756262985
 30
0.0
 11
0.0000000460504452
 21
22.4000000756262985
 31
0.0
  0
LINE
  5
24B
100
AcDbEntity
100
AcDbLine
  8
0
 62
256
370
-1
  6
ByLayer
 10
0.0000000460504452
 20
22.4000000756262985
 30
0.0
 11
0.0000000460504454
 21
19.5000000756262999
 31
0.0
  0
LINE
  5
24C
100
AcDbEntity
100
AcDbLine
  8
0
 62
256
370
-1
  6
ByLayer
 10
5.0000000460504452
 20
43.6000000756262978
 30
0.0
 11
0.0000000460504452
 21
43.6000000756262978
 31
0.0
  0
LINE
  5
24D
100
AcDbEntity
100
AcDbLine
  8
0
 62
256
370
-1
  6
ByLayer
 10
0.0000000460504452
 20
43.6000000756262978
 30
0.0
 11
0.0000000460504449
 21
46.5000000756263034
 31
0.0
  0
LINE
  5
24E
100
AcDbEntity
100
AcDbLine
  8
0
 62
256
370
-1
  6
ByLayer
 10
2.0000000460504448
 20
48.5000000756263105
 30
0.0
 11
27.9574213356908317
 21
48.5000000756263105
 31
0.0
  0
LINE
  5
24F
100
AcDbEntity
100
AcDbLine
  8
0
 62
256
370
-1
  6
CONTINUOUS
 10
5.0000000460504452
 20
29.0000000756262999
 30
0.0
 11
9.0000000460504452
 21
29.0000000756262999
 31
0.0
  0
LINE
  5
250
100
AcDbEntity
100
AcDbLine
  8
0
 62
256
370
-1
  6
CONTINUOUS
 10
5.0000000460504452
 20
25.0000000756262999
 30
0.0
 11
9.0000000460504452
 21
25.0000000756262999
 31
0.0
  0
LINE
  5
251
100
AcDbEntity
100
AcDbLine
  8
0
 62
256
370
-1
  6
CONTINUOUS
 10
9.0000000460504452
 20
29.0000000756262999
 30
0.0
 11
9.0000000460504452
 21
30.5000000756262999
 31
0.0
  0
LINE
  5
252
100
AcDbEntity
100
AcDbLine
  8
0
 62
256
370
-1
  6
CONTINUOUS
 10
9.0000000460504452
 20
30.5000000756262999
 30
0.0
 11
12.0000000460504399
 21
30.5000000756262999
 31
0.0
  0
LINE
  5
253
100
AcDbEntity
100
AcDbLine
  8
0
 62
256
370
-1
  6
CONTINUOUS
 10
12.0000000460504399
 20
30.5000000756262999
 30
0.0
 11
12.0000000460504399
 21
23.5000000756263105
 31
0.0
  0
LINE
  5
254
100
AcDbEntity
100
AcDbLine
  8
0
 62
256
370
-1
  6
CONTINUOUS
 10
9.0000000460504452
 20
23.5000000756263105
 30
0.0
 11
9.0000000460504452
 21
25.0000000756262999
 31
0.0
  0
LINE
  5
255
100
AcDbEntity
100
AcDbLine
  8
0
 62
256
370
-1
  6
CONTINUOUS
 10
9.0000000460504452
 20
23.5000000756263105
 30
0.0
 11
12.0000000460504399
 21
23.5000000756263105
 31
0.0
  0
LINE
  5
256
100
AcDbEntity
100
AcDbLine
  8
0
 62
256
370
-1
  6
CONTINUOUS
 10
5.0000000460504452
 20
41.0000000756263034
 30
0.0
 11
9.0000000460504452
 21
41.0000000756263034
 31
0.0
  0
LINE
  5
257
100
AcDbEntity
100
AcDbLine
  8
0
 62
256
370
-1
  6
CONTINUOUS
 10
5.0000000460504452
 20
37.0000000756263105
 30
0.0
 11
9.0000000460504452
 21
37.0000000756263105
 31
0.0
  0
LINE
  5
258
100
AcDbEntity
100
AcDbLine
  8
0
 62
256
370
-1
  6
CONTINUOUS
 10
9.0000000460504452
 20
41.0000000756263034
 30
0.0
 11
9.0000000460504452
 21
42.5000000756263034
 31
0.0
  0
LINE
  5
259
100
AcDbEntity
100
AcDbLine
  8
0
 62
256
370
-1
  6
CONTINUOUS
 10
9.0000000460504452
 20
42.5000000756263034
 30
0.0
 11
12.0000000460504399
 21
42.5000000756263034
 31
0.0
  0
LINE
  5
25A
100
AcDbEntity
100
AcDbLine
  8
0
 62
256
370
-1
  6
CONTINUOUS
 10
12.0000000460504399
 20
42.5000000756263034
 30
0.0
 11
12.0000000460504399
 21
35.5000000756263034
 31
0.0
  0
LINE
  5
25B
100
AcDbEntity
100
AcDbLine
  8
0
 62
256
370
-1
  6
CONTINUOUS
 10
9.0000000460504452
 20
35.5000000756263034
 30
0.0
 11
9.0000000460504452
 21
37.0000000756263105
 31
0.0
  0
LINE
  5
25C
100
AcDbEntity
100
AcDbLine
  8
0
 62
256
370
-1
  6
CONTINUOUS
 10
9.0000000460504452
 20
35.5000000756263034
 30
0.0
 11
12.0000000460504399
 21
35.5000000756263034
 31
0.0
  0
LINE
  5
25D
100
AcDbEntity
100
AcDbLine
  8
0
 62
256
370
-1
  6
ByLayer
 10
5.0000000460504452
 20
41.0000000756263034
 30
0.0
 11
5.0000000460504452
 21
43.6000000756262978
 31
0.0
  0
LINE
  5
25E
100
AcDbEntity
100
AcDbLine
  8
0
 62
256
370
-1
  6
ByLayer
 10
5.0000000460504452
 20
37.0000000756263105
 30
0.0
 11
5.0000000460504452
 21
29.0000000756262999
 31
0.0
  0
LINE
  5
25F
100
AcDbEntity
100
AcDbLine
  8
0
 62
256
370
-1
  6
ByLayer
 10
5.0000000460504452
 20
25.0000000756262999
 30
0.0
 11
5.0000000460504452
 21
22.4000000756262985
 31
0.0
  0
ARC
  5
260
100
AcDbEntity
  8
0
 62
256
370
-1
  6
ByLayer
100
AcDbCircle
 10
2.0000000460504448
 20
46.5000000756262892
 30
0.0
 40
2.0000000000000071
100
AcDbArc
 50
90.0000000000000284
 51
180.0
  0
ARC
  5
261
100
AcDbEntity
  8
0
 62
256
370
-1
  6
ByLayer
100
AcDbCircle
 10
27.9574213356908317
 20
43.5000000756263034
 30
0.0
 40
5.0
100
AcDbArc
 50
0.0
 51
90.0
  0
LINE
  5
262
100
AcDbEntity
100
AcDbLine
  8
0
 62
256
370
-1
  6
ByLayer
 10
2.000000046050451
 20
17.5000000756262892
 30
0.0
 11
27.9574213356908388
 21
17.5000000756262892
 31
0.0
  0
ARC
  5
263
100
AcDbEntity
  8
0
 62
256
370
-1
  6
ByLayer
100
AcDbCircle
 10
2.0000000460504519
 20
19.5000000756262999
 30
0.0
 40
2.0000000000000071
100
AcDbArc
 50
180.0
 51
270.0
  0
LINE
  5
264
100
AcDbEntity
100
AcDbLine
  8
0
 62
256
370
-1
  6
ByLayer
 10
32.9574213356908388
 20
43.5000000756263034
 30
0.0
 11
32.9574213356908388
 21
22.5000000756262999
 31
0.0
  0
ARC
  5
265
100
AcDbEntity
  8
0
 62
256
370
-1
  6
ByLayer
100
AcDbCircle
 10
27.9574213356908388
 20
22.5000000756262999
 30
0.0
 40
5.0
100
AcDbArc
 50
270.0
 51
0.0
  0
CIRCLE
  5
266
100
AcDbEntity
100
AcDbCircle
  8
0
 62
256
370
-1
  6
ByLayer
 10
22.8074213356908295
 20
33.0000000756263034
 30
0.0
 40
6.1500000000000004
  0
ENDBLK
  5
267
100
AcDbEntity
  8
0
100
AcDbBlockEnd
  0
BLOCK
  5
268
100
AcDbEntity
  8
0
100
AcDbBlockBegin
  2
x_idler
 70
0
 10
0.0
 20
0.0
 30
0.0
  3
x_idler
  1

  0
LINE
  5
269
100
AcDbEntity
100
AcDbLine
  8
0
 62
256
370
-1
  6
ByLayer
 10
-0.0000003831646609
 20
4.8999996309497069
 30
0.0
 11
-0.0000003831646609
 21
38.8062915201190606
 31
0.0
  0
LINE
  5
26A
100
AcDbEntity
100
AcDbLine
  8
0
 62
256
370
-1
  6
ByLayer
 10
41.999999616835332
 20
4.8999996309497069
 30
0.0
 11
41.999999616835332
 21
38.8062915201190606
 31
0.0
  0
LINE
  5
26B
100
AcDbEntity
100
AcDbLine
  8
0
 62
256
370
-1
  6
CONTINUOUS
 10
6.4999996168353391
 20
4.8999996309497069
 30
0.0
 11
6.4999996168353391
 21
8.8999996309497078
 31
0.0
  0
LINE
  5
26C
100
AcDbEntity
100
AcDbLine
  8
0
 62
256
370
-1
  6
CONTINUOUS
 10
10.4999996168353409
 20
4.8999996309497069
 30
0.0
 11
10.4999996168353409
 21
8.8999996309497078
 31
0.0
  0
LINE
  5
26D
100
AcDbEntity
100
AcDbLine
  8
0
 62
256
370
-1
  6
CONTINUOUS
 10
6.4999996168353391
 20
8.8999996309497078
 30
0.0
 11
4.9999996168353391
 21
8.8999996309497078
 31
0.0
  0
LINE
  5
26E
100
AcDbEntity
100
AcDbLine
  8
0
 62
256
370
-1
  6
CONTINUOUS
 10
4.9999996168353391
 20
8.8999996309497078
 30
0.0
 11
4.9999996168353391
 21
11.8999996309497096
 31
0.0
  0
LINE
  5
26F
100
AcDbEntity
100
AcDbLine
  8
0
 62
256
370
-1
  6
CONTINUOUS
 10
4.9999996168353391
 20
11.8999996309497096
 30
0.0
 11
11.9999996168353409
 21
11.8999996309497096
 31
0.0
  0
LINE
  5
270
100
AcDbEntity
100
AcDbLine
  8
0
 62
256
370
-1
  6
CONTINUOUS
 10
11.9999996168353409
 20
8.8999996309497078
 30
0.0
 11
10.4999996168353409
 21
8.8999996309497078
 31
0.0
  0
LINE
  5
271
100
AcDbEntity
100
AcDbLine
  8
0
 62
256
370
-1
  6
CONTINUOUS
 10
11.9999996168353409
 20
8.8999996309497078
 30
0.0
 11
11.9999996168353409
 21
11.8999996309497096
 31
0.0
  0
LINE
  5
272
100
AcDbEntity
100
AcDbLine
  8
0
 62
256
370
-1
  6
ByLayer
 10
-0.0000003831646609
 20
4.8999996309497069
 30
0.0
 11
6.4999996168353391
 21
4.8999996309497069
 31
0.0
  0
LINE
  5
273
100
AcDbEntity
100
AcDbLine
  8
0
 62
256
370
-1
  6
CONTINUOUS
 10
35.4999996168353391
 20
4.8999996309497069
 30
0.0
 11
35.4999996168353391
 21
8.8999996309497078
 31
0.0
  0
LINE
  5
274
100
AcDbEntity
100
AcDbLine
  8
0
 62
256
370
-1
  6
CONTINUOUS
 10
31.4999996168353391
 20
4.8999996309497069
 30
0.0
 11
31.4999996168353391
 21
8.8999996309497078
 31
0.0
  0
LINE
  5
275
100
AcDbEntity
100
AcDbLine
  8
0
 62
256
370
-1
  6
CONTINUOUS
 10
35.4999996168353391
 20
8.8999996309497078
 30
0.0
 11
36.9999996168353391
 21
8.8999996309497078
 31
0.0
  0
LINE
  5
276
100
AcDbEntity
100
AcDbLine
  8
0
 62
256
370
-1
  6
CONTINUOUS
 10
36.9999996168353391
 20
8.8999996309497078
 30
0.0
 11
36.9999996168353391
 21
11.8999996309497096
 31
0.0
  0
LINE
  5
277
100
AcDbEntity
100
AcDbLine
  8
0
 62
256
370
-1
  6
CONTINUOUS
 10
36.9999996168353391
 20
11.8999996309497096
 30
0.0
 11
29.9999996168353391
 21
11.8999996309497096
 31
0.0
  0
LINE
  5
278
100
AcDbEntity
100
AcDbLine
  8
0
 62
256
370
-1
  6
CONTINUOUS
 10
29.9999996168353391
 20
8.8999996309497078
 30
0.0
 11
31.4999996168353391
 21
8.8999996309497078
 31
0.0
  0
LINE
  5
279
100
AcDbEntity
100
AcDbLine
  8
0
 62
256
370
-1
  6
CONTINUOUS
 10
29.9999996168353391
 20
8.8999996309497078
 30
0.0
 11
29.9999996168353391
 21
11.8999996309497096
 31
0.0
  0
LINE
  5
27A
100
AcDbEntity
100
AcDbLine
  8
0
 62
256
370
-1
  6
ByLayer
 10
41.999999616835332
 20
4.8999996309497069
 30
0.0
 11
35.4999996168353391
 21
4.8999996309497069
 31
0.0
  0
LINE
  5
27B
100
AcDbEntity
100
AcDbLine
  8
0
 62
256
370
-1
  6
ByLayer
 10
10.4999996168353409
 20
4.8999996309497069
 30
0.0
 11
18.4999996168353391
 21
4.8999996309497069
 31
0.0
  0
LINE
  5
27C
100
AcDbEntity
100
AcDbLine
  8
0
 62
256
370
-1
  6
ByLayer
 10
31.4999996168353391
 20
4.8999996309497069
 30
0.0
 11
23.4999996168353391
 21
4.8999996309497069
 31
0.0
  0
LINE
  5
27D
100
AcDbEntity
100
AcDbLine
  8
0
 62
256
370
-1
  6
ByLayer
 10
23.4999996168353391
 20
4.8999996309497069
 30
0.0
 11
23.4999996168353391
 21
-0.0000003690502695
 31
0.0
  0
LINE
  5
27E
100
AcDbEntity
100
AcDbLine
  8
0
 62
256
370
-1
  6
ByLayer
 10
18.4999996168353391
 20
4.8999996309497069
 30
0.0
 11
18.4999996168353391
 21
-0.0000003690502695
 31
0.0
  0
LINE
  5
27F
100
AcDbEntity
100
AcDbLine
  8
0
 62
256
370
-1
  6
ByLayer
 10
18.4999996168353391
 20
-0.0000003690502695
 30
0.0
 11
23.4999996168353391
 21
-0.0000003690502695
 31
0.0
  0
CIRCLE
  5
280
100
AcDbEntity
100
AcDbCircle
  8
0
 62
256
370
-1
  6
ByLayer
 10
20.9999996168353391
 20
27.7062915201190698
 30
0.0
 40
4.1500000000000004
  0
LINE
  5
281
100
AcDbEntity
100
AcDbLine
  8
0
 62
256
370
-1
  6
ByLayer
 10
41.999999616835332
 20
38.8062915201190606
 30
0.0
 11
-0.0000003831646609
 21
38.8062915201190606
 31
0.0
  0
ENDBLK
  5
282
100
AcDbEntity
  8
0
100
AcDbBlockEnd
  0
BLOCK
  5
283
100
AcDbEntity
  8
0
100
AcDbBlockBegin
  2
x_bar_holder
 70
0
 10
0.0
 20
0.0
 30
0.0
  3
x_bar_holder
  1

  0
CIRCLE
  5
284
100
AcDbEntity
100
AcDbCircle
  8
0
 62
256
370
-1
  6
ByLayer
 10
10.0000004232506399
 20
14.9000004119263991
 30
0.0
 40
4.049999999999998
  0
CIRCLE
  5
285
100
AcDbEntity
100
AcDbCircle
  8
0
 62
256
370
-1
  6
ByLayer
 10
60.0000004232506399
 20
14.9000004119263991
 30
0.0
 40
4.049999999999998
  0
LINE
  5
286
100
AcDbEntity
100
AcDbLine
  8
0
 62
256
370
-1
  6
ByLayer
 10
43.0000004232506186
 20
4.900000411926384
 30
0.0
 11
39.000000423250647
 21
4.900000411926384
 31
0.0
  0
LINE
  5
287
100
AcDbEntity
100
AcDbLine
  8
0
 62
256
370
-1
  6
ByLayer
 10
27.0000004232506292
 20
4.900000411926384
 30
0.0
 11
31.0000004232506292
 21
4.900000411926384
 31
0.0
  0
LINE
  5
288
100
AcDbEntity
100
AcDbLine
  8
0
 62
256
370
-1
  6
CONTINUOUS
 10
23.0000004232506292
 20
4.900000411926384
 30
0.0
 11
23.0000004232506292
 21
8.9000004119263831
 31
0.0
  0
LINE
  5
289
100
AcDbEntity
100
AcDbLine
  8
0
 62
256
370
-1
  6
CONTINUOUS
 10
27.0000004232506292
 20
4.900000411926384
 30
0.0
 11
27.0000004232506292
 21
8.9000004119263831
 31
0.0
  0
LINE
  5
28A
100
AcDbEntity
100
AcDbLine
  8
0
 62
256
370
-1
  6
CONTINUOUS
 10
23.0000004232506292
 20
8.9000004119263831
 30
0.0
 11
21.5000004232506186
 21
8.9000004119263831
 31
0.0
  0
LINE
  5
28B
100
AcDbEntity
100
AcDbLine
  8
0
 62
256
370
-1
  6
CONTINUOUS
 10
21.5000004232506186
 20
8.9000004119263831
 30
0.0
 11
21.5000004232506186
 21
11.9000004119263796
 31
0.0
  0
LINE
  5
28C
100
AcDbEntity
100
AcDbLine
  8
0
 62
256
370
-1
  6
CONTINUOUS
 10
21.5000004232506186
 20
11.9000004119263796
 30
0.0
 11
28.5000004232506292
 21
11.9000004119263796
 31
0.0
  0
LINE
  5
28D
100
AcDbEntity
100
AcDbLine
  8
0
 62
256
370
-1
  6
CONTINUOUS
 10
28.5000004232506292
 20
8.9000004119263831
 30
0.0
 11
27.0000004232506292
 21
8.9000004119263831
 31
0.0
  0
LINE
  5
28E
100
AcDbEntity
100
AcDbLine
  8
0
 62
256
370
-1
  6
CONTINUOUS
 10
28.5000004232506292
 20
8.9000004119263831
 30
0.0
 11
28.5000004232506292
 21
11.9000004119263796
 31
0.0
  0
LINE
  5
28F
100
AcDbEntity
100
AcDbLine
  8
0
 62
256
370
-1
  6
CONTINUOUS
 10
47.0000004232506186
 20
4.900000411926384
 30
0.0
 11
47.0000004232506186
 21
8.9000004119263831
 31
0.0
  0
LINE
  5
290
100
AcDbEntity
100
AcDbLine
  8
0
 62
256
370
-1
  6
CONTINUOUS
 10
43.0000004232506186
 20
4.900000411926384
 30
0.0
 11
43.0000004232506186
 21
8.9000004119263831
 31
0.0
  0
LINE
  5
291
100
AcDbEntity
100
AcDbLine
  8
0
 62
256
370
-1
  6
CONTINUOUS
 10
47.0000004232506186
 20
8.9000004119263831
 30
0.0
 11
48.5000004232506328
 21
8.9000004119263831
 31
0.0
  0
LINE
  5
292
100
AcDbEntity
100
AcDbLine
  8
0
 62
256
370
-1
  6
CONTINUOUS
 10
48.5000004232506328
 20
8.9000004119263831
 30
0.0
 11
48.5000004232506328
 21
11.9000004119263796
 31
0.0
  0
LINE
  5
293
100
AcDbEntity
100
AcDbLine
  8
0
 62
256
370
-1
  6
CONTINUOUS
 10
48.5000004232506328
 20
11.9000004119263796
 30
0.0
 11
41.5000004232506186
 21
11.9000004119263796
 31
0.0
  0
LINE
  5
294
100
AcDbEntity
100
AcDbLine
  8
0
 62
256
370
-1
  6
CONTINUOUS
 10
41.5000004232506186
 20
8.9000004119263831
 30
0.0
 11
43.0000004232506186
 21
8.9000004119263831
 31
0.0
  0
LINE
  5
295
100
AcDbEntity
100
AcDbLine
  8
0
 62
256
370
-1
  6
CONTINUOUS
 10
41.5000004232506186
 20
8.9000004119263831
 30
0.0
 11
41.5000004232506186
 21
11.9000004119263796
 31
0.0
  0
LINE
  5
296
100
AcDbEntity
100
AcDbLine
  8
0
 62
256
370
-1
  6
ByLayer
 10
60.0000004232506399
 20
4.900000411926384
 30
0.0
 11
47.0000004232506186
 21
4.900000411926384
 31
0.0
  0
LINE
  5
297
100
AcDbEntity
100
AcDbLine
  8
0
 62
256
370
-1
  6
ByLayer
 10
39.000000423250647
 20
4.900000411926384
 30
0.0
 11
39.000000423250647
 21
0.0000004119264077
 31
0.0
  0
LINE
  5
298
100
AcDbEntity
100
AcDbLine
  8
0
 62
256
370
-1
  6
ByLayer
 10
31.0000004232506292
 20
4.900000411926384
 30
0.0
 11
31.0000004232506292
 21
0.0000004119264077
 31
0.0
  0
LINE
  5
299
100
AcDbEntity
100
AcDbLine
  8
0
 62
256
370
-1
  6
ByLayer
 10
31.0000004232506292
 20
0.0000004119264077
 30
0.0
 11
39.000000423250647
 21
0.0000004119264077
 31
0.0
  0
ARC
  5
29A
100
AcDbEntity
  8
0
 62
256
370
-1
  6
ByLayer
100
AcDbCircle
 10
60.0000004232506186
 20
14.9000004119263991
 30
0.0
 40
10.0000000000000107
100
AcDbArc
 50
270.0
 51
90.0
  0
LINE
  5
29B
100
AcDbEntity
100
AcDbLine
  8
0
 62
256
370
-1
  6
ByLayer
 10
10.0000004232506203
 20
4.900000411926384
 30
0.0
 11
23.0000004232506399
 21
4.900000411926384
 31
0.0
  0
ARC
  5
29C
100
AcDbEntity
  8
0
 62
256
370
-1
  6
ByLayer
100
AcDbCircle
 10
10.0000004232506399
 20
14.9000004119263991
 30
0.0
 40
10.0000000000000107
100
AcDbArc
 50
90.0
 51
270.0
  0
LINE
  5
29D
100
AcDbEntity
100
AcDbLine
  8
0
 62
256
370
-1
  6
ByLayer
 10
60.0000004232506399
 20
24.9000004119264098
 30
0.0
 11
10.0000004232506399
 21
24.9000004119264098
 31
0.0
  0
ENDBLK
  5
29E
100
AcDbEntity
  8
0
100
AcDbBlockEnd
  0
BLOCK
  5
29F
100
AcDbEntity
  8
0
100
AcDbBlockBegin
  2
electronics_mounting_plate
 70
0
 10
0.0
 20
0.0
 30
0.0
  3
electronics_mounting_plate
  1

  0
LINE
  5
2A0
100
AcDbEntity
100
AcDbLine
  8
0
 62
256
370
-1
  6
ByLayer
 10
0.0000016378489818
 20
0.0000030030441849
 30
0.0
 11
122.2000016378487999
 21
0.0000030030441849
 31
0.0
  0
LINE
  5
2A1
100
AcDbEntity
100
AcDbLine
  8
0
 62
256
370
-1
  6
ByLayer
 10
0.0000016378489818
 20
0.0000030030441849
 30
0.0
 11
0.0000016378489818
 21
83.0000030030441849
 31
0.0
  0
CIRCLE
  5
2A2
100
AcDbEntity
100
AcDbCircle
  8
0
 62
256
370
-1
  6
ByLayer
 10
5.0000016378489809
 20
5.000003003044184
 30
0.0
 40
1.6000000000000001
  0
CIRCLE
  5
2A3
100
AcDbEntity
100
AcDbCircle
  8
0
 62
256
370
-1
  6
ByLayer
 10
103.000001637848996
 20
5.000003003044184
 30
0.0
 40
1.6000000000000001
  0
CIRCLE
  5
2A4
100
AcDbEntity
100
AcDbCircle
  8
0
 62
256
370
-1
  6
ByLayer
 10
103.000001637848996
 20
78.0000030030441849
 30
0.0
 40
1.6000000000000001
  0
CIRCLE
  5
2A5
100
AcDbEntity
100
AcDbCircle
  8
0
 62
256
370
-1
  6
ByLayer
 10
5.0000016378489809
 20
78.0000030030441849
 30
0.0
 40
1.6000000000000001
  0
LINE
  5
2A6
100
AcDbEntity
100
AcDbLine
  8
0
 62
256
370
-1
  6
ByLayer
 10
0.0000016378489818
 20
83.0000030030441849
 30
0.0
 11
122.2000016378487999
 21
83.0000030030441849
 31
0.0
  0
CIRCLE
  5
2A7
100
AcDbEntity
100
AcDbCircle
  8
0
 62
256
370
-1
  6
ByLayer
 10
115.000001637848996
 20
11.5000030030441796
 30
0.0
 40
4.1999999999998181
  0
CIRCLE
  5
2A8
100
AcDbEntity
100
AcDbCircle
  8
0
 62
256
370
-1
  6
ByLayer
 10
115.000001637848996
 20
71.5000030030441849
 30
0.0
 40
4.1999999999998181
  0
LINE
  5
2A9
100
AcDbEntity
100
AcDbLine
  8
0
 62
256
370
-1
  6
ByLayer
 10
122.2000016378487999
 20
83.0000030030441849
 30
0.0
 11
122.2000016378487999
 21
0.0000030030441849
 31
0.0
  0
ENDBLK
  5
2AA
100
AcDbEntity
  8
0
100
AcDbBlockEnd
  0
BLOCK
  5
2AB
100
AcDbEntity
  8
0
100
AcDbBlockBegin
  2
x_motor_mount
 70
0
 10
0.0
 20
0.0
 30
0.0
  3
x_motor_mount
  1

  0
CIRCLE
  5
2AC
100
AcDbEntity
100
AcDbCircle
  8
0
 62
256
370
-1
  6
CONTINUOUS
 10
21.0000012981022302
 20
32.7062921242073301
 30
0.0
 40
10.0
  0
CIRCLE
  5
2AD
100
AcDbEntity
100
AcDbCircle
  8
0
 62
256
370
-1
  6
ByLayer
 10
5.5000012981022328
 20
17.2062921242073195
 30
0.0
 40
2.0
  0
CIRCLE
  5
2AE
100
AcDbEntity
100
AcDbCircle
  8
0
 62
256
370
-1
  6
ByLayer
 10
5.5000012981022328
 20
48.206292124207323
 30
0.0
 40
2.0
  0
CIRCLE
  5
2AF
100
AcDbEntity
100
AcDbCircle
  8
0
 62
256
370
-1
  6
ByLayer
 10
36.5000012981022266
 20
17.2062921242073195
 30
0.0
 40
2.0
  0
CIRCLE
  5
2B0
100
AcDbEntity
100
AcDbCircle
  8
0
 62
256
370
-1
  6
ByLayer
 10
36.5000012981022266
 20
48.206292124207323
 30
0.0
 40
2.0
  0
LINE
  5
2B1
100
AcDbEntity
100
AcDbLine
  8
0
 62
256
370
-1
  6
ByLayer
 10
0.0000012981022337
 20
4.9000002350379628
 30
0.0
 11
0.0000012981022337
 21
53.706292124207323
 31
0.0
  0
LINE
  5
2B2
100
AcDbEntity
100
AcDbLine
  8
0
 62
256
370
-1
  6
ByLayer
 10
42.0000012981022266
 20
4.9000002350379628
 30
0.0
 11
42.0000012981022266
 21
53.706292124207323
 31
0.0
  0
LINE
  5
2B3
100
AcDbEntity
100
AcDbLine
  8
0
 62
256
370
-1
  6
ByLayer
 10
42.0000012981022266
 20
53.706292124207323
 30
0.0
 11
0.0000012981022337
 21
53.706292124207323
 31
0.0
  0
LINE
  5
2B4
100
AcDbEntity
100
AcDbLine
  8
0
 62
256
370
-1
  6
CONTINUOUS
 10
6.500001298102231
 20
4.9000002350379628
 30
0.0
 11
6.500001298102231
 21
8.9000002350379628
 31
0.0
  0
LINE
  5
2B5
100
AcDbEntity
100
AcDbLine
  8
0
 62
256
370
-1
  6
CONTINUOUS
 10
10.5000012981022302
 20
4.9000002350379628
 30
0.0
 11
10.5000012981022302
 21
8.9000002350379628
 31
0.0
  0
LINE
  5
2B6
100
AcDbEntity
100
AcDbLine
  8
0
 62
256
370
-1
  6
CONTINUOUS
 10
6.500001298102231
 20
8.9000002350379628
 30
0.0
 11
5.0000012981022328
 21
8.9000002350379628
 31
0.0
  0
LINE
  5
2B7
100
AcDbEntity
100
AcDbLine
  8
0
 62
256
370
-1
  6
CONTINUOUS
 10
5.0000012981022328
 20
8.9000002350379628
 30
0.0
 11
5.0000012981022328
 21
11.9000002350379592
 31
0.0
  0
LINE
  5
2B8
100
AcDbEntity
100
AcDbLine
  8
0
 62
256
370
-1
  6
CONTINUOUS
 10
5.0000012981022328
 20
11.9000002350379592
 30
0.0
 11
12.0000012981022302
 21
11.9000002350379592
 31
0.0
  0
LINE
  5
2B9
100
AcDbEntity
100
AcDbLine
  8
0
 62
256
370
-1
  6
CONTINUOUS
 10
12.0000012981022302
 20
8.9000002350379628
 30
0.0
 11
10.5000012981022302
 21
8.9000002350379628
 31
0.0
  0
LINE
  5
2BA
100
AcDbEntity
100
AcDbLine
  8
0
 62
256
370
-1
  6
CONTINUOUS
 10
12.0000012981022302
 20
8.9000002350379628
 30
0.0
 11
12.0000012981022302
 21
11.9000002350379592
 31
0.0
  0
LINE
  5
2BB
100
AcDbEntity
100
AcDbLine
  8
0
 62
256
370
-1
  6
ByLayer
 10
0.0000012981022337
 20
4.9000002350379628
 30
0.0
 11
6.500001298102231
 21
4.9000002350379628
 31
0.0
  0
LINE
  5
2BC
100
AcDbEntity
100
AcDbLine
  8
0
 62
256
370
-1
  6
CONTINUOUS
 10
35.5000012981022408
 20
4.9000002350379628
 30
0.0
 11
35.5000012981022408
 21
8.9000002350379628
 31
0.0
  0
LINE
  5
2BD
100
AcDbEntity
100
AcDbLine
  8
0
 62
256
370
-1
  6
CONTINUOUS
 10
31.5000012981022302
 20
4.9000002350379628
 30
0.0
 11
31.5000012981022302
 21
8.9000002350379628
 31
0.0
  0
LINE
  5
2BE
100
AcDbEntity
100
AcDbLine
  8
0
 62
256
370
-1
  6
CONTINUOUS
 10
35.5000012981022408
 20
8.9000002350379628
 30
0.0
 11
37.0000012981022408
 21
8.9000002350379628
 31
0.0
  0
LINE
  5
2BF
100
AcDbEntity
100
AcDbLine
  8
0
 62
256
370
-1
  6
CONTINUOUS
 10
37.0000012981022408
 20
8.9000002350379628
 30
0.0
 11
37.0000012981022408
 21
11.9000002350379592
 31
0.0
  0
LINE
  5
2C0
100
AcDbEntity
100
AcDbLine
  8
0
 62
256
370
-1
  6
CONTINUOUS
 10
37.0000012981022408
 20
11.9000002350379592
 30
0.0
 11
30.0000012981022302
 21
11.9000002350379592
 31
0.0
  0
LINE
  5
2C1
100
AcDbEntity
100
AcDbLine
  8
0
 62
256
370
-1
  6
CONTINUOUS
 10
30.0000012981022302
 20
8.9000002350379628
 30
0.0
 11
31.5000012981022302
 21
8.9000002350379628
 31
0.0
  0
LINE
  5
2C2
100
AcDbEntity
100
AcDbLine
  8
0
 62
256
370
-1
  6
CONTINUOUS
 10
30.0000012981022302
 20
8.9000002350379628
 30
0.0
 11
30.0000012981022302
 21
11.9000002350379592
 31
0.0
  0
LINE
  5
2C3
100
AcDbEntity
100
AcDbLine
  8
0
 62
256
370
-1
  6
ByLayer
 10
42.0000012981022266
 20
4.9000002350379628
 30
0.0
 11
35.5000012981022408
 21
4.9000002350379628
 31
0.0
  0
LINE
  5
2C4
100
AcDbEntity
100
AcDbLine
  8
0
 62
256
370
-1
  6
ByLayer
 10
10.5000012981022302
 20
4.9000002350379628
 30
0.0
 11
18.5000012981022302
 21
4.9000002350379628
 31
0.0
  0
LINE
  5
2C5
100
AcDbEntity
100
AcDbLine
  8
0
 62
256
370
-1
  6
ByLayer
 10
31.5000012981022302
 20
4.9000002350379628
 30
0.0
 11
23.5000012981022302
 21
4.9000002350379628
 31
0.0
  0
LINE
  5
2C6
100
AcDbEntity
100
AcDbLine
  8
0
 62
256
370
-1
  6
ByLayer
 10
23.5000012981022302
 20
4.9000002350379628
 30
0.0
 11
23.5000012981022302
 21
0.0000002350379873
 31
0.0
  0
LINE
  5
2C7
100
AcDbEntity
100
AcDbLine
  8
0
 62
256
370
-1
  6
ByLayer
 10
18.5000012981022302
 20
4.9000002350379628
 30
0.0
 11
18.5000012981022302
 21
0.0000002350379873
 31
0.0
  0
LINE
  5
2C8
100
AcDbEntity
100
AcDbLine
  8
0
 62
256
370
-1
  6
ByLayer
 10
18.5000012981022302
 20
0.0000002350379873
 30
0.0
 11
23.5000012981022302
 21
0.0000002350379873
 31
0.0
  0
ENDBLK
  5
2C9
100
AcDbEntity
  8
0
100
AcDbBlockEnd
  0
ENDSEC
  0
SECTION
  2
ENTITIES
  0
INSERT
  5
2CA
100
AcDbEntity
100
AcDbBlockReference
  8
0
 62
256
370
-1
  6
ByLayer
  2
frame_upper_piece
 10
134.9884655995973901
 20
14.3976326294088306
 30
0.0
  0
INSERT
  5
2CB
100
AcDbEntity
100
AcDbBlockReference
  8
0
 62
256
370
-1
  6
ByLayer
  2
frame_main
 10
400.2786742288598134
 20
453.1135480914562095
 30
0.0
 50
180.0
  0
INSERT
  5
2CC
100
AcDbEntity
100
AcDbBlockReference
  8
0
 62
256
370
-1
  6
ByLayer
  2
frame_bottom_piece
 10
607.6482506196193754
 20
-28.1936945878431402
 30
0.0
 50
90.0
  0
INSERT
  5
2CD
100
AcDbEntity
100
AcDbBlockReference
  8
0
 62
256
370
-1
  6
ByLayer
  2
y_frame_pieces
 10
129.1924257194820029
 20
-13.5659230764302894
 30
0.0
 50
90.0
  0
INSERT
  5
2CE
100
AcDbEntity
100
AcDbBlockReference
  8
0
 62
256
370
-1
  6
ByLayer
  2
y_frame_pieces
 10
129.2924246797043111
 20
25.4340749233407486
 30
0.0
 50
90.0
  0
INSERT
  5
2CF
100
AcDbEntity
100
AcDbBlockReference
  8
0
 62
256
370
-1
  6
ByLayer
  2
y_bushing_mount
 10
-354.0374776809309765
 20
179.7517059433201041
 30
0.0
 50
270.0
  0
INSERT
  5
2D0
100
AcDbEntity
100
AcDbBlockReference
  8
0
 62
256
370
-1
  6
ByLayer
  2
y_stage
 10
-340.2839239438808931
 20
183.1186718074268924
 30
0.0
  0
INSERT
  5
2D1
100
AcDbEntity
100
AcDbBlockReference
  8
0
 62
256
370
-1
  6
ByLayer
  2
y_bushing_mount
 10
-354.8960762800097086
 20
130.6953576598135953
 30
0.0
 50
270.0
  0
INSERT
  5
2D2
100
AcDbEntity
100
AcDbBlockReference
  8
0
 62
256
370
-1
  6
ByLayer
  2
y_side_support
 10
-3.3441879521671458
 20
322.6912215682746137
 30
0.0
 50
180.0
  0
INSERT
  5
2D3
100
AcDbEntity
100
AcDbBlockReference
  8
0
 62
256
370
-1
  6
ByLayer
  2
y_side_support
 10
-38.8273152371587571
 20
332.0764113469309109
 30
0.0
 50
180.0
  0
INSERT
  5
2D4
100
AcDbEntity
100
AcDbBlockReference
  8
0
 62
256
370
-1
  6
ByLayer
  2
x_mount1
 10
-282.7581510377702898
 20
360.7412647910455803
 30
0.0
  0
INSERT
  5
2D5
100
AcDbEntity
100
AcDbBlockReference
  8
0
 62
256
370
-1
  6
ByLayer
  2
x_mount2
 10
-249.3399255808174928
 20
296.8526655557653839
 30
0.0
 50
90.0
  0
INSERT
  5
2D6
100
AcDbEntity
100
AcDbBlockReference
  8
0
 62
256
370
-1
  6
CONTINUOUS
  2
belt_clamp
 10
-240.4002575280412941
 20
349.9221091145403193
 30
0.0
 50
90.0
  0
INSERT
  5
2D7
100
AcDbEntity
100
AcDbBlockReference
  8
0
 62
256
370
-1
  6
CONTINUOUS
  2
belt_clamp
 10
-240.4002575280412941
 20
337.9221091145403193
 30
0.0
 50
90.0
  0
INSERT
  5
2D8
100
AcDbEntity
100
AcDbBlockReference
  8
0
 62
256
370
-1
  6
CONTINUOUS
  2
belt_clamp
 10
-240.4002575280412941
 20
325.9221091145402056
 30
0.0
 50
90.0
  0
INSERT
  5
2D9
100
AcDbEntity
100
AcDbBlockReference
  8
0
 62
256
370
-1
  6
CONTINUOUS
  2
belt_clamp
 10
-240.4002575280412941
 20
313.9221091145403193
 30
0.0
 50
90.0
  0
INSERT
  5
2DA
100
AcDbEntity
100
AcDbBlockReference
  8
0
 62
256
370
-1
  6
ByLayer
  2
y_motor_mount
 10
-194.0601062753300141
 20
348.3913908800121249
 30
0.0
  0
INSERT
  5
2DB
100
AcDbEntity
100
AcDbBlockReference
  8
0
 62
256
370
-1
  6
ByLayer
  2
y_idler
 10
-231.4248013690391019
 20
188.1386246097804076
 30
0.0
 41
-1.0
 42
1.0
 43
1.0
  0
LINE
  5
2DC
100
AcDbEntity
100
AcDbLine
  8
dimension
 62
256
370
-1
  6
ByLayer
 10
-350.2839226377873274
 20
450.5763511753989974
 30
0.0
 11
-350.2839226377873274
 21
-36.1311243367456427
 31
0.0
  0
LINE
  5
2DD
100
AcDbEntity
100
AcDbLine
  8
dimension
 62
256
370
-1
  6
ByLayer
 10
-350.2839226377873274
 20
-36.1311243367456427
 30
0.0
 11
636.9833881626833545
 21
-36.1311243367456427
 31
0.0
  0
LINE
  5
2DE
100
AcDbEntity
100
AcDbLine
  8
dimension
 62
256
370
-1
  6
ByLayer
 10
636.9833881626833545
 20
-36.1311243367456427
 30
0.0
 11
636.9833881626833545
 21
450.5763511753988837
 31
0.0
  0
LINE
  5
2DF
100
AcDbEntity
100
AcDbLine
  8
dimension
 62
256
370
-1
  6
ByLayer
 10
636.9833881626833545
 20
450.5763511753988837
 30
0.0
 11
-350.2839226377873274
 21
450.5763511753989974
 31
0.0
  0
INSERT
  5
2E0
100
AcDbEntity
100
AcDbBlockReference
  8
0
 62
256
370
-1
  6
ByLayer
  2
x_bar_holder
 10
-263.8256279250496732
 20
309.7363142243801803
 30
0.0
 50
270.0
  0
INSERT
  5
2E1
100
AcDbEntity
100
AcDbBlockReference
  8
0
 62
256
370
-1
  6
ByLayer
  2
x_idler
 10
-311.1735892221964264
 20
206.3859678850768944
 30
0.0
  0
INSERT
  5
2E2
100
AcDbEntity
100
AcDbBlockReference
  8
0
 62
256
370
-1
  6
ByLayer
  2
x_bar_holder
 10
-207.6222819916640105
 20
288.4837667600983764
 30
0.0
 50
90.0
  0
INSERT
  5
2E3
100
AcDbEntity
100
AcDbBlockReference
  8
0
 62
256
370
-1
  6
ByLayer
  2
electronics_mounting_plate
 10
-120.6297482661131966
 20
214.3671204536665016
 30
0.0
 50
90.0
  0
INSERT
  5
2E4
100
AcDbEntity
100
AcDbBlockReference
  8
0
 62
256
370
-1
  6
ByLayer
  2
frame_main
 10
171.2639139313284034
 20
59.1530983553933609
 30
0.0
  0
INSERT
  5
2E5
100
AcDbEntity
100
AcDbBlockReference
  8
0
 62
256
370
-1
  6
ByLayer
  2
x_motor_mount
 10
-312.0182099465674241
 20
251.2167144902622908
 30
0.0
  0
ENDSEC
  0
SECTION
  2
OBJECTS
  0
DICTIONARY
  5
C
100
AcDbDictionary
280
0
281
1
  3
ACAD_GROUP
350
D
  3
ACAD_LAYOUT
350
1A
  3
ACAD_MLINESTYLE
350
17
  3
ACAD_PLOTSETTINGS
350
19
  3
ACAD_PLOTSTYLENAME
350
E
  3
AcDbVariableDictionary
350
2E6
  0
DICTIONARY
  5
D
100
AcDbDictionary
280
0
281
1
  0
ACDBDICTIONARYWDFLT
  5
E
100
AcDbDictionary
281
1
  3
Normal
350
F
100
AcDbDictionaryWithDefault
340
F
  0
ACDBPLACEHOLDER
  5
F
  0
DICTIONARY
  5
17
100
AcDbDictionary
280
0
281
1
  3
Standard
350
18
  0
MLINESTYLE
  5
18
100
AcDbMlineStyle
  2
STANDARD
 70
0
  3

 62
256
 51
90.0
 52
90.0
 71
2
 49
0.5
 62
256
  6
BYLAYER
 49
-0.5
 62
256
  6
BYLAYER
  0
DICTIONARY
  5
19
100
AcDbDictionary
280
0
281
1
  0
DICTIONARY
  5
1A
100
AcDbDictionary
281
1
  3
Layout1
350
1E
  3
Layout2
350
26
  3
Model
350
22
  0
LAYOUT
  5
1E
100
AcDbPlotSettings
  1

  2
C:\Program Files\AutoCAD 2002\plotters\DWF ePlot (optimized for plotting).pc3
  4

  6

 40
0.0
 41
0.0
 42
0.0
 43
0.0
 44
0.0
 45
0.0
 46
0.0
 47
0.0
 48
0.0
 49
0.0
140
0.0
141
0.0
142
1.0
143
1.0
 70
688
 72
0
 73
0
 74
5
  7

 75
16
147
1.0
148
0.0
149
0.0
100
AcDbLayout
  1
Layout1
 70
1
 71
1
 10
0.0
 20
0.0
 11
420.0
 21
297.0
 12
0.0
 22
0.0
 32
0.0
 14
100000000000000000000.0
 24
100000000000000000000.0
 34
100000000000000000000.0
 15
-100000000000000000000.0
 25
-100000000000000000000.0
 35
-100000000000000000000.0
146
0.0
 13
0.0
 23
0.0
 33
0.0
 16
1.0
 26
0.0
 36
0.0
 17
0.0
 27
1.0
 37
0.0
 76
0
330
1B
  0
LAYOUT
  5
22
100
AcDbPlotSettings
  1

  2
C:\Program Files\AutoCAD 2002\plotters\DWF ePlot (optimized for plotting).pc3
  4

  6

 40
0.0
 41
0.0
 42
0.0
 43
0.0
 44
0.0
 45
0.0
 46
0.0
 47
0.0
 48
0.0
 49
0.0
140
0.0
141
0.0
142
1.0
143
1.0
 70
1712
 72
0
 73
0
 74
0
  7

 75
0
147
1.0
148
0.0
149
0.0
100
AcDbLayout
  1
Model
 70
1
 71
0
 10
0.0
 20
0.0
 11
12.0
 21
9.0
 12
0.0
 22
0.0
 32
0.0
 14
0.0
 24
0.0
 34
0.0
 15
0.0
 25
0.0
 35
0.0
146
0.0
 13
0.0
 23
0.0
 33
0.0
 16
1.0
 26
0.0
 36
0.0
 17
0.0
 27
1.0
 37
0.0
 76
0
330
1F
  0
LAYOUT
  5
26
100
AcDbPlotSettings
  1

  2
C:\Program Files\AutoCAD 2002\plotters\DWF ePlot (optimized for plotting).pc3
  4

  6

 40
0.0
 41
0.0
 42
0.0
 43
0.0
 44
0.0
 45
0.0
 46
0.0
 47
0.0
 48
0.0
 49
0.0
140
0.0
141
0.0
142
1.0
143
1.0
 70
688
 72
0
 73
0
 74
5
  7

 75
16
147
1.0
148
0.0
149
0.0
100
AcDbLayout
  1
Layout2
 70
1
 71
2
 10
0.0
 20
0.0
 11
12.0
 21
9.0
 12
0.0
 22
0.0
 32
0.0
 14
0.0
 24
0.0
 34
0.0
 15
0.0
 25
0.0
 35
0.0
146
0.0
 13
0.0
 23
0.0
 33
0.0
 16
1.0
 26
0.0
 36
0.0
 17
0.0
 27
1.0
 37
0.0
 76
0
330
23
  0
DICTIONARY
  5
2E6
100
AcDbDictionary
281
1
  3
DIMASSOC
350
2E8
  3
HIDETEXT
350
2E7
  0
DICTIONARYVAR
  5
2E7
100
DictionaryVariables
280
0
  1
2
  0
DICTIONARYVAR
  5
2E8
100
DictionaryVariables
280
0
  1
1
  0
ENDSEC
  0
EOF
