solid OpenSCAD_Model
  facet normal -1.000000 -0.000000 -0.000000
    outer loop
      vertex -35.000000 -6.000000 0.000000
      vertex -35.000000 -6.000000 4.500000
      vertex -35.000000 6.000000 0.000000
    endloop
  endfacet
  facet normal -1.000000 0.000000 0.000000
    outer loop
      vertex -35.000000 6.000000 0.000000
      vertex -35.000000 -6.000000 4.500000
      vertex -35.000000 6.000000 4.500000
    endloop
  endfacet
  facet normal 0.000000 -1.000000 0.000000
    outer loop
      vertex -35.000000 -6.000000 4.500000
      vertex -35.000000 -6.000000 0.000000
      vertex 35.000000 -6.000000 0.000000
    endloop
  endfacet
  facet normal 0.000000 -1.000000 0.000000
    outer loop
      vertex 35.000000 -6.000000 4.500000
      vertex -35.000000 -6.000000 4.500000
      vertex 35.000000 -6.000000 0.000000
    endloop
  endfacet
  facet normal 0.000000 -0.000000 -1.000000
    outer loop
      vertex 0.494897 2.806702 0.000000
      vertex -35.000000 6.000000 0.000000
      vertex 35.000000 6.000000 0.000000
    endloop
  endfacet
  facet normal 0.000000 -0.000000 -1.000000
    outer loop
      vertex -35.000000 -6.000000 0.000000
      vertex -35.000000 6.000000 0.000000
      vertex -32.000000 0.000000 0.000000
    endloop
  endfacet
  facet normal 0.000000 0.000000 -1.000000
    outer loop
      vertex -35.000000 -6.000000 0.000000
      vertex -32.000000 0.000000 0.000000
      vertex -31.427051 -1.763356 0.000000
    endloop
  endfacet
  facet normal 0.000000 0.000000 -1.000000
    outer loop
      vertex 0.494897 -2.806702 0.000000
      vertex 35.000000 -6.000000 0.000000
      vertex -21.572949 -1.763356 0.000000
    endloop
  endfacet
  facet normal 0.000000 0.000000 -1.000000
    outer loop
      vertex -35.000000 -6.000000 0.000000
      vertex -31.427051 -1.763356 0.000000
      vertex -30.000000 -2.800169 0.000000
    endloop
  endfacet
  facet normal 0.000000 0.000000 -1.000000
    outer loop
      vertex -35.000000 -6.000000 0.000000
      vertex -30.000000 -2.800169 0.000000
      vertex -30.000000 -3.000000 0.000000
    endloop
  endfacet
  facet normal -0.000000 0.000000 -1.000000
    outer loop
      vertex -35.000000 -6.000000 0.000000
      vertex -30.000000 -3.000000 0.000000
      vertex 35.000000 -6.000000 0.000000
    endloop
  endfacet
  facet normal 0.000000 0.000000 -1.000000
    outer loop
      vertex -21.572949 -1.763356 0.000000
      vertex 35.000000 -6.000000 0.000000
      vertex -23.000000 -2.800169 0.000000
    endloop
  endfacet
  facet normal -0.000000 -0.000000 -1.000000
    outer loop
      vertex -23.000000 -3.000000 0.000000
      vertex -23.000000 -2.800169 0.000000
      vertex 35.000000 -6.000000 0.000000
    endloop
  endfacet
  facet normal 0.000000 0.000000 -1.000000
    outer loop
      vertex -21.000000 0.000000 0.000000
      vertex -1.425000 -2.468172 0.000000
      vertex 0.494897 -2.806702 0.000000
    endloop
  endfacet
  facet normal 0.000000 0.000000 -1.000000
    outer loop
      vertex -31.427051 1.763356 0.000000
      vertex -30.000000 3.000000 0.000000
      vertex -30.000000 2.800169 0.000000
    endloop
  endfacet
  facet normal 0.000000 0.000000 -1.000000
    outer loop
      vertex 2.183227 -1.831945 0.000000
      vertex 35.000000 -6.000000 0.000000
      vertex 0.494897 -2.806702 0.000000
    endloop
  endfacet
  facet normal 0.000000 0.000000 -1.000000
    outer loop
      vertex -1.425000 -2.468172 0.000000
      vertex -21.000000 0.000000 0.000000
      vertex -2.678124 -0.974757 0.000000
    endloop
  endfacet
  facet normal 0.000000 0.000000 -1.000000
    outer loop
      vertex -2.678124 -0.974757 0.000000
      vertex -23.000000 3.000000 0.000000
      vertex -35.000000 6.000000 0.000000
    endloop
  endfacet
  facet normal 0.000000 0.000000 -1.000000
    outer loop
      vertex 2.850000 0.000000 0.000000
      vertex 35.000000 -6.000000 0.000000
      vertex 2.183227 -1.831945 0.000000
    endloop
  endfacet
  facet normal 0.000000 0.000000 -1.000000
    outer loop
      vertex -2.678124 -0.974757 0.000000
      vertex -35.000000 6.000000 0.000000
      vertex -2.678124 0.974757 0.000000
    endloop
  endfacet
  facet normal 0.000000 -0.000000 -1.000000
    outer loop
      vertex -31.427051 1.763356 0.000000
      vertex -35.000000 6.000000 0.000000
      vertex -30.000000 3.000000 0.000000
    endloop
  endfacet
  facet normal 0.000000 -0.000000 -1.000000
    outer loop
      vertex -32.000000 0.000000 0.000000
      vertex -35.000000 6.000000 0.000000
      vertex -31.427051 1.763356 0.000000
    endloop
  endfacet
  facet normal 0.000000 -0.000000 -1.000000
    outer loop
      vertex -2.678124 0.974757 0.000000
      vertex -35.000000 6.000000 0.000000
      vertex -1.425000 2.468172 0.000000
    endloop
  endfacet
  facet normal -0.000000 -0.000000 -1.000000
    outer loop
      vertex -21.000000 0.000000 0.000000
      vertex -21.572949 1.763356 0.000000
      vertex -2.678124 -0.974757 0.000000
    endloop
  endfacet
  facet normal -0.000000 -0.000000 -1.000000
    outer loop
      vertex -30.000000 3.000000 0.000000
      vertex -35.000000 6.000000 0.000000
      vertex -23.000000 3.000000 0.000000
    endloop
  endfacet
  facet normal -0.000000 0.000000 -1.000000
    outer loop
      vertex 2.183227 1.831945 0.000000
      vertex 35.000000 6.000000 0.000000
      vertex 2.850000 0.000000 0.000000
    endloop
  endfacet
  facet normal 0.000000 -0.000000 -1.000000
    outer loop
      vertex 23.000000 3.000000 0.000000
      vertex 2.850000 0.000000 0.000000
      vertex 35.000000 6.000000 0.000000
    endloop
  endfacet
  facet normal 0.000000 0.000000 -1.000000
    outer loop
      vertex -2.678124 -0.974757 0.000000
      vertex -21.572949 1.763356 0.000000
      vertex -23.000000 2.800169 0.000000
    endloop
  endfacet
  facet normal 0.000000 0.000000 -1.000000
    outer loop
      vertex 30.000000 -3.000000 0.000000
      vertex 35.000000 -6.000000 0.000000
      vertex 23.000000 -3.000000 0.000000
    endloop
  endfacet
  facet normal 0.000000 -0.000000 -1.000000
    outer loop
      vertex -1.425000 2.468172 0.000000
      vertex -35.000000 6.000000 0.000000
      vertex 0.494897 2.806702 0.000000
    endloop
  endfacet
  facet normal 0.000000 -0.000000 -1.000000
    outer loop
      vertex 2.183227 1.831945 0.000000
      vertex 0.494897 2.806702 0.000000
      vertex 35.000000 6.000000 0.000000
    endloop
  endfacet
  facet normal 0.000000 0.000000 -1.000000
    outer loop
      vertex -2.678124 -0.974757 0.000000
      vertex -23.000000 2.800169 0.000000
      vertex -23.000000 3.000000 0.000000
    endloop
  endfacet
  facet normal 0.000000 0.000000 -1.000000
    outer loop
      vertex 21.572949 -1.763356 0.000000
      vertex 2.850000 0.000000 0.000000
      vertex 21.000000 0.000000 0.000000
    endloop
  endfacet
  facet normal 0.000000 0.000000 -1.000000
    outer loop
      vertex 23.000000 -2.800169 0.000000
      vertex 2.850000 0.000000 0.000000
      vertex 21.572949 -1.763356 0.000000
    endloop
  endfacet
  facet normal 0.000000 0.000000 -1.000000
    outer loop
      vertex 23.000000 -3.000000 0.000000
      vertex 2.850000 0.000000 0.000000
      vertex 23.000000 -2.800169 0.000000
    endloop
  endfacet
  facet normal 0.000000 0.000000 -1.000000
    outer loop
      vertex 35.000000 -6.000000 0.000000
      vertex 2.850000 0.000000 0.000000
      vertex 23.000000 -3.000000 0.000000
    endloop
  endfacet
  facet normal 0.000000 0.000000 -1.000000
    outer loop
      vertex 31.427051 -1.763356 0.000000
      vertex 30.000000 -3.000000 0.000000
      vertex 30.000000 -2.800169 0.000000
    endloop
  endfacet
  facet normal 0.000000 0.000000 -1.000000
    outer loop
      vertex 35.000000 -6.000000 0.000000
      vertex 30.000000 -3.000000 0.000000
      vertex 31.427051 -1.763356 0.000000
    endloop
  endfacet
  facet normal 0.000000 0.000000 -1.000000
    outer loop
      vertex 35.000000 -6.000000 0.000000
      vertex 31.427051 -1.763356 0.000000
      vertex 35.000000 6.000000 0.000000
    endloop
  endfacet
  facet normal -0.000000 0.000000 -1.000000
    outer loop
      vertex 31.427051 1.763356 0.000000
      vertex 35.000000 6.000000 0.000000
      vertex 32.000000 0.000000 0.000000
    endloop
  endfacet
  facet normal 0.000000 0.000000 -1.000000
    outer loop
      vertex 31.427051 -1.763356 0.000000
      vertex 32.000000 0.000000 0.000000
      vertex 35.000000 6.000000 0.000000
    endloop
  endfacet
  facet normal -0.000000 0.000000 -1.000000
    outer loop
      vertex 23.000000 3.000000 0.000000
      vertex 35.000000 6.000000 0.000000
      vertex 30.000000 3.000000 0.000000
    endloop
  endfacet
  facet normal 0.000000 -0.000000 -1.000000
    outer loop
      vertex 31.427051 1.763356 0.000000
      vertex 30.000000 2.800169 0.000000
      vertex 35.000000 6.000000 0.000000
    endloop
  endfacet
  facet normal 0.000000 -0.000000 -1.000000
    outer loop
      vertex 30.000000 2.800169 0.000000
      vertex 30.000000 3.000000 0.000000
      vertex 35.000000 6.000000 0.000000
    endloop
  endfacet
  facet normal 0.000000 -0.000000 -1.000000
    outer loop
      vertex 21.572949 1.763356 0.000000
      vertex 2.850000 0.000000 0.000000
      vertex 23.000000 3.000000 0.000000
    endloop
  endfacet
  facet normal 0.000000 0.000000 -1.000000
    outer loop
      vertex 21.572949 1.763356 0.000000
      vertex 23.000000 3.000000 0.000000
      vertex 23.000000 2.800169 0.000000
    endloop
  endfacet
  facet normal 0.000000 -0.000000 -1.000000
    outer loop
      vertex 21.000000 0.000000 0.000000
      vertex 2.850000 0.000000 0.000000
      vertex 21.572949 1.763356 0.000000
    endloop
  endfacet
  facet normal 0.000000 0.000000 -1.000000
    outer loop
      vertex -23.000000 -3.000000 0.000000
      vertex 35.000000 -6.000000 0.000000
      vertex -30.000000 -3.000000 0.000000
    endloop
  endfacet
  facet normal 0.000000 0.000000 -1.000000
    outer loop
      vertex -21.000000 0.000000 0.000000
      vertex 0.494897 -2.806702 0.000000
      vertex -21.572949 -1.763356 0.000000
    endloop
  endfacet
  facet normal 0.000000 1.000000 0.000000
    outer loop
      vertex -35.000000 6.000000 0.000000
      vertex -35.000000 6.000000 4.500000
      vertex 35.000000 6.000000 0.000000
    endloop
  endfacet
  facet normal 0.000000 1.000000 0.000000
    outer loop
      vertex 35.000000 6.000000 0.000000
      vertex -35.000000 6.000000 4.500000
      vertex 35.000000 6.000000 4.500000
    endloop
  endfacet
  facet normal 0.000000 -0.000000 1.000000
    outer loop
      vertex -23.000000 -3.000000 4.500000
      vertex -35.000000 -6.000000 4.500000
      vertex 35.000000 -6.000000 4.500000
    endloop
  endfacet
  facet normal 0.000000 0.000000 1.000000
    outer loop
      vertex -23.000000 -3.000000 4.500000
      vertex -30.000000 -3.000000 4.500000
      vertex -35.000000 -6.000000 4.500000
    endloop
  endfacet
  facet normal 0.000000 -0.000000 1.000000
    outer loop
      vertex -35.000000 6.000000 4.500000
      vertex -35.000000 -6.000000 4.500000
      vertex -31.427051 -1.763356 4.500000
    endloop
  endfacet
  facet normal 0.000000 -0.000000 1.000000
    outer loop
      vertex -21.572949 -1.763356 4.500000
      vertex -23.000000 -2.800169 4.500000
      vertex 35.000000 -6.000000 4.500000
    endloop
  endfacet
  facet normal 0.000000 0.000000 1.000000
    outer loop
      vertex -35.000000 6.000000 4.500000
      vertex -31.427051 -1.763356 4.500000
      vertex -32.000000 0.000000 4.500000
    endloop
  endfacet
  facet normal -0.000000 -0.000000 1.000000
    outer loop
      vertex 0.494897 -2.806702 4.500000
      vertex -21.572949 -1.763356 4.500000
      vertex 35.000000 -6.000000 4.500000
    endloop
  endfacet
  facet normal 0.000000 0.000000 1.000000
    outer loop
      vertex -35.000000 6.000000 4.500000
      vertex -32.000000 0.000000 4.500000
      vertex -31.427051 1.763356 4.500000
    endloop
  endfacet
  facet normal 0.000000 0.000000 1.000000
    outer loop
      vertex -35.000000 6.000000 4.500000
      vertex -31.427051 1.763356 4.500000
      vertex -30.000000 2.800169 4.500000
    endloop
  endfacet
  facet normal 0.000000 0.000000 1.000000
    outer loop
      vertex -35.000000 6.000000 4.500000
      vertex -30.000000 2.800169 4.500000
      vertex -30.000000 3.000000 4.500000
    endloop
  endfacet
  facet normal 0.000000 0.000000 1.000000
    outer loop
      vertex 0.494897 2.806702 4.500000
      vertex 2.183227 1.831945 4.500000
      vertex 35.000000 6.000000 4.500000
    endloop
  endfacet
  facet normal 0.000000 0.000000 1.000000
    outer loop
      vertex -35.000000 6.000000 4.500000
      vertex -30.000000 3.000000 4.500000
      vertex -23.000000 3.000000 4.500000
    endloop
  endfacet
  facet normal 0.000000 -0.000000 1.000000
    outer loop
      vertex 2.850000 0.000000 4.500000
      vertex 2.183227 -1.831945 4.500000
      vertex 35.000000 -6.000000 4.500000
    endloop
  endfacet
  facet normal 0.000000 -0.000000 1.000000
    outer loop
      vertex -23.000000 -2.800169 4.500000
      vertex -23.000000 -3.000000 4.500000
      vertex 35.000000 -6.000000 4.500000
    endloop
  endfacet
  facet normal 0.000000 -0.000000 1.000000
    outer loop
      vertex -31.427051 -1.763356 4.500000
      vertex -35.000000 -6.000000 4.500000
      vertex -30.000000 -3.000000 4.500000
    endloop
  endfacet
  facet normal 0.000000 0.000000 1.000000
    outer loop
      vertex -31.427051 -1.763356 4.500000
      vertex -30.000000 -3.000000 4.500000
      vertex -30.000000 -2.800169 4.500000
    endloop
  endfacet
  facet normal 0.000000 0.000000 1.000000
    outer loop
      vertex -2.678124 -0.974757 4.500000
      vertex -2.678124 0.974757 4.500000
      vertex -35.000000 6.000000 4.500000
    endloop
  endfacet
  facet normal 0.000000 0.000000 1.000000
    outer loop
      vertex -1.425000 -2.468172 4.500000
      vertex -2.678124 -0.974757 4.500000
      vertex -21.572949 1.763356 4.500000
    endloop
  endfacet
  facet normal -0.000000 0.000000 1.000000
    outer loop
      vertex -1.425000 2.468172 4.500000
      vertex -35.000000 6.000000 4.500000
      vertex -2.678124 0.974757 4.500000
    endloop
  endfacet
  facet normal -0.000000 0.000000 1.000000
    outer loop
      vertex 0.494897 2.806702 4.500000
      vertex -35.000000 6.000000 4.500000
      vertex -1.425000 2.468172 4.500000
    endloop
  endfacet
  facet normal 0.000000 0.000000 1.000000
    outer loop
      vertex 2.183227 1.831945 4.500000
      vertex 2.850000 0.000000 4.500000
      vertex 35.000000 6.000000 4.500000
    endloop
  endfacet
  facet normal 0.000000 0.000000 1.000000
    outer loop
      vertex 35.000000 6.000000 4.500000
      vertex -35.000000 6.000000 4.500000
      vertex 0.494897 2.806702 4.500000
    endloop
  endfacet
  facet normal -0.000000 -0.000000 1.000000
    outer loop
      vertex 23.000000 -3.000000 4.500000
      vertex 2.850000 0.000000 4.500000
      vertex 35.000000 -6.000000 4.500000
    endloop
  endfacet
  facet normal 0.000000 -0.000000 1.000000
    outer loop
      vertex -21.000000 0.000000 4.500000
      vertex -21.572949 -1.763356 4.500000
      vertex 0.494897 -2.806702 4.500000
    endloop
  endfacet
  facet normal 0.000000 0.000000 1.000000
    outer loop
      vertex -1.425000 -2.468172 4.500000
      vertex -21.572949 1.763356 4.500000
      vertex -21.000000 0.000000 4.500000
    endloop
  endfacet
  facet normal 0.000000 0.000000 1.000000
    outer loop
      vertex -2.678124 -0.974757 4.500000
      vertex -35.000000 6.000000 4.500000
      vertex -23.000000 3.000000 4.500000
    endloop
  endfacet
  facet normal 0.000000 0.000000 1.000000
    outer loop
      vertex -21.000000 0.000000 4.500000
      vertex 0.494897 -2.806702 4.500000
      vertex -1.425000 -2.468172 4.500000
    endloop
  endfacet
  facet normal 0.000000 -0.000000 1.000000
    outer loop
      vertex 21.000000 0.000000 4.500000
      vertex 2.850000 0.000000 4.500000
      vertex 21.572949 -1.763356 4.500000
    endloop
  endfacet
  facet normal 0.000000 0.000000 1.000000
    outer loop
      vertex 21.572949 1.763356 4.500000
      vertex 2.850000 0.000000 4.500000
      vertex 21.000000 0.000000 4.500000
    endloop
  endfacet
  facet normal 0.000000 0.000000 1.000000
    outer loop
      vertex 30.000000 2.800169 4.500000
      vertex 31.427051 1.763356 4.500000
      vertex 30.000000 3.000000 4.500000
    endloop
  endfacet
  facet normal 0.000000 0.000000 1.000000
    outer loop
      vertex 23.000000 2.800169 4.500000
      vertex 2.850000 0.000000 4.500000
      vertex 21.572949 1.763356 4.500000
    endloop
  endfacet
  facet normal 0.000000 0.000000 1.000000
    outer loop
      vertex 23.000000 3.000000 4.500000
      vertex 2.850000 0.000000 4.500000
      vertex 23.000000 2.800169 4.500000
    endloop
  endfacet
  facet normal 0.000000 0.000000 1.000000
    outer loop
      vertex 35.000000 6.000000 4.500000
      vertex 2.850000 0.000000 4.500000
      vertex 23.000000 3.000000 4.500000
    endloop
  endfacet
  facet normal 0.000000 -0.000000 1.000000
    outer loop
      vertex 32.000000 0.000000 4.500000
      vertex 31.427051 -1.763356 4.500000
      vertex 35.000000 -6.000000 4.500000
    endloop
  endfacet
  facet normal 0.000000 -0.000000 1.000000
    outer loop
      vertex 30.000000 -3.000000 4.500000
      vertex 23.000000 -3.000000 4.500000
      vertex 35.000000 -6.000000 4.500000
    endloop
  endfacet
  facet normal 0.000000 0.000000 1.000000
    outer loop
      vertex 35.000000 6.000000 4.500000
      vertex 31.427051 1.763356 4.500000
      vertex 35.000000 -6.000000 4.500000
    endloop
  endfacet
  facet normal 0.000000 0.000000 1.000000
    outer loop
      vertex 35.000000 6.000000 4.500000
      vertex 30.000000 3.000000 4.500000
      vertex 31.427051 1.763356 4.500000
    endloop
  endfacet
  facet normal 0.000000 0.000000 1.000000
    outer loop
      vertex 31.427051 1.763356 4.500000
      vertex 32.000000 0.000000 4.500000
      vertex 35.000000 -6.000000 4.500000
    endloop
  endfacet
  facet normal 0.000000 -0.000000 1.000000
    outer loop
      vertex 31.427051 -1.763356 4.500000
      vertex 30.000000 -2.800169 4.500000
      vertex 35.000000 -6.000000 4.500000
    endloop
  endfacet
  facet normal 0.000000 -0.000000 1.000000
    outer loop
      vertex 30.000000 -2.800169 4.500000
      vertex 30.000000 -3.000000 4.500000
      vertex 35.000000 -6.000000 4.500000
    endloop
  endfacet
  facet normal -0.000000 -0.000000 1.000000
    outer loop
      vertex 21.572949 -1.763356 4.500000
      vertex 2.850000 0.000000 4.500000
      vertex 23.000000 -3.000000 4.500000
    endloop
  endfacet
  facet normal 0.000000 0.000000 1.000000
    outer loop
      vertex 21.572949 -1.763356 4.500000
      vertex 23.000000 -3.000000 4.500000
      vertex 23.000000 -2.800169 4.500000
    endloop
  endfacet
  facet normal 0.000000 0.000000 1.000000
    outer loop
      vertex 23.000000 3.000000 4.500000
      vertex 30.000000 3.000000 4.500000
      vertex 35.000000 6.000000 4.500000
    endloop
  endfacet
  facet normal 0.000000 -0.000000 1.000000
    outer loop
      vertex 2.183227 -1.831945 4.500000
      vertex 0.494897 -2.806702 4.500000
      vertex 35.000000 -6.000000 4.500000
    endloop
  endfacet
  facet normal 0.000000 0.000000 1.000000
    outer loop
      vertex -2.678124 -0.974757 4.500000
      vertex -23.000000 3.000000 4.500000
      vertex -23.000000 2.800169 4.500000
    endloop
  endfacet
  facet normal 0.000000 0.000000 1.000000
    outer loop
      vertex -2.678124 -0.974757 4.500000
      vertex -23.000000 2.800169 4.500000
      vertex -21.572949 1.763356 4.500000
    endloop
  endfacet
  facet normal 1.000000 0.000000 -0.000000
    outer loop
      vertex 35.000000 -6.000000 4.500000
      vertex 35.000000 -6.000000 0.000000
      vertex 35.000000 6.000000 0.000000
    endloop
  endfacet
  facet normal 1.000000 0.000000 0.000000
    outer loop
      vertex 35.000000 6.000000 4.500000
      vertex 35.000000 -6.000000 4.500000
      vertex 35.000000 6.000000 0.000000
    endloop
  endfacet
  facet normal 0.951057 0.309017 0.000000
    outer loop
      vertex -32.000000 0.000000 4.500000
      vertex -31.427051 -1.763356 4.500000
      vertex -31.427051 -1.763356 0.000000
    endloop
  endfacet
  facet normal 0.951057 0.309017 0.000000
    outer loop
      vertex -32.000000 0.000000 0.000000
      vertex -32.000000 0.000000 4.500000
      vertex -31.427051 -1.763356 0.000000
    endloop
  endfacet
  facet normal 0.951057 -0.309017 0.000000
    outer loop
      vertex -31.427051 1.763356 0.000000
      vertex -31.427051 1.763356 4.500000
      vertex -32.000000 0.000000 4.500000
    endloop
  endfacet
  facet normal 0.951057 -0.309017 0.000000
    outer loop
      vertex -32.000000 0.000000 0.000000
      vertex -31.427051 1.763356 0.000000
      vertex -32.000000 0.000000 4.500000
    endloop
  endfacet
  facet normal 0.587785 -0.809017 0.000000
    outer loop
      vertex -30.000000 2.800169 0.000000
      vertex -30.000000 2.800169 4.500000
      vertex -31.427051 1.763356 4.500000
    endloop
  endfacet
  facet normal 0.587785 -0.809017 0.000000
    outer loop
      vertex -31.427051 1.763356 0.000000
      vertex -30.000000 2.800169 0.000000
      vertex -31.427051 1.763356 4.500000
    endloop
  endfacet
  facet normal 1.000000 0.000000 0.000000
    outer loop
      vertex -30.000000 3.000000 0.000000
      vertex -30.000000 3.000000 4.500000
      vertex -30.000000 2.800169 4.500000
    endloop
  endfacet
  facet normal 1.000000 0.000000 0.000000
    outer loop
      vertex -30.000000 2.800169 0.000000
      vertex -30.000000 3.000000 0.000000
      vertex -30.000000 2.800169 4.500000
    endloop
  endfacet
  facet normal 0.000000 -1.000000 0.000000
    outer loop
      vertex -23.000000 3.000000 0.000000
      vertex -23.000000 3.000000 4.500000
      vertex -30.000000 3.000000 4.500000
    endloop
  endfacet
  facet normal -0.000000 -1.000000 -0.000000
    outer loop
      vertex -30.000000 3.000000 0.000000
      vertex -23.000000 3.000000 0.000000
      vertex -30.000000 3.000000 4.500000
    endloop
  endfacet
  facet normal -1.000000 0.000000 0.000000
    outer loop
      vertex -23.000000 3.000000 4.500000
      vertex -23.000000 3.000000 0.000000
      vertex -23.000000 2.800169 4.500000
    endloop
  endfacet
  facet normal -1.000000 0.000000 0.000000
    outer loop
      vertex -23.000000 2.800169 4.500000
      vertex -23.000000 3.000000 0.000000
      vertex -23.000000 2.800169 0.000000
    endloop
  endfacet
  facet normal -0.587785 -0.809017 -0.000000
    outer loop
      vertex -21.572949 1.763356 0.000000
      vertex -21.572949 1.763356 4.500000
      vertex -23.000000 2.800169 4.500000
    endloop
  endfacet
  facet normal -0.587785 -0.809017 -0.000000
    outer loop
      vertex -23.000000 2.800169 0.000000
      vertex -21.572949 1.763356 0.000000
      vertex -23.000000 2.800169 4.500000
    endloop
  endfacet
  facet normal -0.951057 -0.309017 0.000000
    outer loop
      vertex -21.000000 0.000000 4.500000
      vertex -21.572949 1.763356 4.500000
      vertex -21.000000 0.000000 0.000000
    endloop
  endfacet
  facet normal -0.951057 -0.309017 0.000000
    outer loop
      vertex -21.000000 0.000000 0.000000
      vertex -21.572949 1.763356 4.500000
      vertex -21.572949 1.763356 0.000000
    endloop
  endfacet
  facet normal -0.951057 0.309017 0.000000
    outer loop
      vertex -21.000000 0.000000 4.500000
      vertex -21.000000 0.000000 0.000000
      vertex -21.572949 -1.763356 4.500000
    endloop
  endfacet
  facet normal -0.951057 0.309017 0.000000
    outer loop
      vertex -21.572949 -1.763356 4.500000
      vertex -21.000000 0.000000 0.000000
      vertex -21.572949 -1.763356 0.000000
    endloop
  endfacet
  facet normal -0.587785 0.809017 0.000000
    outer loop
      vertex -21.572949 -1.763356 4.500000
      vertex -21.572949 -1.763356 0.000000
      vertex -23.000000 -2.800169 4.500000
    endloop
  endfacet
  facet normal -0.587785 0.809017 0.000000
    outer loop
      vertex -23.000000 -2.800169 4.500000
      vertex -21.572949 -1.763356 0.000000
      vertex -23.000000 -2.800169 0.000000
    endloop
  endfacet
  facet normal -1.000000 0.000000 0.000000
    outer loop
      vertex -23.000000 -2.800169 4.500000
      vertex -23.000000 -2.800169 0.000000
      vertex -23.000000 -3.000000 4.500000
    endloop
  endfacet
  facet normal -1.000000 0.000000 0.000000
    outer loop
      vertex -23.000000 -3.000000 4.500000
      vertex -23.000000 -2.800169 0.000000
      vertex -23.000000 -3.000000 0.000000
    endloop
  endfacet
  facet normal 0.000000 1.000000 0.000000
    outer loop
      vertex -23.000000 -3.000000 4.500000
      vertex -23.000000 -3.000000 0.000000
      vertex -30.000000 -3.000000 4.500000
    endloop
  endfacet
  facet normal 0.000000 1.000000 -0.000000
    outer loop
      vertex -30.000000 -3.000000 4.500000
      vertex -23.000000 -3.000000 0.000000
      vertex -30.000000 -3.000000 0.000000
    endloop
  endfacet
  facet normal 1.000000 0.000000 0.000000
    outer loop
      vertex -30.000000 -2.800169 0.000000
      vertex -30.000000 -2.800169 4.500000
      vertex -30.000000 -3.000000 4.500000
    endloop
  endfacet
  facet normal 1.000000 0.000000 0.000000
    outer loop
      vertex -30.000000 -3.000000 0.000000
      vertex -30.000000 -2.800169 0.000000
      vertex -30.000000 -3.000000 4.500000
    endloop
  endfacet
  facet normal 0.587785 0.809017 -0.000000
    outer loop
      vertex -30.000000 -2.800169 4.500000
      vertex -30.000000 -2.800169 0.000000
      vertex -31.427051 -1.763356 4.500000
    endloop
  endfacet
  facet normal 0.587785 0.809017 -0.000000
    outer loop
      vertex -31.427051 -1.763356 4.500000
      vertex -30.000000 -2.800169 0.000000
      vertex -31.427051 -1.763356 0.000000
    endloop
  endfacet
  facet normal 1.000000 0.000000 0.000000
    outer loop
      vertex -2.678124 0.974757 0.000000
      vertex -2.678124 0.974757 4.500000
      vertex -2.678124 -0.974757 4.500000
    endloop
  endfacet
  facet normal 1.000000 0.000000 0.000000
    outer loop
      vertex -2.678124 -0.974757 0.000000
      vertex -2.678124 0.974757 0.000000
      vertex -2.678124 -0.974757 4.500000
    endloop
  endfacet
  facet normal 0.766044 -0.642788 0.000000
    outer loop
      vertex -1.425000 2.468172 0.000000
      vertex -1.425000 2.468172 4.500000
      vertex -2.678124 0.974757 4.500000
    endloop
  endfacet
  facet normal 0.766044 -0.642788 0.000000
    outer loop
      vertex -2.678124 0.974757 0.000000
      vertex -1.425000 2.468172 0.000000
      vertex -2.678124 0.974757 4.500000
    endloop
  endfacet
  facet normal 0.173648 -0.984808 0.000000
    outer loop
      vertex 0.494897 2.806702 0.000000
      vertex 0.494897 2.806702 4.500000
      vertex -1.425000 2.468172 4.500000
    endloop
  endfacet
  facet normal 0.173648 -0.984808 0.000000
    outer loop
      vertex -1.425000 2.468172 0.000000
      vertex 0.494897 2.806702 0.000000
      vertex -1.425000 2.468172 4.500000
    endloop
  endfacet
  facet normal -0.500000 -0.866026 -0.000000
    outer loop
      vertex 2.183227 1.831945 0.000000
      vertex 2.183227 1.831945 4.500000
      vertex 0.494897 2.806702 4.500000
    endloop
  endfacet
  facet normal -0.500000 -0.866026 -0.000000
    outer loop
      vertex 0.494897 2.806702 0.000000
      vertex 2.183227 1.831945 0.000000
      vertex 0.494897 2.806702 4.500000
    endloop
  endfacet
  facet normal -0.939693 -0.342020 0.000000
    outer loop
      vertex 2.850000 0.000000 4.500000
      vertex 2.183227 1.831945 4.500000
      vertex 2.850000 0.000000 0.000000
    endloop
  endfacet
  facet normal -0.939693 -0.342020 0.000000
    outer loop
      vertex 2.850000 0.000000 0.000000
      vertex 2.183227 1.831945 4.500000
      vertex 2.183227 1.831945 0.000000
    endloop
  endfacet
  facet normal -0.939693 0.342020 0.000000
    outer loop
      vertex 2.850000 0.000000 4.500000
      vertex 2.850000 0.000000 0.000000
      vertex 2.183227 -1.831945 4.500000
    endloop
  endfacet
  facet normal -0.939693 0.342020 0.000000
    outer loop
      vertex 2.183227 -1.831945 4.500000
      vertex 2.850000 0.000000 0.000000
      vertex 2.183227 -1.831945 0.000000
    endloop
  endfacet
  facet normal -0.500000 0.866026 0.000000
    outer loop
      vertex 2.183227 -1.831945 4.500000
      vertex 2.183227 -1.831945 0.000000
      vertex 0.494897 -2.806702 4.500000
    endloop
  endfacet
  facet normal -0.500000 0.866026 0.000000
    outer loop
      vertex 0.494897 -2.806702 4.500000
      vertex 2.183227 -1.831945 0.000000
      vertex 0.494897 -2.806702 0.000000
    endloop
  endfacet
  facet normal 0.173648 0.984808 -0.000000
    outer loop
      vertex 0.494897 -2.806702 4.500000
      vertex 0.494897 -2.806702 0.000000
      vertex -1.425000 -2.468172 4.500000
    endloop
  endfacet
  facet normal 0.173648 0.984808 -0.000000
    outer loop
      vertex -1.425000 -2.468172 4.500000
      vertex 0.494897 -2.806702 0.000000
      vertex -1.425000 -2.468172 0.000000
    endloop
  endfacet
  facet normal 0.766044 0.642788 0.000000
    outer loop
      vertex -2.678124 -0.974757 4.500000
      vertex -1.425000 -2.468172 4.500000
      vertex -1.425000 -2.468172 0.000000
    endloop
  endfacet
  facet normal 0.766044 0.642788 0.000000
    outer loop
      vertex -2.678124 -0.974757 0.000000
      vertex -2.678124 -0.974757 4.500000
      vertex -1.425000 -2.468172 0.000000
    endloop
  endfacet
  facet normal 0.951057 -0.309017 0.000000
    outer loop
      vertex 21.572949 1.763356 0.000000
      vertex 21.572949 1.763356 4.500000
      vertex 21.000000 0.000000 4.500000
    endloop
  endfacet
  facet normal 0.951057 -0.309017 0.000000
    outer loop
      vertex 21.000000 0.000000 0.000000
      vertex 21.572949 1.763356 0.000000
      vertex 21.000000 0.000000 4.500000
    endloop
  endfacet
  facet normal 0.951057 0.309017 0.000000
    outer loop
      vertex 21.000000 0.000000 4.500000
      vertex 21.572949 -1.763356 4.500000
      vertex 21.572949 -1.763356 0.000000
    endloop
  endfacet
  facet normal 0.951057 0.309017 0.000000
    outer loop
      vertex 21.000000 0.000000 0.000000
      vertex 21.000000 0.000000 4.500000
      vertex 21.572949 -1.763356 0.000000
    endloop
  endfacet
  facet normal 0.587785 -0.809017 0.000000
    outer loop
      vertex 23.000000 2.800169 0.000000
      vertex 23.000000 2.800169 4.500000
      vertex 21.572949 1.763356 4.500000
    endloop
  endfacet
  facet normal 0.587785 -0.809017 0.000000
    outer loop
      vertex 21.572949 1.763356 0.000000
      vertex 23.000000 2.800169 0.000000
      vertex 21.572949 1.763356 4.500000
    endloop
  endfacet
  facet normal 1.000000 0.000000 0.000000
    outer loop
      vertex 23.000000 3.000000 0.000000
      vertex 23.000000 3.000000 4.500000
      vertex 23.000000 2.800169 4.500000
    endloop
  endfacet
  facet normal 1.000000 0.000000 0.000000
    outer loop
      vertex 23.000000 2.800169 0.000000
      vertex 23.000000 3.000000 0.000000
      vertex 23.000000 2.800169 4.500000
    endloop
  endfacet
  facet normal 0.000000 -1.000000 0.000000
    outer loop
      vertex 30.000000 3.000000 0.000000
      vertex 30.000000 3.000000 4.500000
      vertex 23.000000 3.000000 4.500000
    endloop
  endfacet
  facet normal -0.000000 -1.000000 -0.000000
    outer loop
      vertex 23.000000 3.000000 0.000000
      vertex 30.000000 3.000000 0.000000
      vertex 23.000000 3.000000 4.500000
    endloop
  endfacet
  facet normal -1.000000 0.000000 0.000000
    outer loop
      vertex 30.000000 3.000000 4.500000
      vertex 30.000000 3.000000 0.000000
      vertex 30.000000 2.800169 4.500000
    endloop
  endfacet
  facet normal -1.000000 0.000000 0.000000
    outer loop
      vertex 30.000000 2.800169 4.500000
      vertex 30.000000 3.000000 0.000000
      vertex 30.000000 2.800169 0.000000
    endloop
  endfacet
  facet normal -0.587785 -0.809017 -0.000000
    outer loop
      vertex 31.427051 1.763356 0.000000
      vertex 31.427051 1.763356 4.500000
      vertex 30.000000 2.800169 4.500000
    endloop
  endfacet
  facet normal -0.587785 -0.809017 -0.000000
    outer loop
      vertex 30.000000 2.800169 0.000000
      vertex 31.427051 1.763356 0.000000
      vertex 30.000000 2.800169 4.500000
    endloop
  endfacet
  facet normal -0.951057 -0.309017 0.000000
    outer loop
      vertex 32.000000 0.000000 4.500000
      vertex 31.427051 1.763356 4.500000
      vertex 32.000000 0.000000 0.000000
    endloop
  endfacet
  facet normal -0.951057 -0.309017 0.000000
    outer loop
      vertex 32.000000 0.000000 0.000000
      vertex 31.427051 1.763356 4.500000
      vertex 31.427051 1.763356 0.000000
    endloop
  endfacet
  facet normal -0.951057 0.309017 0.000000
    outer loop
      vertex 32.000000 0.000000 4.500000
      vertex 32.000000 0.000000 0.000000
      vertex 31.427051 -1.763356 4.500000
    endloop
  endfacet
  facet normal -0.951057 0.309017 0.000000
    outer loop
      vertex 31.427051 -1.763356 4.500000
      vertex 32.000000 0.000000 0.000000
      vertex 31.427051 -1.763356 0.000000
    endloop
  endfacet
  facet normal -0.587785 0.809017 0.000000
    outer loop
      vertex 31.427051 -1.763356 4.500000
      vertex 31.427051 -1.763356 0.000000
      vertex 30.000000 -2.800169 4.500000
    endloop
  endfacet
  facet normal -0.587785 0.809017 0.000000
    outer loop
      vertex 30.000000 -2.800169 4.500000
      vertex 31.427051 -1.763356 0.000000
      vertex 30.000000 -2.800169 0.000000
    endloop
  endfacet
  facet normal -1.000000 0.000000 0.000000
    outer loop
      vertex 30.000000 -2.800169 4.500000
      vertex 30.000000 -2.800169 0.000000
      vertex 30.000000 -3.000000 4.500000
    endloop
  endfacet
  facet normal -1.000000 0.000000 0.000000
    outer loop
      vertex 30.000000 -3.000000 4.500000
      vertex 30.000000 -2.800169 0.000000
      vertex 30.000000 -3.000000 0.000000
    endloop
  endfacet
  facet normal 0.000000 1.000000 0.000000
    outer loop
      vertex 30.000000 -3.000000 4.500000
      vertex 30.000000 -3.000000 0.000000
      vertex 23.000000 -3.000000 4.500000
    endloop
  endfacet
  facet normal 0.000000 1.000000 -0.000000
    outer loop
      vertex 23.000000 -3.000000 4.500000
      vertex 30.000000 -3.000000 0.000000
      vertex 23.000000 -3.000000 0.000000
    endloop
  endfacet
  facet normal 1.000000 0.000000 0.000000
    outer loop
      vertex 23.000000 -2.800169 0.000000
      vertex 23.000000 -2.800169 4.500000
      vertex 23.000000 -3.000000 4.500000
    endloop
  endfacet
  facet normal 1.000000 0.000000 0.000000
    outer loop
      vertex 23.000000 -3.000000 0.000000
      vertex 23.000000 -2.800169 0.000000
      vertex 23.000000 -3.000000 4.500000
    endloop
  endfacet
  facet normal 0.587785 0.809017 -0.000000
    outer loop
      vertex 23.000000 -2.800169 4.500000
      vertex 23.000000 -2.800169 0.000000
      vertex 21.572949 -1.763356 4.500000
    endloop
  endfacet
  facet normal 0.587785 0.809017 -0.000000
    outer loop
      vertex 21.572949 -1.763356 4.500000
      vertex 23.000000 -2.800169 0.000000
      vertex 21.572949 -1.763356 0.000000
    endloop
  endfacet
endsolid OpenSCAD_Model
